ISO-10303-21;
HEADER;
FILE_DESCRIPTION (( 'STEP AP214' ),
    '1' );
FILE_NAME ('banana-plug-wrench-v0.STEP',
    '2026-10-03T21:20:56',
    ( '' ),
    ( '' ),
    'SwSTEP 2.0',
    'SolidWorks 2026',
    '' );
FILE_SCHEMA (( 'AUTOMOTIVE_DESIGN' ));
ENDSEC;

DATA;
#1 = CARTESIAN_POINT ( 'NONE',  ( -8.955733654611984562, 6.824328505404042566, 35.00001200000000523 ) ) ;
#2 = EDGE_LOOP ( 'NONE', ( #818, #43, #216, #628, #41, #561, #679, #644 ) ) ;
#3 = CARTESIAN_POINT ( 'NONE',  ( 12.01296561486209846, 3.458009181533978182, 35.00001199999999812 ) ) ;
#4 = DIRECTION ( 'NONE',  ( -0.000000000000000000, -0.000000000000000000, 1.000000000000000000 ) ) ;
#5 = B_SPLINE_CURVE_WITH_KNOTS ( 'NONE', 3,
 ( #93, #473, #238, #402 ),
 .UNSPECIFIED., .F., .F.,
 ( 4, 4 ),
 ( 0.8440489600623825028, 1.000000000000000000 ),
 .UNSPECIFIED. ) ;
#6 = ORIENTED_EDGE ( 'NONE', *, *, #985, .F. ) ;
#7 = EDGE_CURVE ( 'NONE', #393, #509, #769, .T. ) ;
#8 = DIRECTION ( 'NONE',  ( 0.000000000000000000, 0.000000000000000000, 1.000000000000000000 ) ) ;
#9 = AXIS2_PLACEMENT_3D ( 'NONE', #294, #778, #205 ) ;
#10 = FACE_OUTER_BOUND ( 'NONE', #244, .T. ) ;
#11 = VECTOR ( 'NONE', #964, 1000.000000000000000 ) ;
#12 = EDGE_CURVE ( 'NONE', #331, #570, #146, .T. ) ;
#13 = ORIENTED_EDGE ( 'NONE', *, *, #403, .F. ) ;
#14 = DIRECTION ( 'NONE',  ( 1.000000000000000000, 0.000000000000000000, 0.000000000000000000 ) ) ;
#15 = PLANE ( 'NONE',  #434 ) ;
#16 = EDGE_LOOP ( 'NONE', ( #658, #404, #345, #810, #853, #538, #828, #376, #659, #725, #269, #1026, #175, #111, #983 ) ) ;
#17 = DIRECTION ( 'NONE',  ( -0.000000000000000000, -0.000000000000000000, -1.000000000000000000 ) ) ;
#18 = CARTESIAN_POINT ( 'NONE',  ( -5.919459434779495766, 1.249999999999999778, 1.500000000000001332 ) ) ;
#19 = DIRECTION ( 'NONE',  ( -1.000000000000000000, 0.000000000000000000, 0.000000000000000000 ) ) ;
#20 = EDGE_LOOP ( 'NONE', ( #48, #899, #1009, #312 ) ) ;
#21 = CARTESIAN_POINT ( 'NONE',  ( 7.901740314639554619, 1.249999999999995781, 30.00000000000000000 ) ) ;
#22 = AXIS2_PLACEMENT_3D ( 'NONE', #377, #867, #607 ) ;
#23 = DIRECTION ( 'NONE',  ( 1.000000000000000000, 0.000000000000000000, -0.000000000000000000 ) ) ;
#24 = EDGE_CURVE ( 'NONE', #900, #1020, #1011, .T. ) ;
#25 = DIRECTION ( 'NONE',  ( 0.000000000000000000, 0.000000000000000000, 1.000000000000000000 ) ) ;
#26 = VERTEX_POINT ( 'NONE', #305 ) ;
#27 = CIRCLE ( 'NONE', #237, 12.50000000000000000 ) ;
#28 = VECTOR ( 'NONE', #124, 1000.000000000000000 ) ;
#29 = ORIENTED_EDGE ( 'NONE', *, *, #944, .T. ) ;
#30 = CARTESIAN_POINT ( 'NONE',  ( 0.000000000000000000, 0.000000000000000000, 34.99999999999999289 ) ) ;
#31 = CARTESIAN_POINT ( 'NONE',  ( -5.919459434779496654, -1.250000000000000000, 1.500000000000000000 ) ) ;
#32 = VERTEX_POINT ( 'NONE', #143 ) ;
#33 = EDGE_CURVE ( 'NONE', #514, #32, #844, .T. ) ;
#34 = PLANE ( 'NONE',  #601 ) ;
#35 = DIRECTION ( 'NONE',  ( 1.000000000000000000, 0.000000000000000000, 0.000000000000000000 ) ) ;
#36 = ORIENTED_EDGE ( 'NONE', *, *, #910, .F. ) ;
#37 = ADVANCED_FACE ( 'NONE', ( #375 ), #916, .F. ) ;
#38 = ORIENTED_EDGE ( 'NONE', *, *, #1013, .F. ) ;
#39 = CARTESIAN_POINT ( 'NONE',  ( -12.50000000000000000, 0.000000000000000000, 34.99999999999999289 ) ) ;
#40 = CARTESIAN_POINT ( 'NONE',  ( -12.88218360557866227, 7.706015759489057260, 0.000000000000000000 ) ) ;
#41 = ORIENTED_EDGE ( 'NONE', *, *, #445, .F. ) ;
#42 = ADVANCED_FACE ( 'NONE', ( #47 ), #1001, .T. ) ;
#43 = ORIENTED_EDGE ( 'NONE', *, *, #388, .T. ) ;
#44 = CARTESIAN_POINT ( 'NONE',  ( 5.919459434779495766, -1.250000000000000222, 0.000000000000000000 ) ) ;
#45 = CIRCLE ( 'NONE', #687, 8.000000000000000000 ) ;
#46 = CYLINDRICAL_SURFACE ( 'NONE', #991, 6.049999999999998934 ) ;
#47 = FACE_OUTER_BOUND ( 'NONE', #1031, .T. ) ;
#48 = ORIENTED_EDGE ( 'NONE', *, *, #728, .F. ) ;
#49 = CARTESIAN_POINT ( 'NONE',  ( -8.000000000000000000, 1.249999999999999778, 1.500000000000000000 ) ) ;
#50 = DIRECTION ( 'NONE',  ( 0.000000000000000000, 0.000000000000000000, 1.000000000000000000 ) ) ;
#51 = FACE_OUTER_BOUND ( 'NONE', #193, .T. ) ;
#52 = ORIENTED_EDGE ( 'NONE', *, *, #283, .T. ) ;
#53 = DIRECTION ( 'NONE',  ( -0.000000000000000000, -0.000000000000000000, 1.000000000000000000 ) ) ;
#54 = B_SPLINE_CURVE_WITH_KNOTS ( 'NONE', 3,
 ( #981, #805, #821, #189, #97, #506, #113, #421, #994, #347 ),
 .UNSPECIFIED., .F., .F.,
 ( 4, 2, 2, 2, 4 ),
 ( 0.1757197558735759391, 0.3817898169051819890, 0.5878598779367879557, 0.7939299389683940333, 1.000000000000000000 ),
 .UNSPECIFIED. ) ;
#55 = CARTESIAN_POINT ( 'NONE',  ( -13.11469721247008557, -7.303290378902012492, 30.00000000000000000 ) ) ;
#56 = PLANE ( 'NONE',  #59 ) ;
#57 = ORIENTED_EDGE ( 'NONE', *, *, #142, .T. ) ;
#58 = CARTESIAN_POINT ( 'NONE',  ( -8.000000000000000000, -1.250000000000000000, 1.500000000000000000 ) ) ;
#59 = AXIS2_PLACEMENT_3D ( 'NONE', #929, #67, #368 ) ;
#60 = AXIS2_PLACEMENT_3D ( 'NONE', #524, #61, #843 ) ;
#61 = DIRECTION ( 'NONE',  ( 0.000000000000000000, -0.000000000000000000, 1.000000000000000000 ) ) ;
#62 = CARTESIAN_POINT ( 'NONE',  ( -9.265336282131498180, -8.390681949580603316, 17.50000599999999906 ) ) ;
#63 = ADVANCED_FACE ( 'NONE', ( #940 ), #227, .F. ) ;
#64 = ORIENTED_EDGE ( 'NONE', *, *, #669, .F. ) ;
#65 = DIRECTION ( 'NONE',  ( 1.000000000000000000, 0.000000000000000000, 0.000000000000000000 ) ) ;
#66 = CARTESIAN_POINT ( 'NONE',  ( 0.000000000000000000, 0.000000000000000000, 34.99999999999999289 ) ) ;
#67 = DIRECTION ( 'NONE',  ( 0.000000000000000000, 1.000000000000000000, -1.445602896647339163E-16 ) ) ;
#68 = ORIENTED_EDGE ( 'NONE', *, *, #813, .T. ) ;
#69 = CARTESIAN_POINT ( 'NONE',  ( 12.88218360557866760, -7.706015759489057260, 30.00000000000000000 ) ) ;
#70 = EDGE_CURVE ( 'NONE', #514, #734, #605, .T. ) ;
#71 = AXIS2_PLACEMENT_3D ( 'NONE', #789, #485, #469 ) ;
#72 = CYLINDRICAL_SURFACE ( 'NONE', #568, 4.000000000000000000 ) ;
#73 = EDGE_LOOP ( 'NONE', ( #997, #718, #267, #493 ) ) ;
#74 = LINE ( 'NONE', #1032, #830 ) ;
#75 = AXIS2_PLACEMENT_3D ( 'NONE', #555, #560, #170 ) ;
#76 = AXIS2_PLACEMENT_3D ( 'NONE', #125, #210, #754 ) ;
#77 = AXIS2_PLACEMENT_3D ( 'NONE', #573, #723, #325 ) ;
#78 = DIRECTION ( 'NONE',  ( 0.000000000000000000, 0.000000000000000000, -1.000000000000000000 ) ) ;
#79 = ORIENTED_EDGE ( 'NONE', *, *, #450, .F. ) ;
#80 = DIRECTION ( 'NONE',  ( -0.000000000000000000, -0.000000000000000000, 1.000000000000000000 ) ) ;
#81 = FACE_OUTER_BOUND ( 'NONE', #338, .T. ) ;
#82 = EDGE_CURVE ( 'NONE', #105, #900, #678, .T. ) ;
#83 = VERTEX_POINT ( 'NONE', #133 ) ;
#84 =( NAMED_UNIT ( * ) SI_UNIT ( $, .STERADIAN. ) SOLID_ANGLE_UNIT ( ) );
#85 = ADVANCED_FACE ( 'NONE', ( #934 ), #56, .F. ) ;
#86 = CARTESIAN_POINT ( 'NONE',  ( -6.049999999999998934, 0.000000000000000000, 30.00000000000000000 ) ) ;
#87 = CARTESIAN_POINT ( 'NONE',  ( -11.89979115604299409, 3.828514295925346644, 35.00001171463485150 ) ) ;
#88 = VECTOR ( 'NONE', #860, 1000.000000000000000 ) ;
#89 = EDGE_LOOP ( 'NONE', ( #95, #889, #134, #123 ) ) ;
#90 = DIRECTION ( 'NONE',  ( 0.000000000000000000, 0.000000000000000000, 1.000000000000000000 ) ) ;
#91 = DIRECTION ( 'NONE',  ( 0.000000000000000000, -0.000000000000000000, 1.000000000000000000 ) ) ;
#92 = CIRCLE ( 'NONE', #672, 6.049999999999998934 ) ;
#93 = CARTESIAN_POINT ( 'NONE',  ( -8.882183605578662267, 7.706015759489056371, 35.00000599999999906 ) ) ;
#94 = CIRCLE ( 'NONE', #487, 12.50000000000000000 ) ;
#95 = ORIENTED_EDGE ( 'NONE', *, *, #868, .F. ) ;
#96 = CARTESIAN_POINT ( 'NONE',  ( 9.202438675493516129, 6.319872097729579252, 35.00001199999999812 ) ) ;
#97 = CARTESIAN_POINT ( 'NONE',  ( -9.661243325474822896, -5.239541219724268117, 35.00001199999999812 ) ) ;
#98 = ORIENTED_EDGE ( 'NONE', *, *, #476, .T. ) ;
#99 = CARTESIAN_POINT ( 'NONE',  ( -2.636255770336565440, -11.76970302600836504, 35.00001200000001234 ) ) ;
#100 = CARTESIAN_POINT ( 'NONE',  ( 8.000000000000000000, 9.797174393178825657E-16, 30.00000000000000000 ) ) ;
#101 = EDGE_CURVE ( 'NONE', #580, #454, #688, .T. ) ;
#102 = CARTESIAN_POINT ( 'NONE',  ( 0.000000000000000000, 0.000000000000000000, 34.99999999999999289 ) ) ;
#103 = ORIENTED_EDGE ( 'NONE', *, *, #523, .T. ) ;
#104 =( GEOMETRIC_REPRESENTATION_CONTEXT ( 3 ) GLOBAL_UNCERTAINTY_ASSIGNED_CONTEXT ( ( #833 ) ) GLOBAL_UNIT_ASSIGNED_CONTEXT ( ( #712, #715, #84 ) ) REPRESENTATION_CONTEXT ( 'NONE', 'WORKASPACE' ) );
#105 = VERTEX_POINT ( 'NONE', #150 ) ;
#106 =( LENGTH_UNIT ( ) NAMED_UNIT ( * ) SI_UNIT ( .MILLI., .METRE. ) );
#107 = DIRECTION ( 'NONE',  ( 0.000000000000000000, 0.000000000000000000, 1.000000000000000000 ) ) ;
#108 = AXIS2_PLACEMENT_3D ( 'NONE', #467, #627, #477 ) ;
#109 = CARTESIAN_POINT ( 'NONE',  ( 0.000000000000000000, 0.000000000000000000, 1.500000000000001332 ) ) ;
#110 = AXIS2_PLACEMENT_3D ( 'NONE', #915, #50, #200 ) ;
#111 = ORIENTED_EDGE ( 'NONE', *, *, #478, .T. ) ;
#112 = LINE ( 'NONE', #287, #975 ) ;
#113 = CARTESIAN_POINT ( 'NONE',  ( -10.49470612241902501, -4.250250741153658751, 35.00001199999999812 ) ) ;
#114 = EDGE_CURVE ( 'NONE', #158, #260, #970, .T. ) ;
#115 = DIRECTION ( 'NONE',  ( 1.000000000000000000, 0.000000000000000000, 0.000000000000000000 ) ) ;
#116 = EDGE_CURVE ( 'NONE', #419, #427, #190, .T. ) ;
#117 = ORIENTED_EDGE ( 'NONE', *, *, #298, .T. ) ;
#118 = DIRECTION ( 'NONE',  ( 1.000000000000000000, 0.000000000000000000, 0.000000000000000000 ) ) ;
#119 = ADVANCED_FACE ( 'NONE', ( #51 ), #363, .T. ) ;
#120 = FACE_OUTER_BOUND ( 'NONE', #891, .T. ) ;
#121 = ORIENTED_EDGE ( 'NONE', *, *, #149, .T. ) ;
#122 = DIRECTION ( 'NONE',  ( 1.000000000000000000, 0.000000000000000000, 0.000000000000000000 ) ) ;
#123 = ORIENTED_EDGE ( 'NONE', *, *, #206, .F. ) ;
#124 = DIRECTION ( 'NONE',  ( -0.000000000000000000, -0.000000000000000000, -1.000000000000000000 ) ) ;
#125 = CARTESIAN_POINT ( 'NONE',  ( 0.000000000000000000, 0.000000000000000000, 34.99999999999999289 ) ) ;
#126 = ORIENTED_EDGE ( 'NONE', *, *, #303, .T. ) ;
#127 = APPLICATION_PROTOCOL_DEFINITION ( 'draft international standard', 'automotive_design', 1998, #709 ) ;
#128 = AXIS2_PLACEMENT_3D ( 'NONE', #595, #755, #458 ) ;
#129 = VERTEX_POINT ( 'NONE', #693 ) ;
#130 = CARTESIAN_POINT ( 'NONE',  ( 3.012001884108022942, 12.13277264878669115, 35.00001199999999812 ) ) ;
#131 =( GEOMETRIC_REPRESENTATION_CONTEXT ( 3 ) GLOBAL_UNCERTAINTY_ASSIGNED_CONTEXT ( ( #720 ) ) GLOBAL_UNIT_ASSIGNED_CONTEXT ( ( #106, #968, #976 ) ) REPRESENTATION_CONTEXT ( 'NONE', 'WORKASPACE' ) );
#132 = CARTESIAN_POINT ( 'NONE',  ( 3.012001884108022942, 12.13277264878669115, 35.00001199999999812 ) ) ;
#133 = CARTESIAN_POINT ( 'NONE',  ( -3.012001898617956641, -12.13277266280711153, 35.00001199999999812 ) ) ;
#134 = ORIENTED_EDGE ( 'NONE', *, *, #500, .T. ) ;
#135 = LINE ( 'NONE', #660, #266 ) ;
#136 = CARTESIAN_POINT ( 'NONE',  ( 13.11469721247008735, 7.303290378902012492, 30.00000000000000000 ) ) ;
#137 = DIRECTION ( 'NONE',  ( 1.000000000000000000, 0.000000000000000000, 0.000000000000000000 ) ) ;
#138 = ORIENTED_EDGE ( 'NONE', *, *, #868, .T. ) ;
#139 = DIRECTION ( 'NONE',  ( 0.000000000000000000, 0.000000000000000000, 1.000000000000000000 ) ) ;
#140 = AXIS2_PLACEMENT_3D ( 'NONE', #762, #464, #1010 ) ;
#141 = CARTESIAN_POINT ( 'NONE',  ( -9.265338655864981732, -8.390944854073072889, 35.00000988936702129 ) ) ;
#142 = EDGE_CURVE ( 'NONE', #979, #787, #215, .T. ) ;
#143 = CARTESIAN_POINT ( 'NONE',  ( -5.919459434779495766, -1.249999999999999778, 0.000000000000000000 ) ) ;
#144 = ORIENTED_EDGE ( 'NONE', *, *, #817, .T. ) ;
#145 = CARTESIAN_POINT ( 'NONE',  ( 0.3519428288333827926, -11.01788842173656136, 35.00001200000000523 ) ) ;
#146 = CIRCLE ( 'NONE', #919, 6.049999999999998934 ) ;
#147 = AXIS2_PLACEMENT_3D ( 'NONE', #491, #91, #23 ) ;
#148 = FACE_OUTER_BOUND ( 'NONE', #2, .T. ) ;
#149 = EDGE_CURVE ( 'NONE', #331, #167, #529, .T. ) ;
#150 = CARTESIAN_POINT ( 'NONE',  ( -9.265338655864981732, -8.390944854073072889, 35.00000988936702129 ) ) ;
#151 = ORIENTED_EDGE ( 'NONE', *, *, #507, .T. ) ;
#152 = CARTESIAN_POINT ( 'NONE',  ( -8.882183605578662267, 7.706015759489057260, 30.00000000000000000 ) ) ;
#153 = EDGE_CURVE ( 'NONE', #295, #202, #852, .T. ) ;
#154 = CARTESIAN_POINT ( 'NONE',  ( -11.06318044663347955, 4.116362692797286726, 35.00001199999999812 ) ) ;
#155 = EDGE_LOOP ( 'NONE', ( #228, #602 ) ) ;
#156 = DIRECTION ( 'NONE',  ( 1.000000000000000000, 0.000000000000000000, 0.000000000000000000 ) ) ;
#157 = CARTESIAN_POINT ( 'NONE',  ( 11.89921186447808665, -3.828675620141250402, 17.50000599999999906 ) ) ;
#158 = VERTEX_POINT ( 'NONE', #862 ) ;
#159 = CARTESIAN_POINT ( 'NONE',  ( 0.000000000000000000, 0.000000000000000000, 30.00000000000000000 ) ) ;
#160 = EDGE_CURVE ( 'NONE', #734, #290, #600, .T. ) ;
#161 = PRESENTATION_LAYER_ASSIGNMENT (  '', '', ( #1029 ) ) ;
#162 = DIRECTION ( 'NONE',  ( 0.000000000000000000, 0.000000000000000000, 1.000000000000000000 ) ) ;
#163 = EDGE_CURVE ( 'NONE', #966, #550, #908, .T. ) ;
#164 = VERTEX_POINT ( 'NONE', #564 ) ;
#165 = DIRECTION ( 'NONE',  ( 1.000000000000000000, 0.000000000000000000, 0.000000000000000000 ) ) ;
#166 = CARTESIAN_POINT ( 'NONE',  ( -2.633875582346585364, 12.21935756972184173, 30.00000000000000000 ) ) ;
#167 = VERTEX_POINT ( 'NONE', #230 ) ;
#168 = CARTESIAN_POINT ( 'NONE',  ( 5.919459434779496654, 1.249999999999995781, 30.00000000000000000 ) ) ;
#169 = SURFACE_STYLE_USAGE ( .BOTH. , #937 ) ;
#170 = DIRECTION ( 'NONE',  ( 0.000000000000000000, 1.445602896647339163E-16, -1.000000000000000000 ) ) ;
#171 = EDGE_CURVE ( 'NONE', #261, #694, #92, .T. ) ;
#172 = EDGE_LOOP ( 'NONE', ( #442, #670, #249, #408 ) ) ;
#173 = CARTESIAN_POINT ( 'NONE',  ( 0.000000000000000000, 0.000000000000000000, 30.00000000000000000 ) ) ;
#174 = DIRECTION ( 'NONE',  ( -1.000000000000000000, 0.000000000000000000, 0.000000000000000000 ) ) ;
#175 = ORIENTED_EDGE ( 'NONE', *, *, #450, .T. ) ;
#176 = EDGE_CURVE ( 'NONE', #1020, #83, #234, .T. ) ;
#177 = FACE_OUTER_BOUND ( 'NONE', #745, .T. ) ;
#178 = DIRECTION ( 'NONE',  ( -0.000000000000000000, -0.000000000000000000, -1.000000000000000000 ) ) ;
#179 = CARTESIAN_POINT ( 'NONE',  ( 0.000000000000000000, 0.000000000000000000, 0.000000000000000000 ) ) ;
#180 = EDGE_LOOP ( 'NONE', ( #489, #586, #418, #576, #460, #279, #714, #606 ) ) ;
#181 = ORIENTED_EDGE ( 'NONE', *, *, #263, .T. ) ;
#182 = CARTESIAN_POINT ( 'NONE',  ( 7.901740314639554619, -1.250000000000000000, 1.500000000000000000 ) ) ;
#183 = DIRECTION ( 'NONE',  ( 0.000000000000000000, 0.000000000000000000, 1.000000000000000000 ) ) ;
#184 = VERTEX_POINT ( 'NONE', #724 ) ;
#185 = AXIS2_PLACEMENT_3D ( 'NONE', #391, #245, #962 ) ;
#186 = VERTEX_POINT ( 'NONE', #781 ) ;
#187 = DIRECTION ( 'NONE',  ( 1.000000000000000000, 0.000000000000000000, -0.000000000000000000 ) ) ;
#188 = EDGE_CURVE ( 'NONE', #550, #129, #5, .T. ) ;
#189 = CARTESIAN_POINT ( 'NONE',  ( -9.458119506973991619, -5.625540747616550874, 35.00001199999999102 ) ) ;
#190 = CIRCLE ( 'NONE', #128, 12.50000000000000000 ) ;
#191 = VERTEX_POINT ( 'NONE', #965 ) ;
#192 = CIRCLE ( 'NONE', #335, 6.049999999999998934 ) ;
#193 = EDGE_LOOP ( 'NONE', ( #64, #79, #705, #256 ) ) ;
#194 = DIRECTION ( 'NONE',  ( 1.000000000000000000, 0.000000000000000000, 0.000000000000000000 ) ) ;
#195 = ADVANCED_FACE ( 'NONE', ( #81 ), #72, .F. ) ;
#196 = DIRECTION ( 'NONE',  ( 1.000000000000000000, 0.000000000000000000, 0.000000000000000000 ) ) ;
#197 = VERTEX_POINT ( 'NONE', #960 ) ;
#198 = ORIENTED_EDGE ( 'NONE', *, *, #903, .T. ) ;
#199 = CARTESIAN_POINT ( 'NONE',  ( 5.919459434779495766, 1.250000000000000000, 0.000000000000000000 ) ) ;
#200 = DIRECTION ( 'NONE',  ( 1.000000000000000000, 0.000000000000000000, 0.000000000000000000 ) ) ;
#201 = ORIENTED_EDGE ( 'NONE', *, *, #153, .T. ) ;
#202 = VERTEX_POINT ( 'NONE', #166 ) ;
#203 = DIRECTION ( 'NONE',  ( 1.000000000000000000, 0.000000000000000000, 0.000000000000000000 ) ) ;
#204 = CARTESIAN_POINT ( 'NONE',  ( -9.114697212470083798, -7.303290378902008939, 35.00000599999999906 ) ) ;
#205 = DIRECTION ( 'NONE',  ( 1.000000000000000000, 0.000000000000000000, 0.000000000000000000 ) ) ;
#206 = EDGE_CURVE ( 'NONE', #191, #806, #710, .T. ) ;
#207 = VERTEX_POINT ( 'NONE', #395 ) ;
#208 = CIRCLE ( 'NONE', #110, 12.50000000000000000 ) ;
#209 = CARTESIAN_POINT ( 'NONE',  ( -5.919459434779496654, -1.249999999999996003, 30.00000000000000000 ) ) ;
#210 = DIRECTION ( 'NONE',  ( 0.000000000000000000, 0.000000000000000000, 1.000000000000000000 ) ) ;
#211 = CARTESIAN_POINT ( 'NONE',  ( 0.000000000000000000, 0.000000000000000000, 30.00000000000000000 ) ) ;
#212 = ORIENTED_EDGE ( 'NONE', *, *, #7, .F. ) ;
#213 = DIRECTION ( 'NONE',  ( 0.000000000000000000, 0.000000000000000000, 1.000000000000000000 ) ) ;
#214 = CARTESIAN_POINT ( 'NONE',  ( -2.270522004662404392, 11.84579267319555562, 35.00001200000000523 ) ) ;
#215 = LINE ( 'NONE', #379, #784 ) ;
#216 = ORIENTED_EDGE ( 'NONE', *, *, #543, .T. ) ;
#217 = DIRECTION ( 'NONE',  ( 1.000000000000000000, 0.000000000000000000, 0.000000000000000000 ) ) ;
#218 = AXIS2_PLACEMENT_3D ( 'NONE', #69, #621, #864 ) ;
#219 = DIRECTION ( 'NONE',  ( 0.000000000000000000, 0.000000000000000000, 1.000000000000000000 ) ) ;
#220 = DIRECTION ( 'NONE',  ( -0.000000000000000000, -0.000000000000000000, -1.000000000000000000 ) ) ;
#221 = EDGE_LOOP ( 'NONE', ( #624, #340, #972, #504 ) ) ;
#222 = CYLINDRICAL_SURFACE ( 'NONE', #530, 12.50000000000000000 ) ;
#223 = VECTOR ( 'NONE', #4, 1000.000000000000000 ) ;
#224 = VECTOR ( 'NONE', #904, 1000.000000000000000 ) ;
#225 = ADVANCED_FACE ( 'NONE', ( #314 ), #15, .F. ) ;
#226 = CARTESIAN_POINT ( 'NONE',  ( 8.000000000000000000, 9.797174393178825657E-16, 0.000000000000000000 ) ) ;
#227 = CYLINDRICAL_SURFACE ( 'NONE', #9, 4.000000000000000000 ) ;
#228 = ORIENTED_EDGE ( 'NONE', *, *, #848, .F. ) ;
#229 = DIRECTION ( 'NONE',  ( -1.000000000000000000, 0.000000000000000000, 0.000000000000000000 ) ) ;
#230 = CARTESIAN_POINT ( 'NONE',  ( 7.901740314639552842, 1.249999999999999778, 1.500000000000001332 ) ) ;
#231 = EDGE_LOOP ( 'NONE', ( #126, #744, #508, #730 ) ) ;
#232 = DIRECTION ( 'NONE',  ( -0.000000000000000000, -0.000000000000000000, 1.000000000000000000 ) ) ;
#233 = CIRCLE ( 'NONE', #268, 8.000000000000000000 ) ;
#234 = LINE ( 'NONE', #865, #223 ) ;
#235 = ORIENTED_EDGE ( 'NONE', *, *, #329, .T. ) ;
#236 = CARTESIAN_POINT ( 'NONE',  ( -1.216767862442711401, -11.09724168665809607, 35.00001200000000523 ) ) ;
#237 = AXIS2_PLACEMENT_3D ( 'NONE', #569, #343, #35 ) ;
#238 = CARTESIAN_POINT ( 'NONE',  ( -8.922195673448280573, 8.357682208950880209, 35.00001199999999812 ) ) ;
#239 = ORIENTED_EDGE ( 'NONE', *, *, #7, .T. ) ;
#240 = CARTESIAN_POINT ( 'NONE',  ( 0.000000000000000000, 0.000000000000000000, 0.000000000000000000 ) ) ;
#241 = EDGE_CURVE ( 'NONE', #734, #580, #703, .T. ) ;
#242 = FACE_OUTER_BOUND ( 'NONE', #414, .T. ) ;
#243 = PRODUCT_DEFINITION_SHAPE ( 'NONE', 'NONE',  #367 ) ;
#244 = EDGE_LOOP ( 'NONE', ( #811, #57, #181, #675 ) ) ;
#245 = DIRECTION ( 'NONE',  ( 0.000000000000000000, 0.000000000000000000, 1.000000000000000000 ) ) ;
#246 = DIRECTION ( 'NONE',  ( 1.000000000000000000, 0.000000000000000000, -0.000000000000000000 ) ) ;
#247 = ADVANCED_FACE ( 'NONE', ( #10 ), #322, .F. ) ;
#248 = CARTESIAN_POINT ( 'NONE',  ( -9.242021668851117866, 5.990322690824918084, 35.00001199999999812 ) ) ;
#249 = ORIENTED_EDGE ( 'NONE', *, *, #24, .T. ) ;
#250 = CARTESIAN_POINT ( 'NONE',  ( 12.01209591872141580, 3.458258469148369763, 17.50000599999999906 ) ) ;
#251 = PRODUCT_DEFINITION_CONTEXT ( 'detailed design', #709, 'design' ) ;
#252 = AXIS2_PLACEMENT_3D ( 'NONE', #704, #311, #1030 ) ;
#253 = VECTOR ( 'NONE', #178, 1000.000000000000000 ) ;
#254 = CARTESIAN_POINT ( 'NONE',  ( -9.114697212470083798, -7.303290378902008939, 35.00000599999999906 ) ) ;
#255 = AXIS2_PLACEMENT_3D ( 'NONE', #696, #759, #432 ) ;
#256 = ORIENTED_EDGE ( 'NONE', *, *, #116, .T. ) ;
#257 = DIRECTION ( 'NONE',  ( 0.000000000000000000, 0.000000000000000000, 1.000000000000000000 ) ) ;
#258 = LINE ( 'NONE', #406, #706 ) ;
#259 = CARTESIAN_POINT ( 'NONE',  ( -8.000000000000000000, 1.249999999999999778, 1.500000000000000000 ) ) ;
#260 = VERTEX_POINT ( 'NONE', #943 ) ;
#261 = VERTEX_POINT ( 'NONE', #317 ) ;
#262 = DIRECTION ( 'NONE',  ( 1.000000000000000000, 0.000000000000000000, -0.000000000000000000 ) ) ;
#263 = EDGE_CURVE ( 'NONE', #787, #454, #878, .T. ) ;
#264 = ADVANCED_FACE ( 'NONE', ( #242 ), #785, .F. ) ;
#265 = DIRECTION ( 'NONE',  ( 0.000000000000000000, 0.000000000000000000, 1.000000000000000000 ) ) ;
#266 = VECTOR ( 'NONE', #281, 1000.000000000000000 ) ;
#267 = ORIENTED_EDGE ( 'NONE', *, *, #855, .T. ) ;
#268 = AXIS2_PLACEMENT_3D ( 'NONE', #461, #213, #780 ) ;
#269 = ORIENTED_EDGE ( 'NONE', *, *, #188, .F. ) ;
#270 = DIRECTION ( 'NONE',  ( 0.000000000000000000, 0.000000000000000000, 1.000000000000000000 ) ) ;
#271 = DIRECTION ( 'NONE',  ( 1.000000000000000000, 0.000000000000000000, 0.000000000000000000 ) ) ;
#272 = VECTOR ( 'NONE', #682, 1000.000000000000000 ) ;
#273 = VERTEX_POINT ( 'NONE', #326 ) ;
#274 = SHAPE_DEFINITION_REPRESENTATION ( #243, #626 ) ;
#275 = AXIS2_PLACEMENT_3D ( 'NONE', #574, #183, #898 ) ;
#276 = DIRECTION ( 'NONE',  ( 0.000000000000000000, 0.000000000000000000, -1.000000000000000000 ) ) ;
#277 = EDGE_CURVE ( 'NONE', #544, #650, #546, .T. ) ;
#278 = FACE_OUTER_BOUND ( 'NONE', #995, .T. ) ;
#279 = ORIENTED_EDGE ( 'NONE', *, *, #795, .F. ) ;
#280 = ORIENTED_EDGE ( 'NONE', *, *, #669, .T. ) ;
#281 = DIRECTION ( 'NONE',  ( -0.000000000000000000, -0.000000000000000000, 1.000000000000000000 ) ) ;
#282 = DIRECTION ( 'NONE',  ( 0.000000000000000000, 0.000000000000000000, 1.000000000000000000 ) ) ;
#283 = EDGE_CURVE ( 'NONE', #866, #859, #686, .T. ) ;
#284 = CARTESIAN_POINT ( 'NONE',  ( 0.000000000000000000, 0.000000000000000000, 30.00000000000000000 ) ) ;
#285 = CIRCLE ( 'NONE', #1004, 12.50000000000000000 ) ;
#286 = ORIENTED_EDGE ( 'NONE', *, *, #277, .T. ) ;
#287 = CARTESIAN_POINT ( 'NONE',  ( 9.000987646495879346, -8.673650983733930175, 17.50000599999999906 ) ) ;
#288 = CARTESIAN_POINT ( 'NONE',  ( -12.01209591872141225, -3.458258469148367098, 30.00000000000000000 ) ) ;
#289 = CARTESIAN_POINT ( 'NONE',  ( 0.000000000000000000, 0.000000000000000000, 34.99999999999999289 ) ) ;
#290 = VERTEX_POINT ( 'NONE', #31 ) ;
#291 = CIRCLE ( 'NONE', #275, 4.000000000000000000 ) ;
#292 = CARTESIAN_POINT ( 'NONE',  ( 1.832044082443728739, -11.54367397939168072, 35.00001199999999102 ) ) ;
#293 = DIRECTION ( 'NONE',  ( 0.000000000000000000, 0.000000000000000000, 1.000000000000000000 ) ) ;
#294 = CARTESIAN_POINT ( 'NONE',  ( 13.11469721247008735, 7.303290378902012492, 0.000000000000000000 ) ) ;
#295 = VERTEX_POINT ( 'NONE', #488 ) ;
#296 = CARTESIAN_POINT ( 'NONE',  ( 0.8725673347485902731, -11.12964109788722666, 35.00001200000000523 ) ) ;
#297 = EDGE_CURVE ( 'NONE', #592, #565, #45, .T. ) ;
#298 = EDGE_CURVE ( 'NONE', #694, #565, #673, .T. ) ;
#299 = CARTESIAN_POINT ( 'NONE',  ( -5.919459434779496654, 1.249999999999995781, 30.00000000000000000 ) ) ;
#300 = CARTESIAN_POINT ( 'NONE',  ( -8.000000000000000000, 1.249999999999999778, 1.500000000000000000 ) ) ;
#301 = ORIENTED_EDGE ( 'NONE', *, *, #351, .T. ) ;
#302 = CARTESIAN_POINT ( 'NONE',  ( -8.882183605578662267, 7.706015759489057260, 0.000000000000000000 ) ) ;
#303 = EDGE_CURVE ( 'NONE', #556, #570, #412, .T. ) ;
#304 = FACE_OUTER_BOUND ( 'NONE', #935, .T. ) ;
#305 = CARTESIAN_POINT ( 'NONE',  ( 12.01209591872141402, 3.458258469148365766, 30.00000000000000000 ) ) ;
#306 = ORIENTED_EDGE ( 'NONE', *, *, #558, .T. ) ;
#307 = CARTESIAN_POINT ( 'NONE',  ( 8.848841230751261833, -7.635321738059149155, 35.00001200000000523 ) ) ;
#308 = CIRCLE ( 'NONE', #622, 4.000000000000000000 ) ;
#309 = VECTOR ( 'NONE', #383, 1000.000000000000000 ) ;
#310 = CIRCLE ( 'NONE', #786, 12.50000000000000000 ) ;
#311 = DIRECTION ( 'NONE',  ( 0.000000000000000000, 1.000000000000000000, -1.445602896647339163E-16 ) ) ;
#312 = ORIENTED_EDGE ( 'NONE', *, *, #176, .F. ) ;
#313 = CARTESIAN_POINT ( 'NONE',  ( 10.91274542352274679, -4.185481481243129132, 35.00001199999999812 ) ) ;
#314 = FACE_OUTER_BOUND ( 'NONE', #438, .T. ) ;
#315 = ORIENTED_EDGE ( 'NONE', *, *, #171, .T. ) ;
#316 = CARTESIAN_POINT ( 'NONE',  ( 9.874377546849395060, 4.900540529150277713, 35.00001200000000523 ) ) ;
#317 = CARTESIAN_POINT ( 'NONE',  ( 6.049999999999998934, 7.409113134841485535E-16, 0.000000000000000000 ) ) ;
#318 = ORIENTED_EDGE ( 'NONE', *, *, #1013, .T. ) ;
#319 = EDGE_CURVE ( 'NONE', #544, #884, #27, .T. ) ;
#320 = CARTESIAN_POINT ( 'NONE',  ( 9.265336282131503509, 8.390681949580601540, 17.50000599999999906 ) ) ;
#321 = AXIS2_PLACEMENT_3D ( 'NONE', #502, #748, #19 ) ;
#322 = PLANE ( 'NONE',  #252 ) ;
#323 = ORIENTED_EDGE ( 'NONE', *, *, #33, .F. ) ;
#324 = CYLINDRICAL_SURFACE ( 'NONE', #71, 12.50000000000000000 ) ;
#325 = DIRECTION ( 'NONE',  ( 1.000000000000000000, 0.000000000000000000, 0.000000000000000000 ) ) ;
#326 = CARTESIAN_POINT ( 'NONE',  ( 9.265341556669387302, 8.390943364715941044, 35.00000995318779218 ) ) ;
#327 = ORIENTED_EDGE ( 'NONE', *, *, #369, .T. ) ;
#328 = CARTESIAN_POINT ( 'NONE',  ( 9.081096646282100338, 7.357556835743848112, 35.00001199999999812 ) ) ;
#329 = EDGE_CURVE ( 'NONE', #787, #261, #192, .T. ) ;
#330 = LINE ( 'NONE', #657, #620 ) ;
#331 = VERTEX_POINT ( 'NONE', #661 ) ;
#332 = CARTESIAN_POINT ( 'NONE',  ( 9.366003095774077636, 5.813266622266255901, 35.00001200000000523 ) ) ;
#333 = SURFACE_STYLE_FILL_AREA ( #808 ) ;
#334 = CLOSED_SHELL ( 'NONE', ( #195, #872, #465, #423, #1008, #119, #1022, #339, #850, #42, #482, #225, #357, #429, #689, #264, #571, #582, #247, #85, #648, #771, #959, #374, #37, #63, #827, #630, #773 ) ) ;
#335 = AXIS2_PLACEMENT_3D ( 'NONE', #179, #25, #578 ) ;
#336 = DIRECTION ( 'NONE',  ( 1.000000000000000000, -0.000000000000000000, -0.000000000000000000 ) ) ;
#337 = AXIS2_PLACEMENT_3D ( 'NONE', #361, #443, #194 ) ;
#338 = EDGE_LOOP ( 'NONE', ( #212, #318, #700, #664 ) ) ;
#339 = ADVANCED_FACE ( 'NONE', ( #667 ), #743, .T. ) ;
#340 = ORIENTED_EDGE ( 'NONE', *, *, #742, .T. ) ;
#341 = DIRECTION ( 'NONE',  ( 1.000000000000000000, 0.000000000000000000, 0.000000000000000000 ) ) ;
#342 = EDGE_CURVE ( 'NONE', #531, #186, #330, .T. ) ;
#343 = DIRECTION ( 'NONE',  ( 0.000000000000000000, 0.000000000000000000, 1.000000000000000000 ) ) ;
#344 = ORIENTED_EDGE ( 'NONE', *, *, #297, .F. ) ;
#345 = ORIENTED_EDGE ( 'NONE', *, *, #928, .F. ) ;
#346 = DIRECTION ( 'NONE',  ( 0.000000000000000000, -1.000000000000000000, -1.445602896647339163E-16 ) ) ;
#347 = CARTESIAN_POINT ( 'NONE',  ( -12.01297252574443419, -3.458007201467705904, 35.00001199999999812 ) ) ;
#348 = ORIENTED_EDGE ( 'NONE', *, *, #834, .F. ) ;
#349 = ORIENTED_EDGE ( 'NONE', *, *, #615, .T. ) ;
#350 = CARTESIAN_POINT ( 'NONE',  ( 0.000000000000000000, 0.000000000000000000, 1.500000000000001332 ) ) ;
#351 = EDGE_CURVE ( 'NONE', #202, #859, #94, .T. ) ;
#352 = CARTESIAN_POINT ( 'NONE',  ( 0.000000000000000000, 0.000000000000000000, 34.99999999999999289 ) ) ;
#353 = ORIENTED_EDGE ( 'NONE', *, *, #740, .F. ) ;
#354 = AXIS2_PLACEMENT_3D ( 'NONE', #677, #282, #1014 ) ;
#355 = VERTEX_POINT ( 'NONE', #254 ) ;
#356 = LINE ( 'NONE', #209, #1023 ) ;
#357 = ADVANCED_FACE ( 'NONE', ( #120 ), #888, .T. ) ;
#358 = PLANE ( 'NONE',  #354 ) ;
#359 = CARTESIAN_POINT ( 'NONE',  ( 0.000000000000000000, 0.000000000000000000, 34.99999999999999289 ) ) ;
#360 = ORIENTED_EDGE ( 'NONE', *, *, #608, .T. ) ;
#361 = CARTESIAN_POINT ( 'NONE',  ( 0.000000000000000000, 0.000000000000000000, 34.99999999999999289 ) ) ;
#362 = CARTESIAN_POINT ( 'NONE',  ( 2.636255751864408303, 11.76970301182437595, 35.00001199999999812 ) ) ;
#363 = CYLINDRICAL_SURFACE ( 'NONE', #486, 12.50000000000000000 ) ;
#364 = ORIENTED_EDGE ( 'NONE', *, *, #963, .F. ) ;
#365 = CARTESIAN_POINT ( 'NONE',  ( 2.634829858223829202, -12.22033832698468991, 35.00001199999999812 ) ) ;
#366 = FACE_OUTER_BOUND ( 'NONE', #835, .T. ) ;
#367 = PRODUCT_DEFINITION ( 'UNKNOWN', '', #447, #251 ) ;
#368 = DIRECTION ( 'NONE',  ( 0.000000000000000000, 1.445602896647339163E-16, 1.000000000000000000 ) ) ;
#369 = EDGE_CURVE ( 'NONE', #419, #866, #291, .T. ) ;
#370 = ORIENTED_EDGE ( 'NONE', *, *, #614, .T. ) ;
#371 = CARTESIAN_POINT ( 'NONE',  ( 9.717753722358803969, -5.204170066519675508, 35.00001199999999812 ) ) ;
#372 = VECTOR ( 'NONE', #510, 1000.000000000000000 ) ;
#373 = CARTESIAN_POINT ( 'NONE',  ( 0.000000000000000000, 0.000000000000000000, 30.00000000000000000 ) ) ;
#374 = ADVANCED_FACE ( 'NONE', ( #278 ), #496, .F. ) ;
#375 = FACE_OUTER_BOUND ( 'NONE', #89, .T. ) ;
#376 = ORIENTED_EDGE ( 'NONE', *, *, #403, .T. ) ;
#377 = CARTESIAN_POINT ( 'NONE',  ( 0.000000000000000000, 0.000000000000000000, 34.99999999999999289 ) ) ;
#378 = CYLINDRICAL_SURFACE ( 'NONE', #255, 6.049999999999998934 ) ;
#379 = CARTESIAN_POINT ( 'NONE',  ( 5.919459434779496654, -1.249999999999996003, 30.00000000000000000 ) ) ;
#380 = ORIENTED_EDGE ( 'NONE', *, *, #999, .T. ) ;
#381 = CARTESIAN_POINT ( 'NONE',  ( 0.000000000000000000, 0.000000000000000000, 30.00000000000000000 ) ) ;
#382 = AXIS2_PLACEMENT_3D ( 'NONE', #540, #385, #65 ) ;
#383 = DIRECTION ( 'NONE',  ( -0.000000000000000000, -0.000000000000000000, 1.000000000000000000 ) ) ;
#384 = EDGE_LOOP ( 'NONE', ( #874, #801, #397, #668 ) ) ;
#385 = DIRECTION ( 'NONE',  ( -0.000000000000000000, -0.000000000000000000, 1.000000000000000000 ) ) ;
#386 = CIRCLE ( 'NONE', #722, 6.049999999999999822 ) ;
#387 = CIRCLE ( 'NONE', #520, 6.049999999999998934 ) ;
#388 = EDGE_CURVE ( 'NONE', #494, #448, #386, .T. ) ;
#389 = CARTESIAN_POINT ( 'NONE',  ( -11.47241610138546974, 3.936806662664751322, 35.00001200000000523 ) ) ;
#390 = ORIENTED_EDGE ( 'NONE', *, *, #877, .F. ) ;
#391 = CARTESIAN_POINT ( 'NONE',  ( 0.000000000000000000, 0.000000000000000000, 0.000000000000000000 ) ) ;
#392 = CARTESIAN_POINT ( 'NONE',  ( -13.11469721247008557, -7.303290378902012492, 0.000000000000000000 ) ) ;
#393 = VERTEX_POINT ( 'NONE', #814 ) ;
#394 = CARTESIAN_POINT ( 'NONE',  ( -7.901740314639552842, 1.249999999999999778, 1.500000000000001332 ) ) ;
#395 = CARTESIAN_POINT ( 'NONE',  ( 2.633875582346595579, -12.21935756972183995, 30.00000000000000000 ) ) ;
#396 = EDGE_CURVE ( 'NONE', #355, #774, #54, .T. ) ;
#397 = ORIENTED_EDGE ( 'NONE', *, *, #188, .T. ) ;
#398 = CARTESIAN_POINT ( 'NONE',  ( -12.50000000000000000, 0.000000000000000000, 34.99999999999999289 ) ) ;
#399 = DIRECTION ( 'NONE',  ( -0.000000000000000000, -0.000000000000000000, -1.000000000000000000 ) ) ;
#400 = VECTOR ( 'NONE', #519, 1000.000000000000000 ) ;
#401 = VECTOR ( 'NONE', #729, 1000.000000000000000 ) ;
#402 = CARTESIAN_POINT ( 'NONE',  ( -9.000968108871248319, 8.673863098023145923, 35.00000950864016858 ) ) ;
#403 = EDGE_CURVE ( 'NONE', #273, #806, #838, .T. ) ;
#404 = ORIENTED_EDGE ( 'NONE', *, *, #666, .T. ) ;
#405 = CARTESIAN_POINT ( 'NONE',  ( 11.03735684172082721, 3.845323438639926650, 35.00001199999999812 ) ) ;
#406 = CARTESIAN_POINT ( 'NONE',  ( -8.000000000000000000, 0.000000000000000000, 30.00000000000000000 ) ) ;
#407 = CARTESIAN_POINT ( 'NONE',  ( 0.000000000000000000, 0.000000000000000000, 0.000000000000000000 ) ) ;
#408 = ORIENTED_EDGE ( 'NONE', *, *, #176, .T. ) ;
#409 = CYLINDRICAL_SURFACE ( 'NONE', #611, 12.50000000000000000 ) ;
#410 = DIRECTION ( 'NONE',  ( -0.000000000000000000, -0.000000000000000000, -1.000000000000000000 ) ) ;
#411 = CIRCLE ( 'NONE', #596, 8.000000000000000000 ) ;
#412 = LINE ( 'NONE', #259, #224 ) ;
#413 = ORIENTED_EDGE ( 'NONE', *, *, #163, .T. ) ;
#414 = EDGE_LOOP ( 'NONE', ( #572, #29, #121, #364 ) ) ;
#415 = CARTESIAN_POINT ( 'NONE',  ( -0.2325136068914213094, -15.00930613839106620, 0.000000000000000000 ) ) ;
#416 = CIRCLE ( 'NONE', #76, 12.50000000000000000 ) ;
#417 = DIRECTION ( 'NONE',  ( 1.000000000000000000, 0.000000000000000000, 0.000000000000000000 ) ) ;
#418 = ORIENTED_EDGE ( 'NONE', *, *, #329, .F. ) ;
#419 = VERTEX_POINT ( 'NONE', #825 ) ;
#420 = DIRECTION ( 'NONE',  ( 0.000000000000000000, 0.000000000000000000, 1.000000000000000000 ) ) ;
#421 = CARTESIAN_POINT ( 'NONE',  ( -11.20449905011813740, -3.762591673539360304, 35.00001200000000523 ) ) ;
#422 = ORIENTED_EDGE ( 'NONE', *, *, #33, .T. ) ;
#423 = ADVANCED_FACE ( 'NONE', ( #426 ), #681, .T. ) ;
#424 = ORIENTED_EDGE ( 'NONE', *, *, #999, .F. ) ;
#425 = CARTESIAN_POINT ( 'NONE',  ( -7.901740314639554619, -1.250000000000000000, 1.500000000000000000 ) ) ;
#426 = FACE_OUTER_BOUND ( 'NONE', #841, .T. ) ;
#427 = VERTEX_POINT ( 'NONE', #528 ) ;
#428 = PRODUCT_CONTEXT ( 'NONE', #652, 'mechanical' ) ;
#429 = ADVANCED_FACE ( 'NONE', ( #148 ), #46, .F. ) ;
#430 = VERTEX_POINT ( 'NONE', #849 ) ;
#431 = DIRECTION ( 'NONE',  ( 1.000000000000000000, 0.000000000000000000, 0.000000000000000000 ) ) ;
#432 = DIRECTION ( 'NONE',  ( -1.000000000000000000, 0.000000000000000000, 0.000000000000000000 ) ) ;
#433 = AXIS2_PLACEMENT_3D ( 'NONE', #907, #980, #341 ) ;
#434 = AXIS2_PLACEMENT_3D ( 'NONE', #717, #869, #713 ) ;
#435 = B_SPLINE_CURVE_WITH_KNOTS ( 'NONE', 3,
 ( #439, #701, #313, #613, #371, #936, #456, #307, #854, #527 ),
 .UNSPECIFIED., .F., .F.,
 ( 4, 2, 2, 2, 4 ),
 ( 0.000000000000000000, 0.2500000000000000000, 0.5000000000000000000, 0.7500000000000000000, 1.000000000000000000 ),
 .UNSPECIFIED. ) ;
#436 = CARTESIAN_POINT ( 'NONE',  ( -8.000000000000000000, -1.250000000000000000, 1.500000000000000000 ) ) ;
#437 = CIRCLE ( 'NONE', #583, 6.049999999999998934 ) ;
#438 = EDGE_LOOP ( 'NONE', ( #633, #235, #315, #117, #344, #905 ) ) ;
#439 = CARTESIAN_POINT ( 'NONE',  ( 11.89979558927050185, -3.828513817703733224, 35.00001172820302742 ) ) ;
#440 = DIRECTION ( 'NONE',  ( -0.000000000000000000, -0.000000000000000000, -1.000000000000000000 ) ) ;
#441 = DIRECTION ( 'NONE',  ( 1.000000000000000000, 0.000000000000000000, 0.000000000000000000 ) ) ;
#442 = ORIENTED_EDGE ( 'NONE', *, *, #666, .F. ) ;
#443 = DIRECTION ( 'NONE',  ( 0.000000000000000000, 0.000000000000000000, 1.000000000000000000 ) ) ;
#444 = CARTESIAN_POINT ( 'NONE',  ( -9.114697212470083798, -7.670459070079996167, 35.00001199999999812 ) ) ;
#445 = EDGE_CURVE ( 'NONE', #570, #186, #776, .T. ) ;
#446 = DIRECTION ( 'NONE',  ( -0.000000000000000000, -0.000000000000000000, 1.000000000000000000 ) ) ;
#447 = PRODUCT_DEFINITION_FORMATION_WITH_SPECIFIED_SOURCE ( 'ANY', '', #971, .NOT_KNOWN. ) ;
#448 = VERTEX_POINT ( 'NONE', #922 ) ;
#449 = DIRECTION ( 'NONE',  ( 1.000000000000000000, 0.000000000000000000, 0.000000000000000000 ) ) ;
#450 = EDGE_CURVE ( 'NONE', #966, #930, #208, .T. ) ;
#451 = CARTESIAN_POINT ( 'NONE',  ( 6.050000000000000711, 7.409113134841487507E-16, 34.99999999999999289 ) ) ;
#452 = DIRECTION ( 'NONE',  ( 0.000000000000000000, 0.000000000000000000, 1.000000000000000000 ) ) ;
#453 = VECTOR ( 'NONE', #697, 1000.000000000000000 ) ;
#454 = VERTEX_POINT ( 'NONE', #692 ) ;
#455 = CIRCLE ( 'NONE', #770, 12.50000000000000000 ) ;
#456 = CARTESIAN_POINT ( 'NONE',  ( 9.002249974781941333, -6.601949014288910789, 35.00001199999999812 ) ) ;
#457 = DIRECTION ( 'NONE',  ( -1.000000000000000000, 0.000000000000000000, 0.000000000000000000 ) ) ;
#458 = DIRECTION ( 'NONE',  ( 1.000000000000000000, 0.000000000000000000, 0.000000000000000000 ) ) ;
#459 = EDGE_CURVE ( 'NONE', #895, #430, #455, .T. ) ;
#460 = ORIENTED_EDGE ( 'NONE', *, *, #721, .F. ) ;
#461 = CARTESIAN_POINT ( 'NONE',  ( 0.000000000000000000, 0.000000000000000000, 0.000000000000000000 ) ) ;
#462 = CARTESIAN_POINT ( 'NONE',  ( -8.882183605578662267, 7.706015759489056371, 35.00000599999999906 ) ) ;
#463 = ORIENTED_EDGE ( 'NONE', *, *, #101, .T. ) ;
#464 = DIRECTION ( 'NONE',  ( 0.000000000000000000, 0.000000000000000000, 1.000000000000000000 ) ) ;
#465 = ADVANCED_FACE ( 'NONE', ( #831 ), #378, .F. ) ;
#466 = AXIS2_PLACEMENT_3D ( 'NONE', #871, #17, #731 ) ;
#467 = CARTESIAN_POINT ( 'NONE',  ( 0.000000000000000000, 0.000000000000000000, 1.500000000000001332 ) ) ;
#468 = ORIENTED_EDGE ( 'NONE', *, *, #877, .T. ) ;
#469 = DIRECTION ( 'NONE',  ( -1.000000000000000000, 0.000000000000000000, 0.000000000000000000 ) ) ;
#470 = VECTOR ( 'NONE', #923, 1000.000000000000000 ) ;
#471 = VECTOR ( 'NONE', #410, 1000.000000000000000 ) ;
#472 = AXIS2_PLACEMENT_3D ( 'NONE', #415, #861, #165 ) ;
#473 = CARTESIAN_POINT ( 'NONE',  ( -8.882183605578662267, 8.031858641830257994, 35.00001199999999812 ) ) ;
#474 = ORIENTED_EDGE ( 'NONE', *, *, #12, .T. ) ;
#475 = LINE ( 'NONE', #746, #921 ) ;
#476 = EDGE_CURVE ( 'NONE', #105, #355, #847, .T. ) ;
#477 = DIRECTION ( 'NONE',  ( 1.000000000000000000, 0.000000000000000000, 0.000000000000000000 ) ) ;
#478 = EDGE_CURVE ( 'NONE', #930, #774, #416, .T. ) ;
#479 = ORIENTED_EDGE ( 'NONE', *, *, #608, .F. ) ;
#480 = CARTESIAN_POINT ( 'NONE',  ( -3.012001898617956641, -12.13277266280711153, 35.00001199999999812 ) ) ;
#481 = VECTOR ( 'NONE', #566, 1000.000000000000000 ) ;
#482 = ADVANCED_FACE ( 'NONE', ( #366 ), #358, .F. ) ;
#483 = CARTESIAN_POINT ( 'NONE',  ( 0.000000000000000000, 0.000000000000000000, 0.000000000000000000 ) ) ;
#484 = ORIENTED_EDGE ( 'NONE', *, *, #342, .T. ) ;
#485 = DIRECTION ( 'NONE',  ( -0.000000000000000000, -0.000000000000000000, -1.000000000000000000 ) ) ;
#486 = AXIS2_PLACEMENT_3D ( 'NONE', #289, #220, #1007 ) ;
#487 = AXIS2_PLACEMENT_3D ( 'NONE', #649, #883, #196 ) ;
#488 = CARTESIAN_POINT ( 'NONE',  ( -2.634829897083411421, 12.22033836693631237, 35.00001199999999812 ) ) ;
#489 = ORIENTED_EDGE ( 'NONE', *, *, #848, .T. ) ;
#490 = DIRECTION ( 'NONE',  ( -0.000000000000000000, -0.000000000000000000, -1.000000000000000000 ) ) ;
#491 = CARTESIAN_POINT ( 'NONE',  ( -8.000000000000000000, -8.000000000000000000, 1.500000000000000000 ) ) ;
#492 = CARTESIAN_POINT ( 'NONE',  ( 0.000000000000000000, 0.000000000000000000, 30.00000000000000000 ) ) ;
#493 = ORIENTED_EDGE ( 'NONE', *, *, #241, .F. ) ;
#494 = VERTEX_POINT ( 'NONE', #451 ) ;
#495 = VECTOR ( 'NONE', #232, 1000.000000000000000 ) ;
#496 = CYLINDRICAL_SURFACE ( 'NONE', #902, 4.000000000000000000 ) ;
#497 = ORIENTED_EDGE ( 'NONE', *, *, #241, .T. ) ;
#498 = ORIENTED_EDGE ( 'NONE', *, *, #800, .F. ) ;
#499 = CYLINDRICAL_SURFACE ( 'NONE', #698, 4.000000000000000000 ) ;
#500 = EDGE_CURVE ( 'NONE', #295, #806, #537, .T. ) ;
#501 = AXIS2_PLACEMENT_3D ( 'NONE', #55, #293, #604 ) ;
#502 = CARTESIAN_POINT ( 'NONE',  ( 0.000000000000000000, 0.000000000000000000, 34.99999999999999289 ) ) ;
#503 = ORIENTED_EDGE ( 'NONE', *, *, #882, .F. ) ;
#504 = ORIENTED_EDGE ( 'NONE', *, *, #702, .T. ) ;
#505 = FACE_OUTER_BOUND ( 'NONE', #16, .T. ) ;
#506 = CARTESIAN_POINT ( 'NONE',  ( -10.17958338096966386, -4.551834193943864904, 35.00001200000000523 ) ) ;
#507 = EDGE_CURVE ( 'NONE', #167, #556, #737, .T. ) ;
#508 = ORIENTED_EDGE ( 'NONE', *, *, #342, .F. ) ;
#509 = VERTEX_POINT ( 'NONE', #288 ) ;
#510 = DIRECTION ( 'NONE',  ( 0.000000000000000000, 0.000000000000000000, -1.000000000000000000 ) ) ;
#511 = EDGE_CURVE ( 'NONE', #585, #26, #939, .T. ) ;
#512 = DIRECTION ( 'NONE',  ( 1.000000000000000000, 0.000000000000000000, 0.000000000000000000 ) ) ;
#513 = AXIS2_PLACEMENT_3D ( 'NONE', #901, #913, #203 ) ;
#514 = VERTEX_POINT ( 'NONE', #1018 ) ;
#515 = CIRCLE ( 'NONE', #1005, 12.50000000000000000 ) ;
#516 = ORIENTED_EDGE ( 'NONE', *, *, #614, .F. ) ;
#517 = DIRECTION ( 'NONE',  ( -0.000000000000000000, -0.000000000000000000, 1.000000000000000000 ) ) ;
#518 = CARTESIAN_POINT ( 'NONE',  ( 1.216767831260014532, 11.09724167841694964, 35.00001199999999812 ) ) ;
#519 = DIRECTION ( 'NONE',  ( -0.000000000000000000, -0.000000000000000000, -1.000000000000000000 ) ) ;
#520 = AXIS2_PLACEMENT_3D ( 'NONE', #350, #671, #118 ) ;
#521 = ORIENTED_EDGE ( 'NONE', *, *, #523, .F. ) ;
#522 = FACE_OUTER_BOUND ( 'NONE', #911, .T. ) ;
#523 = EDGE_CURVE ( 'NONE', #900, #393, #953, .T. ) ;
#524 = CARTESIAN_POINT ( 'NONE',  ( 0.000000000000000000, 0.000000000000000000, 1.500000000000001332 ) ) ;
#525 = DIRECTION ( 'NONE',  ( -0.000000000000000000, -0.000000000000000000, -1.000000000000000000 ) ) ;
#526 = ORIENTED_EDGE ( 'NONE', *, *, #116, .F. ) ;
#527 = CARTESIAN_POINT ( 'NONE',  ( 9.000967814154817503, -8.673869226798091248, 35.00000951510304503 ) ) ;
#528 = CARTESIAN_POINT ( 'NONE',  ( -12.50000000000000000, 0.000000000000000000, 30.00000000000000000 ) ) ;
#529 = LINE ( 'NONE', #300, #552 ) ;
#530 = AXIS2_PLACEMENT_3D ( 'NONE', #846, #946, #229 ) ;
#531 = VERTEX_POINT ( 'NONE', #533 ) ;
#532 = LINE ( 'NONE', #302, #495 ) ;
#533 = CARTESIAN_POINT ( 'NONE',  ( -7.901740314639552842, 1.250000000000000000, 0.000000000000000000 ) ) ;
#534 = EDGE_CURVE ( 'NONE', #295, #129, #310, .T. ) ;
#535 = DIRECTION ( 'NONE',  ( 1.000000000000000000, -0.000000000000000000, -0.000000000000000000 ) ) ;
#536 = AXIS2_PLACEMENT_3D ( 'NONE', #815, #894, #978 ) ;
#537 = B_SPLINE_CURVE_WITH_KNOTS ( 'NONE', 3,
 ( #927, #214, #1006, #1000, #594, #590, #518, #839, #362, #132 ),
 .UNSPECIFIED., .F., .F.,
 ( 4, 2, 2, 2, 4 ),
 ( 0.000000000000000000, 0.2500000000000000000, 0.5000000000000000000, 0.7500000000000000000, 1.000000000000000000 ),
 .UNSPECIFIED. ) ;
#538 = ORIENTED_EDGE ( 'NONE', *, *, #319, .T. ) ;
#539 = MECHANICAL_DESIGN_GEOMETRIC_PRESENTATION_REPRESENTATION (  '', ( #1029 ), #131 ) ;
#540 = CARTESIAN_POINT ( 'NONE',  ( 12.88218360557866760, -7.706015759489057260, 0.000000000000000000 ) ) ;
#541 = DIRECTION ( 'NONE',  ( 1.000000000000000000, 0.000000000000000000, 0.000000000000000000 ) ) ;
#542 = CARTESIAN_POINT ( 'NONE',  ( 7.901740314639554619, -1.249999999999996003, 30.00000000000000000 ) ) ;
#543 = EDGE_CURVE ( 'NONE', #448, #197, #732, .T. ) ;
#544 = VERTEX_POINT ( 'NONE', #736 ) ;
#545 = CARTESIAN_POINT ( 'NONE',  ( 12.01296561486209846, 3.458009181533978182, 35.00001199999999812 ) ) ;
#546 = LINE ( 'NONE', #157, #653 ) ;
#547 = ORIENTED_EDGE ( 'NONE', *, *, #534, .F. ) ;
#548 = CARTESIAN_POINT ( 'NONE',  ( -9.000987646495870464, 8.673650983733939057, 30.00000000000000000 ) ) ;
#549 = DIRECTION ( 'NONE',  ( -0.000000000000000000, -0.000000000000000000, 1.000000000000000000 ) ) ;
#550 = VERTEX_POINT ( 'NONE', #716 ) ;
#551 = FACE_OUTER_BOUND ( 'NONE', #949, .T. ) ;
#552 = VECTOR ( 'NONE', #535, 1000.000000000000000 ) ;
#553 = AXIS2_PLACEMENT_3D ( 'NONE', #492, #977, #174 ) ;
#554 = EDGE_CURVE ( 'NONE', #273, #585, #793, .T. ) ;
#555 = CARTESIAN_POINT ( 'NONE',  ( -8.000000000000000000, 1.249999999999999778, 1.500000000000000000 ) ) ;
#556 = VERTEX_POINT ( 'NONE', #394 ) ;
#557 = CARTESIAN_POINT ( 'NONE',  ( 11.51079340666212047, 3.601889163469547128, 35.00001200000000523 ) ) ;
#558 = EDGE_CURVE ( 'NONE', #186, #197, #437, .T. ) ;
#559 = PLANE ( 'NONE',  #147 ) ;
#560 = DIRECTION ( 'NONE',  ( 0.000000000000000000, -1.000000000000000000, -1.445602896647339163E-16 ) ) ;
#561 = ORIENTED_EDGE ( 'NONE', *, *, #12, .F. ) ;
#562 = CIRCLE ( 'NONE', #513, 12.50000000000000000 ) ;
#563 = CIRCLE ( 'NONE', #699, 12.50000000000000000 ) ;
#564 = CARTESIAN_POINT ( 'NONE',  ( 9.000987646495879346, -8.673650983733930175, 30.00000000000000000 ) ) ;
#565 = VERTEX_POINT ( 'NONE', #892 ) ;
#566 = DIRECTION ( 'NONE',  ( 0.000000000000000000, 0.000000000000000000, 1.000000000000000000 ) ) ;
#567 = FACE_OUTER_BOUND ( 'NONE', #20, .T. ) ;
#568 = AXIS2_PLACEMENT_3D ( 'NONE', #392, #549, #623 ) ;
#569 = CARTESIAN_POINT ( 'NONE',  ( 0.000000000000000000, 0.000000000000000000, 34.99999999999999289 ) ) ;
#570 = VERTEX_POINT ( 'NONE', #18 ) ;
#571 = ADVANCED_FACE ( 'NONE', ( #304 ), #881, .F. ) ;
#572 = ORIENTED_EDGE ( 'NONE', *, *, #298, .F. ) ;
#573 = CARTESIAN_POINT ( 'NONE',  ( 0.000000000000000000, 0.000000000000000000, 0.000000000000000000 ) ) ;
#574 = CARTESIAN_POINT ( 'NONE',  ( -12.88218360557866227, 7.706015759489057260, 30.00000000000000000 ) ) ;
#575 = ORIENTED_EDGE ( 'NONE', *, *, #926, .T. ) ;
#576 = ORIENTED_EDGE ( 'NONE', *, *, #142, .F. ) ;
#577 = LINE ( 'NONE', #39, #28 ) ;
#578 = DIRECTION ( 'NONE',  ( 1.000000000000000000, 0.000000000000000000, 0.000000000000000000 ) ) ;
#579 = ORIENTED_EDGE ( 'NONE', *, *, #24, .F. ) ;
#580 = VERTEX_POINT ( 'NONE', #182 ) ;
#581 = FACE_BOUND ( 'NONE', #155, .T. ) ;
#582 = ADVANCED_FACE ( 'NONE', ( #958 ), #559, .F. ) ;
#583 = AXIS2_PLACEMENT_3D ( 'NONE', #240, #8, #637 ) ;
#584 = DIRECTION ( 'NONE',  ( 0.000000000000000000, 0.000000000000000000, 1.000000000000000000 ) ) ;
#585 = VERTEX_POINT ( 'NONE', #616 ) ;
#586 = ORIENTED_EDGE ( 'NONE', *, *, #642, .T. ) ;
#587 = DIRECTION ( 'NONE',  ( 0.000000000000000000, 0.000000000000000000, 1.000000000000000000 ) ) ;
#588 = MANIFOLD_SOLID_BREP ( 'Cut-Extrude2', #334 ) ;
#589 = EDGE_CURVE ( 'NONE', #556, #531, #887, .T. ) ;
#590 = CARTESIAN_POINT ( 'NONE',  ( 0.6929285748202016482, 11.00168555074967358, 35.00001200000000523 ) ) ;
#591 = ORIENTED_EDGE ( 'NONE', *, *, #963, .T. ) ;
#592 = VERTEX_POINT ( 'NONE', #226 ) ;
#593 = FACE_BOUND ( 'NONE', #735, .T. ) ;
#594 = CARTESIAN_POINT ( 'NONE',  ( -0.3519428696697479153, 11.01788842732828222, 35.00001199999999812 ) ) ;
#595 = CARTESIAN_POINT ( 'NONE',  ( 0.000000000000000000, 0.000000000000000000, 30.00000000000000000 ) ) ;
#596 = AXIS2_PLACEMENT_3D ( 'NONE', #783, #139, #449 ) ;
#597 = ORIENTED_EDGE ( 'NONE', *, *, #957, .T. ) ;
#598 = CARTESIAN_POINT ( 'NONE',  ( -11.89921186447808843, 3.828675620141245517, 17.50000599999999906 ) ) ;
#599 = DIRECTION ( 'NONE',  ( -1.000000000000000000, 0.000000000000000000, 0.000000000000000000 ) ) ;
#600 = LINE ( 'NONE', #436, #470 ) ;
#601 = AXIS2_PLACEMENT_3D ( 'NONE', #49, #346, #1003 ) ;
#602 = ORIENTED_EDGE ( 'NONE', *, *, #388, .F. ) ;
#603 = DIRECTION ( 'NONE',  ( 1.000000000000000000, 0.000000000000000000, 0.000000000000000000 ) ) ;
#604 = DIRECTION ( 'NONE',  ( 1.000000000000000000, 0.000000000000000000, 0.000000000000000000 ) ) ;
#605 = LINE ( 'NONE', #610, #752 ) ;
#606 = ORIENTED_EDGE ( 'NONE', *, *, #543, .F. ) ;
#607 = DIRECTION ( 'NONE',  ( 1.000000000000000000, 0.000000000000000000, 0.000000000000000000 ) ) ;
#608 = EDGE_CURVE ( 'NONE', #260, #592, #804, .T. ) ;
#609 = CARTESIAN_POINT ( 'NONE',  ( 0.000000000000000000, 0.000000000000000000, 34.99999999999999289 ) ) ;
#610 = CARTESIAN_POINT ( 'NONE',  ( -7.901740314639554619, -1.249999999999996003, 30.00000000000000000 ) ) ;
#611 = AXIS2_PLACEMENT_3D ( 'NONE', #797, #490, #950 ) ;
#612 = ORIENTED_EDGE ( 'NONE', *, *, #303, .F. ) ;
#613 = CARTESIAN_POINT ( 'NONE',  ( 10.07473225073143297, -4.809282211609520630, 35.00001199999999102 ) ) ;
#614 = EDGE_CURVE ( 'NONE', #158, #184, #258, .T. ) ;
#615 = EDGE_CURVE ( 'NONE', #454, #592, #655, .T. ) ;
#616 = CARTESIAN_POINT ( 'NONE',  ( 9.265336282131499956, 8.390681949580596211, 30.00000000000000000 ) ) ;
#617 = DIRECTION ( 'NONE',  ( -1.000000000000000000, 0.000000000000000000, 0.000000000000000000 ) ) ;
#618 = AXIS2_PLACEMENT_3D ( 'NONE', #359, #1025, #617 ) ;
#619 = ORIENTED_EDGE ( 'NONE', *, *, #206, .T. ) ;
#620 = VECTOR ( 'NONE', #336, 1000.000000000000000 ) ;
#621 = DIRECTION ( 'NONE',  ( 0.000000000000000000, 0.000000000000000000, 1.000000000000000000 ) ) ;
#622 = AXIS2_PLACEMENT_3D ( 'NONE', #896, #587, #990 ) ;
#623 = DIRECTION ( 'NONE',  ( 1.000000000000000000, 0.000000000000000000, 0.000000000000000000 ) ) ;
#624 = ORIENTED_EDGE ( 'NONE', *, *, #459, .F. ) ;
#625 = DIRECTION ( 'NONE',  ( 0.000000000000000000, 0.000000000000000000, 1.000000000000000000 ) ) ;
#626 = ADVANCED_BREP_SHAPE_REPRESENTATION ( 'banana-plug-wrench-v0', ( #588, #631 ), #104 ) ;
#627 = DIRECTION ( 'NONE',  ( 0.000000000000000000, -0.000000000000000000, 1.000000000000000000 ) ) ;
#628 = ORIENTED_EDGE ( 'NONE', *, *, #558, .F. ) ;
#629 = LINE ( 'NONE', #634, #647 ) ;
#630 = ADVANCED_FACE ( 'NONE', ( #567 ), #812, .F. ) ;
#631 = AXIS2_PLACEMENT_3D ( 'NONE', #663, #816, #122 ) ;
#632 = DIRECTION ( 'NONE',  ( 1.000000000000000000, -0.000000000000000000, -0.000000000000000000 ) ) ;
#633 = ORIENTED_EDGE ( 'NONE', *, *, #263, .F. ) ;
#634 = CARTESIAN_POINT ( 'NONE',  ( -9.114697212470083798, -7.303290378902012492, 0.000000000000000000 ) ) ;
#635 = AXIS2_PLACEMENT_3D ( 'NONE', #284, #1019, #441 ) ;
#636 = AXIS2_PLACEMENT_3D ( 'NONE', #643, #584, #969 ) ;
#637 = DIRECTION ( 'NONE',  ( 1.000000000000000000, 0.000000000000000000, 0.000000000000000000 ) ) ;
#638 = CARTESIAN_POINT ( 'NONE',  ( 3.011108272225539562, 12.13190945288230438, 17.50000599999999906 ) ) ;
#639 = ORIENTED_EDGE ( 'NONE', *, *, #758, .F. ) ;
#640 = LINE ( 'NONE', #168, #481 ) ;
#641 = CARTESIAN_POINT ( 'NONE',  ( -8.000000000000000000, 1.249999999999999778, 1.500000000000000000 ) ) ;
#642 = EDGE_CURVE ( 'NONE', #494, #261, #475, .T. ) ;
#643 = CARTESIAN_POINT ( 'NONE',  ( -12.88218360557866227, 7.706015759489057260, 30.00000000000000000 ) ) ;
#644 = ORIENTED_EDGE ( 'NONE', *, *, #171, .F. ) ;
#645 = CARTESIAN_POINT ( 'NONE',  ( 9.123366338042206536, 7.888231595375062355, 35.00001200000000523 ) ) ;
#646 = PRESENTATION_STYLE_ASSIGNMENT (( #169 ) ) ;
#647 = VECTOR ( 'NONE', #956, 1000.000000000000000 ) ;
#648 = ADVANCED_FACE ( 'NONE', ( #505, #581 ), #819, .T. ) ;
#649 = CARTESIAN_POINT ( 'NONE',  ( 0.000000000000000000, 0.000000000000000000, 30.00000000000000000 ) ) ;
#650 = VERTEX_POINT ( 'NONE', #824 ) ;
#651 = CYLINDRICAL_SURFACE ( 'NONE', #466, 12.50000000000000000 ) ;
#652 = APPLICATION_CONTEXT ( 'automotive_design' ) ;
#653 = VECTOR ( 'NONE', #78, 1000.000000000000000 ) ;
#654 = DIRECTION ( 'NONE',  ( 0.000000000000000000, -0.000000000000000000, 1.000000000000000000 ) ) ;
#655 = CIRCLE ( 'NONE', #77, 8.000000000000000000 ) ;
#656 = AXIS2_PLACEMENT_3D ( 'NONE', #30, #757, #262 ) ;
#657 = CARTESIAN_POINT ( 'NONE',  ( -8.000000000000000000, 1.250000000000000000, 0.000000000000000000 ) ) ;
#658 = ORIENTED_EDGE ( 'NONE', *, *, #476, .F. ) ;
#659 = ORIENTED_EDGE ( 'NONE', *, *, #500, .F. ) ;
#660 = CARTESIAN_POINT ( 'NONE',  ( -12.01209591872141225, -3.458258469148367986, 17.50000599999999906 ) ) ;
#661 = CARTESIAN_POINT ( 'NONE',  ( 5.919459434779495766, 1.249999999999999778, 1.500000000000001332 ) ) ;
#662 = ORIENTED_EDGE ( 'NONE', *, *, #702, .F. ) ;
#663 = CARTESIAN_POINT ( 'NONE',  ( 0.000000000000000000, 0.000000000000000000, 0.000000000000000000 ) ) ;
#664 = ORIENTED_EDGE ( 'NONE', *, *, #777, .F. ) ;
#665 = LINE ( 'NONE', #842, #372 ) ;
#666 = EDGE_CURVE ( 'NONE', #105, #83, #788, .T. ) ;
#667 = FACE_OUTER_BOUND ( 'NONE', #221, .T. ) ;
#668 = ORIENTED_EDGE ( 'NONE', *, *, #926, .F. ) ;
#669 = EDGE_CURVE ( 'NONE', #930, #427, #577, .T. ) ;
#670 = ORIENTED_EDGE ( 'NONE', *, *, #82, .T. ) ;
#671 = DIRECTION ( 'NONE',  ( 0.000000000000000000, -0.000000000000000000, 1.000000000000000000 ) ) ;
#672 = AXIS2_PLACEMENT_3D ( 'NONE', #483, #162, #952 ) ;
#673 = LINE ( 'NONE', #733, #401 ) ;
#674 = ORIENTED_EDGE ( 'NONE', *, *, #277, .F. ) ;
#675 = ORIENTED_EDGE ( 'NONE', *, *, #101, .F. ) ;
#676 = LINE ( 'NONE', #598, #955 ) ;
#677 = CARTESIAN_POINT ( 'NONE',  ( 0.000000000000000000, 0.000000000000000000, 0.000000000000000000 ) ) ;
#678 = LINE ( 'NONE', #62, #272 ) ;
#679 = ORIENTED_EDGE ( 'NONE', *, *, #944, .F. ) ;
#680 = FACE_OUTER_BOUND ( 'NONE', #231, .T. ) ;
#681 = CYLINDRICAL_SURFACE ( 'NONE', #803, 8.000000000000000000 ) ;
#682 = DIRECTION ( 'NONE',  ( 0.000000000000000000, 0.000000000000000000, -1.000000000000000000 ) ) ;
#683 = EDGE_LOOP ( 'NONE', ( #912, #286, #782, #917 ) ) ;
#684 = CARTESIAN_POINT ( 'NONE',  ( 2.270521962650101422, -11.84579264044395153, 35.00001200000000523 ) ) ;
#685 = DIRECTION ( 'NONE',  ( 1.000000000000000000, 0.000000000000000000, 0.000000000000000000 ) ) ;
#686 = CIRCLE ( 'NONE', #636, 4.000000000000000000 ) ;
#687 = AXIS2_PLACEMENT_3D ( 'NONE', #407, #107, #893 ) ;
#688 = LINE ( 'NONE', #542, #400 ) ;
#689 = ADVANCED_FACE ( 'NONE', ( #680 ), #34, .F. ) ;
#690 = ORIENTED_EDGE ( 'NONE', *, *, #70, .T. ) ;
#691 = DIRECTION ( 'NONE',  ( -0.000000000000000000, -0.000000000000000000, 1.000000000000000000 ) ) ;
#692 = CARTESIAN_POINT ( 'NONE',  ( 7.901740314639552842, -1.250000000000000222, 0.000000000000000000 ) ) ;
#693 = CARTESIAN_POINT ( 'NONE',  ( -9.000968108871248319, 8.673863098023145923, 35.00000950864016858 ) ) ;
#694 = VERTEX_POINT ( 'NONE', #199 ) ;
#695 = CYLINDRICAL_SURFACE ( 'NONE', #986, 4.000000000000000000 ) ;
#696 = CARTESIAN_POINT ( 'NONE',  ( 0.000000000000000000, 0.000000000000000000, 30.00000000000000000 ) ) ;
#697 = DIRECTION ( 'NONE',  ( 0.000000000000000000, 0.000000000000000000, -1.000000000000000000 ) ) ;
#698 = AXIS2_PLACEMENT_3D ( 'NONE', #918, #836, #431 ) ;
#699 = AXIS2_PLACEMENT_3D ( 'NONE', #159, #925, #156 ) ;
#700 = ORIENTED_EDGE ( 'NONE', *, *, #396, .T. ) ;
#701 = CARTESIAN_POINT ( 'NONE',  ( 11.39345347118302954, -3.956811718070843309, 35.00001200000000523 ) ) ;
#702 = EDGE_CURVE ( 'NONE', #164, #430, #112, .T. ) ;
#703 = CIRCLE ( 'NONE', #108, 8.000000000000000000 ) ;
#704 = CARTESIAN_POINT ( 'NONE',  ( -8.000000000000000000, -1.250000000000000222, -4.756979847129882062E-17 ) ) ;
#705 = ORIENTED_EDGE ( 'NONE', *, *, #758, .T. ) ;
#706 = VECTOR ( 'NONE', #727, 1000.000000000000000 ) ;
#707 = FACE_OUTER_BOUND ( 'NONE', #384, .T. ) ;
#708 = CIRCLE ( 'NONE', #433, 8.000000000000000000 ) ;
#709 = APPLICATION_CONTEXT ( 'automotive_design' ) ;
#710 = LINE ( 'NONE', #638, #309 ) ;
#711 = ORIENTED_EDGE ( 'NONE', *, *, #114, .F. ) ;
#712 =( LENGTH_UNIT ( ) NAMED_UNIT ( * ) SI_UNIT ( .MILLI., .METRE. ) );
#713 = DIRECTION ( 'NONE',  ( 1.000000000000000000, 0.000000000000000000, -0.000000000000000000 ) ) ;
#714 = ORIENTED_EDGE ( 'NONE', *, *, #1028, .F. ) ;
#715 =( NAMED_UNIT ( * ) PLANE_ANGLE_UNIT ( ) SI_UNIT ( $, .RADIAN. ) );
#716 = CARTESIAN_POINT ( 'NONE',  ( -8.882183605578662267, 7.706015759489056371, 35.00000599999999906 ) ) ;
#717 = CARTESIAN_POINT ( 'NONE',  ( 0.000000000000000000, 0.000000000000000000, 0.000000000000000000 ) ) ;
#718 = ORIENTED_EDGE ( 'NONE', *, *, #721, .T. ) ;
#719 = LINE ( 'NONE', #250, #851 ) ;
#720 = UNCERTAINTY_MEASURE_WITH_UNIT (LENGTH_MEASURE( 1.000000000000000082E-05 ), #106, 'distance_accuracy_value', 'NONE');
#721 = EDGE_CURVE ( 'NONE', #290, #979, #387, .T. ) ;
#722 = AXIS2_PLACEMENT_3D ( 'NONE', #102, #265, #738 ) ;
#723 = DIRECTION ( 'NONE',  ( 0.000000000000000000, 0.000000000000000000, 1.000000000000000000 ) ) ;
#724 = CARTESIAN_POINT ( 'NONE',  ( -8.000000000000000000, 0.000000000000000000, 0.000000000000000000 ) ) ;
#725 = ORIENTED_EDGE ( 'NONE', *, *, #534, .T. ) ;
#726 = FACE_OUTER_BOUND ( 'NONE', #172, .T. ) ;
#727 = DIRECTION ( 'NONE',  ( -0.000000000000000000, -0.000000000000000000, -1.000000000000000000 ) ) ;
#728 = EDGE_CURVE ( 'NONE', #207, #1020, #308, .T. ) ;
#729 = DIRECTION ( 'NONE',  ( 1.000000000000000000, -0.000000000000000000, -0.000000000000000000 ) ) ;
#730 = ORIENTED_EDGE ( 'NONE', *, *, #589, .F. ) ;
#731 = DIRECTION ( 'NONE',  ( -1.000000000000000000, 0.000000000000000000, 0.000000000000000000 ) ) ;
#732 = LINE ( 'NONE', #86, #253 ) ;
#733 = CARTESIAN_POINT ( 'NONE',  ( -8.000000000000000000, 1.250000000000000000, 0.000000000000000000 ) ) ;
#734 = VERTEX_POINT ( 'NONE', #425 ) ;
#735 = EDGE_LOOP ( 'NONE', ( #796, #941 ) ) ;
#736 = CARTESIAN_POINT ( 'NONE',  ( 11.89979558927050185, -3.828513817703733224, 35.00001172820302742 ) ) ;
#737 = CIRCLE ( 'NONE', #60, 8.000000000000000000 ) ;
#738 = DIRECTION ( 'NONE',  ( 1.000000000000000000, 0.000000000000000000, 0.000000000000000000 ) ) ;
#739 = EDGE_LOOP ( 'NONE', ( #749, #674, #68, #662 ) ) ;
#740 = EDGE_CURVE ( 'NONE', #260, #158, #708, .T. ) ;
#741 = DIRECTION ( 'NONE',  ( -0.000000000000000000, -0.000000000000000000, -1.000000000000000000 ) ) ;
#742 = EDGE_CURVE ( 'NONE', #895, #207, #665, .T. ) ;
#743 = CYLINDRICAL_SURFACE ( 'NONE', #321, 12.50000000000000000 ) ;
#744 = ORIENTED_EDGE ( 'NONE', *, *, #445, .T. ) ;
#745 = EDGE_LOOP ( 'NONE', ( #547, #201, #301, #575 ) ) ;
#746 = CARTESIAN_POINT ( 'NONE',  ( 6.049999999999998934, 7.409113134841485535E-16, 30.00000000000000000 ) ) ;
#747 = VECTOR ( 'NONE', #90, 1000.000000000000000 ) ;
#748 = DIRECTION ( 'NONE',  ( -0.000000000000000000, -0.000000000000000000, -1.000000000000000000 ) ) ;
#749 = ORIENTED_EDGE ( 'NONE', *, *, #903, .F. ) ;
#750 = ORIENTED_EDGE ( 'NONE', *, *, #728, .T. ) ;
#751 = CARTESIAN_POINT ( 'NONE',  ( -12.01297252574443419, -3.458007201467705904, 35.00001199999999812 ) ) ;
#752 = VECTOR ( 'NONE', #840, 1000.000000000000000 ) ;
#753 = AXIS2_PLACEMENT_3D ( 'NONE', #136, #763, #685 ) ;
#754 = DIRECTION ( 'NONE',  ( 1.000000000000000000, 0.000000000000000000, 0.000000000000000000 ) ) ;
#755 = DIRECTION ( 'NONE',  ( 0.000000000000000000, 0.000000000000000000, 1.000000000000000000 ) ) ;
#756 = ORIENTED_EDGE ( 'NONE', *, *, #369, .F. ) ;
#757 = DIRECTION ( 'NONE',  ( 0.000000000000000000, 0.000000000000000000, 1.000000000000000000 ) ) ;
#758 = EDGE_CURVE ( 'NONE', #966, #419, #676, .T. ) ;
#759 = DIRECTION ( 'NONE',  ( -0.000000000000000000, -0.000000000000000000, -1.000000000000000000 ) ) ;
#760 = CARTESIAN_POINT ( 'NONE',  ( 0.2325136068914274712, 15.00930613839106620, 0.000000000000000000 ) ) ;
#761 = ORIENTED_EDGE ( 'NONE', *, *, #554, .F. ) ;
#762 = CARTESIAN_POINT ( 'NONE',  ( 0.2325136068914274712, 15.00930613839106620, 30.00000000000000000 ) ) ;
#763 = DIRECTION ( 'NONE',  ( 0.000000000000000000, 0.000000000000000000, 1.000000000000000000 ) ) ;
#764 = B_SPLINE_CURVE_WITH_KNOTS ( 'NONE', 3,
 ( #875, #645, #328, #96, #332, #316, #802, #405, #557, #3 ),
 .UNSPECIFIED., .F., .F.,
 ( 4, 2, 2, 2, 4 ),
 ( 0.000000000000000000, 0.2500000000000000555, 0.5000000000000001110, 0.7500000000000002220, 1.000000000000000000 ),
 .UNSPECIFIED. ) ;
#765 = DIRECTION ( 'NONE',  ( 1.000000000000000000, -0.000000000000000000, -0.000000000000000000 ) ) ;
#766 = ORIENTED_EDGE ( 'NONE', *, *, #82, .F. ) ;
#767 = CARTESIAN_POINT ( 'NONE',  ( 2.634829858223829202, -12.22033832698468991, 35.00001199999999812 ) ) ;
#768 = CARTESIAN_POINT ( 'NONE',  ( 0.000000000000000000, 0.000000000000000000, 30.00000000000000000 ) ) ;
#769 = CIRCLE ( 'NONE', #536, 4.000000000000000000 ) ;
#770 = AXIS2_PLACEMENT_3D ( 'NONE', #66, #219, #512 ) ;
#771 = ADVANCED_FACE ( 'NONE', ( #593, #998 ), #984, .F. ) ;
#772 = DIRECTION ( 'NONE',  ( 1.000000000000000000, 0.000000000000000000, 0.000000000000000000 ) ) ;
#773 = ADVANCED_FACE ( 'NONE', ( #522 ), #499, .F. ) ;
#774 = VERTEX_POINT ( 'NONE', #751 ) ;
#775 = CYLINDRICAL_SURFACE ( 'NONE', #382, 3.999999999999998224 ) ;
#776 = LINE ( 'NONE', #299, #920 ) ;
#777 = EDGE_CURVE ( 'NONE', #509, #774, #135, .T. ) ;
#778 = DIRECTION ( 'NONE',  ( -0.000000000000000000, -0.000000000000000000, 1.000000000000000000 ) ) ;
#779 = ORIENTED_EDGE ( 'NONE', *, *, #478, .F. ) ;
#780 = DIRECTION ( 'NONE',  ( 1.000000000000000000, 0.000000000000000000, 0.000000000000000000 ) ) ;
#781 = CARTESIAN_POINT ( 'NONE',  ( -5.919459434779495766, 1.250000000000000000, 0.000000000000000000 ) ) ;
#782 = ORIENTED_EDGE ( 'NONE', *, *, #800, .T. ) ;
#783 = CARTESIAN_POINT ( 'NONE',  ( 0.000000000000000000, 0.000000000000000000, 0.000000000000000000 ) ) ;
#784 = VECTOR ( 'NONE', #525, 1000.000000000000000 ) ;
#785 = PLANE ( 'NONE',  #75 ) ;
#786 = AXIS2_PLACEMENT_3D ( 'NONE', #609, #856, #541 ) ;
#787 = VERTEX_POINT ( 'NONE', #44 ) ;
#788 = CIRCLE ( 'NONE', #337, 12.50000000000000000 ) ;
#789 = CARTESIAN_POINT ( 'NONE',  ( 0.000000000000000000, 0.000000000000000000, 34.99999999999999289 ) ) ;
#790 = CARTESIAN_POINT ( 'NONE',  ( -9.454702886723449495, 5.597282122128014237, 35.00001200000000523 ) ) ;
#791 = EDGE_LOOP ( 'NONE', ( #422, #870, #1016, #879 ) ) ;
#792 = LINE ( 'NONE', #21, #747 ) ;
#793 = LINE ( 'NONE', #320, #11 ) ;
#794 = CARTESIAN_POINT ( 'NONE',  ( -8.882183605578662267, 7.265128436625050590, 35.00001199999999812 ) ) ;
#795 = EDGE_CURVE ( 'NONE', #32, #290, #356, .T. ) ;
#796 = ORIENTED_EDGE ( 'NONE', *, *, #114, .T. ) ;
#797 = CARTESIAN_POINT ( 'NONE',  ( 0.000000000000000000, 0.000000000000000000, 34.99999999999999289 ) ) ;
#798 = CARTESIAN_POINT ( 'NONE',  ( -7.901740314639554619, 1.249999999999995781, 30.00000000000000000 ) ) ;
#799 = CARTESIAN_POINT ( 'NONE',  ( -10.32502946851218617, 4.598710761464880115, 35.00001199999999102 ) ) ;
#800 = EDGE_CURVE ( 'NONE', #650, #26, #562, .T. ) ;
#801 = ORIENTED_EDGE ( 'NONE', *, *, #834, .T. ) ;
#802 = CARTESIAN_POINT ( 'NONE',  ( 10.21898940671395373, 4.494775703922873511, 35.00001200000000523 ) ) ;
#803 = AXIS2_PLACEMENT_3D ( 'NONE', #373, #440, #599 ) ;
#804 = LINE ( 'NONE', #100, #471 ) ;
#805 = CARTESIAN_POINT ( 'NONE',  ( -9.114697212470083798, -6.872704334528139114, 35.00001200000000523 ) ) ;
#806 = VERTEX_POINT ( 'NONE', #130 ) ;
#807 = CARTESIAN_POINT ( 'NONE',  ( -0.6929286098849736231, -11.00168555516439817, 35.00001200000000523 ) ) ;
#808 = FILL_AREA_STYLE ('',( #876 ) ) ;
#809 = DIRECTION ( 'NONE',  ( -0.000000000000000000, -0.000000000000000000, 1.000000000000000000 ) ) ;
#810 = ORIENTED_EDGE ( 'NONE', *, *, #459, .T. ) ;
#811 = ORIENTED_EDGE ( 'NONE', *, *, #855, .F. ) ;
#812 = CYLINDRICAL_SURFACE ( 'NONE', #472, 4.000000000000000000 ) ;
#813 = EDGE_CURVE ( 'NONE', #544, #430, #435, .T. ) ;
#814 = CARTESIAN_POINT ( 'NONE',  ( -9.114697212470083798, -7.303290378902012492, 30.00000000000000000 ) ) ;
#815 = CARTESIAN_POINT ( 'NONE',  ( -13.11469721247008557, -7.303290378902012492, 30.00000000000000000 ) ) ;
#816 = DIRECTION ( 'NONE',  ( 0.000000000000000000, 0.000000000000000000, 1.000000000000000000 ) ) ;
#817 = EDGE_CURVE ( 'NONE', #427, #509, #285, .T. ) ;
#818 = ORIENTED_EDGE ( 'NONE', *, *, #642, .F. ) ;
#819 = PLANE ( 'NONE',  #656 ) ;
#820 = AXIS2_PLACEMENT_3D ( 'NONE', #352, #987, #271 ) ;
#821 = CARTESIAN_POINT ( 'NONE',  ( -9.184821802446199612, -6.442195957076431334, 35.00001199999999812 ) ) ;
#822 = DIRECTION ( 'NONE',  ( 0.000000000000000000, -0.000000000000000000, 1.000000000000000000 ) ) ;
#823 = ORIENTED_EDGE ( 'NONE', *, *, #1028, .T. ) ;
#824 = CARTESIAN_POINT ( 'NONE',  ( 11.89921186447808665, -3.828675620141245073, 30.00000000000000000 ) ) ;
#825 = CARTESIAN_POINT ( 'NONE',  ( -11.89921186447808665, 3.828675620141245073, 30.00000000000000000 ) ) ;
#826 = EDGE_LOOP ( 'NONE', ( #954, #761, #597, #6 ) ) ;
#827 = ADVANCED_FACE ( 'NONE', ( #942 ), #775, .F. ) ;
#828 = ORIENTED_EDGE ( 'NONE', *, *, #957, .F. ) ;
#829 = CARTESIAN_POINT ( 'NONE',  ( 0.000000000000000000, 0.000000000000000000, 30.00000000000000000 ) ) ;
#830 = VECTOR ( 'NONE', #53, 1000.000000000000000 ) ;
#831 = FACE_OUTER_BOUND ( 'NONE', #180, .T. ) ;
#832 = ORIENTED_EDGE ( 'NONE', *, *, #589, .T. ) ;
#833 = UNCERTAINTY_MEASURE_WITH_UNIT (LENGTH_MEASURE( 1.000000000000000082E-05 ), #712, 'distance_accuracy_value', 'NONE');
#834 = EDGE_CURVE ( 'NONE', #866, #550, #532, .T. ) ;
#835 = EDGE_LOOP ( 'NONE', ( #323, #503, #390, #484, #306, #823 ) ) ;
#836 = DIRECTION ( 'NONE',  ( -0.000000000000000000, -0.000000000000000000, 1.000000000000000000 ) ) ;
#837 = VECTOR ( 'NONE', #632, 1000.000000000000000 ) ;
#838 = CIRCLE ( 'NONE', #820, 12.50000000000000000 ) ;
#839 = CARTESIAN_POINT ( 'NONE',  ( 2.188621015046540386, 11.48132533842337466, 35.00001200000000523 ) ) ;
#840 = DIRECTION ( 'NONE',  ( 0.000000000000000000, 0.000000000000000000, 1.000000000000000000 ) ) ;
#841 = EDGE_LOOP ( 'NONE', ( #353, #360, #945, #591, #151, #832, #468, #516 ) ) ;
#842 = CARTESIAN_POINT ( 'NONE',  ( 2.633875582346589805, -12.21935756972184173, 17.50000599999999906 ) ) ;
#843 = DIRECTION ( 'NONE',  ( 1.000000000000000000, 0.000000000000000000, 0.000000000000000000 ) ) ;
#844 = LINE ( 'NONE', #1015, #951 ) ;
#845 = ORIENTED_EDGE ( 'NONE', *, *, #777, .T. ) ;
#846 = CARTESIAN_POINT ( 'NONE',  ( 0.000000000000000000, 0.000000000000000000, 34.99999999999999289 ) ) ;
#847 = B_SPLINE_CURVE_WITH_KNOTS ( 'NONE', 3,
 ( #141, #1024, #444, #204 ),
 .UNSPECIFIED., .F., .F.,
 ( 4, 4 ),
 ( 0.000000000000000000, 0.1757197558735759391 ),
 .UNSPECIFIED. ) ;
#848 = EDGE_CURVE ( 'NONE', #448, #494, #880, .T. ) ;
#849 = CARTESIAN_POINT ( 'NONE',  ( 9.000967814154817503, -8.673869226798091248, 35.00000951510304503 ) ) ;
#850 = ADVANCED_FACE ( 'NONE', ( #931 ), #222, .T. ) ;
#851 = VECTOR ( 'NONE', #80, 1000.000000000000000 ) ;
#852 = LINE ( 'NONE', #858, #453 ) ;
#853 = ORIENTED_EDGE ( 'NONE', *, *, #813, .F. ) ;
#854 = CARTESIAN_POINT ( 'NONE',  ( 8.874650369606678524, -8.167020878575829812, 35.00001199999999812 ) ) ;
#855 = EDGE_CURVE ( 'NONE', #979, #580, #1027, .T. ) ;
#856 = DIRECTION ( 'NONE',  ( 0.000000000000000000, 0.000000000000000000, 1.000000000000000000 ) ) ;
#857 = AXIS2_PLACEMENT_3D ( 'NONE', #760, #446, #137 ) ;
#858 = CARTESIAN_POINT ( 'NONE',  ( -2.633875582346585364, 12.21935756972184350, 17.50000599999999906 ) ) ;
#859 = VERTEX_POINT ( 'NONE', #548 ) ;
#860 = DIRECTION ( 'NONE',  ( 1.000000000000000000, -0.000000000000000000, -0.000000000000000000 ) ) ;
#861 = DIRECTION ( 'NONE',  ( -0.000000000000000000, -0.000000000000000000, 1.000000000000000000 ) ) ;
#862 = CARTESIAN_POINT ( 'NONE',  ( -8.000000000000000000, 0.000000000000000000, 30.00000000000000000 ) ) ;
#863 = ORIENTED_EDGE ( 'NONE', *, *, #511, .T. ) ;
#864 = DIRECTION ( 'NONE',  ( 1.000000000000000000, 0.000000000000000000, 0.000000000000000000 ) ) ;
#865 = CARTESIAN_POINT ( 'NONE',  ( -3.011108272225536009, -12.13190945288230616, 17.50000599999999906 ) ) ;
#866 = VERTEX_POINT ( 'NONE', #152 ) ;
#867 = DIRECTION ( 'NONE',  ( 0.000000000000000000, 0.000000000000000000, 1.000000000000000000 ) ) ;
#868 = EDGE_CURVE ( 'NONE', #202, #191, #948, .T. ) ;
#869 = DIRECTION ( 'NONE',  ( 0.000000000000000000, 0.000000000000000000, 1.000000000000000000 ) ) ;
#870 = ORIENTED_EDGE ( 'NONE', *, *, #795, .T. ) ;
#871 = CARTESIAN_POINT ( 'NONE',  ( 0.000000000000000000, 0.000000000000000000, 34.99999999999999289 ) ) ;
#872 = ADVANCED_FACE ( 'NONE', ( #707 ), #695, .F. ) ;
#873 = CARTESIAN_POINT ( 'NONE',  ( -9.996260459684995325, 4.901407190105908640, 35.00001199999999812 ) ) ;
#874 = ORIENTED_EDGE ( 'NONE', *, *, #283, .F. ) ;
#875 = CARTESIAN_POINT ( 'NONE',  ( 9.265341556669387302, 8.390943364715941044, 35.00000995318779218 ) ) ;
#876 = FILL_AREA_STYLE_COLOUR ( '', #886 ) ;
#877 = EDGE_CURVE ( 'NONE', #531, #184, #233, .T. ) ;
#878 = LINE ( 'NONE', #947, #837 ) ;
#879 = ORIENTED_EDGE ( 'NONE', *, *, #70, .F. ) ;
#880 = CIRCLE ( 'NONE', #22, 6.049999999999999822 ) ;
#881 = PLANE ( 'NONE',  #974 ) ;
#882 = EDGE_CURVE ( 'NONE', #184, #514, #411, .T. ) ;
#883 = DIRECTION ( 'NONE',  ( 0.000000000000000000, 0.000000000000000000, 1.000000000000000000 ) ) ;
#884 = VERTEX_POINT ( 'NONE', #545 ) ;
#885 = CARTESIAN_POINT ( 'NONE',  ( -3.011108272225537341, -12.13190945288230438, 30.00000000000000000 ) ) ;
#886 = COLOUR_RGB ( '',0.7921568627450980005, 0.8196078431372548767, 0.9333333333333333481 ) ;
#887 = LINE ( 'NONE', #798, #1012 ) ;
#888 = CYLINDRICAL_SURFACE ( 'NONE', #553, 8.000000000000000000 ) ;
#889 = ORIENTED_EDGE ( 'NONE', *, *, #153, .F. ) ;
#890 = CARTESIAN_POINT ( 'NONE',  ( 5.919459434779495766, -1.250000000000000000, 1.500000000000000000 ) ) ;
#891 = EDGE_LOOP ( 'NONE', ( #479, #711, #370, #988, #690, #497, #463, #349 ) ) ;
#892 = CARTESIAN_POINT ( 'NONE',  ( 7.901740314639552842, 1.250000000000000000, 0.000000000000000000 ) ) ;
#893 = DIRECTION ( 'NONE',  ( 1.000000000000000000, 0.000000000000000000, 0.000000000000000000 ) ) ;
#894 = DIRECTION ( 'NONE',  ( 0.000000000000000000, 0.000000000000000000, 1.000000000000000000 ) ) ;
#895 = VERTEX_POINT ( 'NONE', #767 ) ;
#896 = CARTESIAN_POINT ( 'NONE',  ( -0.2325136068914213094, -15.00930613839106620, 30.00000000000000000 ) ) ;
#897 = CIRCLE ( 'NONE', #218, 3.999999999999998224 ) ;
#898 = DIRECTION ( 'NONE',  ( 1.000000000000000000, 0.000000000000000000, 0.000000000000000000 ) ) ;
#899 = ORIENTED_EDGE ( 'NONE', *, *, #742, .F. ) ;
#900 = VERTEX_POINT ( 'NONE', #1017 ) ;
#901 = CARTESIAN_POINT ( 'NONE',  ( 0.000000000000000000, 0.000000000000000000, 30.00000000000000000 ) ) ;
#902 = AXIS2_PLACEMENT_3D ( 'NONE', #40, #809, #417 ) ;
#903 = EDGE_CURVE ( 'NONE', #650, #164, #897, .T. ) ;
#904 = DIRECTION ( 'NONE',  ( 1.000000000000000000, -0.000000000000000000, -0.000000000000000000 ) ) ;
#905 = ORIENTED_EDGE ( 'NONE', *, *, #615, .F. ) ;
#906 = ORIENTED_EDGE ( 'NONE', *, *, #817, .F. ) ;
#907 = CARTESIAN_POINT ( 'NONE',  ( 0.000000000000000000, 0.000000000000000000, 30.00000000000000000 ) ) ;
#908 = B_SPLINE_CURVE_WITH_KNOTS ( 'NONE', 3,
 ( #87, #389, #154, #799, #873, #790, #248, #1, #794, #462 ),
 .UNSPECIFIED., .F., .F.,
 ( 4, 2, 2, 2, 4 ),
 ( 0.000000000000000000, 0.2110122400155956257, 0.4220244800311912514, 0.6330367200467869049, 0.8440489600623825028 ),
 .UNSPECIFIED. ) ;
#909 = DIRECTION ( 'NONE',  ( -0.000000000000000000, -0.000000000000000000, -1.000000000000000000 ) ) ;
#910 = EDGE_CURVE ( 'NONE', #207, #164, #563, .T. ) ;
#911 = EDGE_LOOP ( 'NONE', ( #38, #521, #766, #98 ) ) ;
#912 = ORIENTED_EDGE ( 'NONE', *, *, #319, .F. ) ;
#913 = DIRECTION ( 'NONE',  ( 0.000000000000000000, 0.000000000000000000, 1.000000000000000000 ) ) ;
#914 = CIRCLE ( 'NONE', #185, 6.049999999999998934 ) ;
#915 = CARTESIAN_POINT ( 'NONE',  ( 0.000000000000000000, 0.000000000000000000, 34.99999999999999289 ) ) ;
#916 = CYLINDRICAL_SURFACE ( 'NONE', #857, 4.000000000000000000 ) ;
#917 = ORIENTED_EDGE ( 'NONE', *, *, #985, .T. ) ;
#918 = CARTESIAN_POINT ( 'NONE',  ( -13.11469721247008557, -7.303290378902012492, 0.000000000000000000 ) ) ;
#919 = AXIS2_PLACEMENT_3D ( 'NONE', #109, #822, #115 ) ;
#920 = VECTOR ( 'NONE', #933, 1000.000000000000000 ) ;
#921 = VECTOR ( 'NONE', #741, 1000.000000000000000 ) ;
#922 = CARTESIAN_POINT ( 'NONE',  ( -6.050000000000000711, 0.000000000000000000, 34.99999999999999289 ) ) ;
#923 = DIRECTION ( 'NONE',  ( 1.000000000000000000, -0.000000000000000000, -0.000000000000000000 ) ) ;
#924 = ORIENTED_EDGE ( 'NONE', *, *, #149, .F. ) ;
#925 = DIRECTION ( 'NONE',  ( 0.000000000000000000, 0.000000000000000000, 1.000000000000000000 ) ) ;
#926 = EDGE_CURVE ( 'NONE', #859, #129, #74, .T. ) ;
#927 = CARTESIAN_POINT ( 'NONE',  ( -2.634829897083411421, 12.22033836693631237, 35.00001199999999812 ) ) ;
#928 = EDGE_CURVE ( 'NONE', #895, #83, #993, .T. ) ;
#929 = CARTESIAN_POINT ( 'NONE',  ( -8.000000000000000000, -1.250000000000000222, -4.756979847129882062E-17 ) ) ;
#930 = VERTEX_POINT ( 'NONE', #398 ) ;
#931 = FACE_OUTER_BOUND ( 'NONE', #683, .T. ) ;
#932 = AXIS2_PLACEMENT_3D ( 'NONE', #829, #420, #187 ) ;
#933 = DIRECTION ( 'NONE',  ( -0.000000000000000000, -0.000000000000000000, -1.000000000000000000 ) ) ;
#934 = FACE_OUTER_BOUND ( 'NONE', #791, .T. ) ;
#935 = EDGE_LOOP ( 'NONE', ( #924, #474, #612, #982 ) ) ;
#936 = CARTESIAN_POINT ( 'NONE',  ( 9.181408070065485205, -6.100678164778385870, 35.00001200000000523 ) ) ;
#937 = SURFACE_SIDE_STYLE ('',( #333 ) ) ;
#938 = AXIS2_PLACEMENT_3D ( 'NONE', #211, #452, #772 ) ;
#939 = CIRCLE ( 'NONE', #753, 4.000000000000000000 ) ;
#940 = FACE_OUTER_BOUND ( 'NONE', #826, .T. ) ;
#941 = ORIENTED_EDGE ( 'NONE', *, *, #740, .T. ) ;
#942 = FACE_OUTER_BOUND ( 'NONE', #739, .T. ) ;
#943 = CARTESIAN_POINT ( 'NONE',  ( 8.000000000000000000, 9.797174393178825657E-16, 30.00000000000000000 ) ) ;
#944 = EDGE_CURVE ( 'NONE', #694, #331, #640, .T. ) ;
#945 = ORIENTED_EDGE ( 'NONE', *, *, #297, .T. ) ;
#946 = DIRECTION ( 'NONE',  ( -0.000000000000000000, -0.000000000000000000, -1.000000000000000000 ) ) ;
#947 = CARTESIAN_POINT ( 'NONE',  ( -8.000000000000000000, -1.250000000000000222, -4.756979847129882062E-17 ) ) ;
#948 = CIRCLE ( 'NONE', #140, 4.000000000000000000 ) ;
#949 = EDGE_LOOP ( 'NONE', ( #779, #280, #144, #845 ) ) ;
#950 = DIRECTION ( 'NONE',  ( -1.000000000000000000, 0.000000000000000000, 0.000000000000000000 ) ) ;
#951 = VECTOR ( 'NONE', #765, 1000.000000000000000 ) ;
#952 = DIRECTION ( 'NONE',  ( 1.000000000000000000, 0.000000000000000000, 0.000000000000000000 ) ) ;
#953 = CIRCLE ( 'NONE', #501, 4.000000000000000000 ) ;
#954 = ORIENTED_EDGE ( 'NONE', *, *, #511, .F. ) ;
#955 = VECTOR ( 'NONE', #276, 1000.000000000000000 ) ;
#956 = DIRECTION ( 'NONE',  ( -0.000000000000000000, -0.000000000000000000, 1.000000000000000000 ) ) ;
#957 = EDGE_CURVE ( 'NONE', #273, #884, #764, .T. ) ;
#958 = FACE_OUTER_BOUND ( 'NONE', #73, .T. ) ;
#959 = ADVANCED_FACE ( 'NONE', ( #177 ), #409, .T. ) ;
#960 = CARTESIAN_POINT ( 'NONE',  ( -6.049999999999998934, 0.000000000000000000, 0.000000000000000000 ) ) ;
#961 = ORIENTED_EDGE ( 'NONE', *, *, #554, .T. ) ;
#962 = DIRECTION ( 'NONE',  ( 1.000000000000000000, 0.000000000000000000, 0.000000000000000000 ) ) ;
#963 = EDGE_CURVE ( 'NONE', #565, #167, #792, .T. ) ;
#964 = DIRECTION ( 'NONE',  ( 0.000000000000000000, 0.000000000000000000, -1.000000000000000000 ) ) ;
#965 = CARTESIAN_POINT ( 'NONE',  ( 3.011108272225542226, 12.13190945288230083, 30.00000000000000000 ) ) ;
#966 = VERTEX_POINT ( 'NONE', #973 ) ;
#967 = CARTESIAN_POINT ( 'NONE',  ( -2.188621037927025448, -11.48132535154841172, 35.00001199999999812 ) ) ;
#968 =( NAMED_UNIT ( * ) PLANE_ANGLE_UNIT ( ) SI_UNIT ( $, .RADIAN. ) );
#969 = DIRECTION ( 'NONE',  ( 1.000000000000000000, 0.000000000000000000, 0.000000000000000000 ) ) ;
#970 = CIRCLE ( 'NONE', #635, 8.000000000000000000 ) ;
#971 = PRODUCT ( 'banana-plug-wrench-v0', 'banana-plug-wrench-v0', '', ( #428 ) ) ;
#972 = ORIENTED_EDGE ( 'NONE', *, *, #910, .T. ) ;
#973 = CARTESIAN_POINT ( 'NONE',  ( -11.89979115604299409, 3.828514295925346644, 35.00001171463485150 ) ) ;
#974 = AXIS2_PLACEMENT_3D ( 'NONE', #641, #654, #246 ) ;
#975 = VECTOR ( 'NONE', #517, 1000.000000000000000 ) ;
#976 =( NAMED_UNIT ( * ) SI_UNIT ( $, .STERADIAN. ) SOLID_ANGLE_UNIT ( ) );
#977 = DIRECTION ( 'NONE',  ( -0.000000000000000000, -0.000000000000000000, -1.000000000000000000 ) ) ;
#978 = DIRECTION ( 'NONE',  ( 1.000000000000000000, 0.000000000000000000, 0.000000000000000000 ) ) ;
#979 = VERTEX_POINT ( 'NONE', #890 ) ;
#980 = DIRECTION ( 'NONE',  ( 0.000000000000000000, 0.000000000000000000, 1.000000000000000000 ) ) ;
#981 = CARTESIAN_POINT ( 'NONE',  ( -9.114697212470083798, -7.303290378902008939, 35.00000599999999906 ) ) ;
#982 = ORIENTED_EDGE ( 'NONE', *, *, #507, .F. ) ;
#983 = ORIENTED_EDGE ( 'NONE', *, *, #396, .F. ) ;
#984 = PLANE ( 'NONE',  #932 ) ;
#985 = EDGE_CURVE ( 'NONE', #26, #884, #719, .T. ) ;
#986 = AXIS2_PLACEMENT_3D ( 'NONE', #1021, #691, #217 ) ;
#987 = DIRECTION ( 'NONE',  ( 0.000000000000000000, 0.000000000000000000, 1.000000000000000000 ) ) ;
#988 = ORIENTED_EDGE ( 'NONE', *, *, #882, .T. ) ;
#989 = EDGE_LOOP ( 'NONE', ( #579, #103, #239, #906, #526, #327, #52, #1002, #138, #424, #863, #498, #198, #36, #750 ) ) ;
#990 = DIRECTION ( 'NONE',  ( 1.000000000000000000, 0.000000000000000000, 0.000000000000000000 ) ) ;
#991 = AXIS2_PLACEMENT_3D ( 'NONE', #768, #909, #457 ) ;
#992 = PRODUCT_RELATED_PRODUCT_CATEGORY ( 'part', '', ( #971 ) ) ;
#993 = B_SPLINE_CURVE_WITH_KNOTS ( 'NONE', 3,
 ( #365, #684, #292, #296, #145, #807, #236, #967, #99, #480 ),
 .UNSPECIFIED., .F., .F.,
 ( 4, 2, 2, 2, 4 ),
 ( 0.000000000000000000, 0.2499999999999999445, 0.4999999999999998890, 0.7499999999999998890, 1.000000000000000000 ),
 .UNSPECIFIED. ) ;
#994 = CARTESIAN_POINT ( 'NONE',  ( -11.59904120752723600, -3.576604020179264598, 35.00001199999999812 ) ) ;
#995 = EDGE_LOOP ( 'NONE', ( #348, #756, #639, #413 ) ) ;
#996 = APPLICATION_PROTOCOL_DEFINITION ( 'draft international standard', 'automotive_design', 1998, #652 ) ;
#997 = ORIENTED_EDGE ( 'NONE', *, *, #160, .T. ) ;
#998 = FACE_OUTER_BOUND ( 'NONE', #989, .T. ) ;
#999 = EDGE_CURVE ( 'NONE', #585, #191, #515, .T. ) ;
#1000 = CARTESIAN_POINT ( 'NONE',  ( -0.8725673774630109403, 11.12964110965492104, 35.00001199999999102 ) ) ;
#1001 = CYLINDRICAL_SURFACE ( 'NONE', #618, 12.50000000000000000 ) ;
#1002 = ORIENTED_EDGE ( 'NONE', *, *, #351, .F. ) ;
#1003 = DIRECTION ( 'NONE',  ( 0.000000000000000000, 1.445602896647339163E-16, -1.000000000000000000 ) ) ;
#1004 = AXIS2_PLACEMENT_3D ( 'NONE', #381, #625, #603 ) ;
#1005 = AXIS2_PLACEMENT_3D ( 'NONE', #173, #257, #14 ) ;
#1006 = CARTESIAN_POINT ( 'NONE',  ( -1.832044125750464936, 11.54367400474379579, 35.00001199999999812 ) ) ;
#1007 = DIRECTION ( 'NONE',  ( -1.000000000000000000, 0.000000000000000000, 0.000000000000000000 ) ) ;
#1008 = ADVANCED_FACE ( 'NONE', ( #551 ), #324, .T. ) ;
#1009 = ORIENTED_EDGE ( 'NONE', *, *, #928, .T. ) ;
#1010 = DIRECTION ( 'NONE',  ( 1.000000000000000000, 0.000000000000000000, 0.000000000000000000 ) ) ;
#1011 = CIRCLE ( 'NONE', #938, 12.50000000000000000 ) ;
#1012 = VECTOR ( 'NONE', #399, 1000.000000000000000 ) ;
#1013 = EDGE_CURVE ( 'NONE', #393, #355, #629, .T. ) ;
#1014 = DIRECTION ( 'NONE',  ( 1.000000000000000000, 0.000000000000000000, -0.000000000000000000 ) ) ;
#1015 = CARTESIAN_POINT ( 'NONE',  ( -8.000000000000000000, -1.250000000000000222, -4.756979847129882062E-17 ) ) ;
#1016 = ORIENTED_EDGE ( 'NONE', *, *, #160, .F. ) ;
#1017 = CARTESIAN_POINT ( 'NONE',  ( -9.265336282131492851, -8.390681949580606869, 30.00000000000000000 ) ) ;
#1018 = CARTESIAN_POINT ( 'NONE',  ( -7.901740314639552842, -1.250000000000000222, 0.000000000000000000 ) ) ;
#1019 = DIRECTION ( 'NONE',  ( 0.000000000000000000, 0.000000000000000000, 1.000000000000000000 ) ) ;
#1020 = VERTEX_POINT ( 'NONE', #885 ) ;
#1021 = CARTESIAN_POINT ( 'NONE',  ( -12.88218360557866227, 7.706015759489057260, 0.000000000000000000 ) ) ;
#1022 = ADVANCED_FACE ( 'NONE', ( #726 ), #651, .T. ) ;
#1023 = VECTOR ( 'NONE', #270, 1000.000000000000000 ) ;
#1024 = CARTESIAN_POINT ( 'NONE',  ( -9.165569086910947405, -8.037592697909076378, 35.00001199999999812 ) ) ;
#1025 = DIRECTION ( 'NONE',  ( -0.000000000000000000, -0.000000000000000000, -1.000000000000000000 ) ) ;
#1026 = ORIENTED_EDGE ( 'NONE', *, *, #163, .F. ) ;
#1027 = LINE ( 'NONE', #58, #88 ) ;
#1028 = EDGE_CURVE ( 'NONE', #197, #32, #914, .T. ) ;
#1029 = STYLED_ITEM ( 'NONE', ( #646 ), #588 ) ;
#1030 = DIRECTION ( 'NONE',  ( 0.000000000000000000, 1.445602896647339163E-16, 1.000000000000000000 ) ) ;
#1031 = EDGE_LOOP ( 'NONE', ( #13, #961, #380, #619 ) ) ;
#1032 = CARTESIAN_POINT ( 'NONE',  ( -9.000987646495872241, 8.673650983733939057, 17.50000599999999906 ) ) ;
ENDSEC;
END-ISO-10303-21;
