M48
; DRILL file KiCad 10.0.5 date 2026-09-11T12:14:35
; FORMAT={-:-/ absolute / metric / decimal}
; #@! TF.CreationDate,2026-09-11T12:14:35-07:00
; #@! TF.GenerationSoftware,Kicad,Pcbnew,10.0.5
; #@! TF.FileFunction,Plated,1,2,PTH
FMAT,2
METRIC
; #@! TA.AperFunction,Plated,PTH,ViaDrill
T1C0.300
; #@! TA.AperFunction,Plated,PTH,ComponentDrill
T2C0.800
; #@! TA.AperFunction,Plated,PTH,ComponentDrill
T3C0.850
; #@! TA.AperFunction,Plated,PTH,ComponentDrill
T4C0.900
; #@! TA.AperFunction,Plated,PTH,ComponentDrill
T5C1.000
; #@! TA.AperFunction,Plated,PTH,ComponentDrill
T6C1.110
; #@! TA.AperFunction,Plated,PTH,ComponentDrill
T7C1.320
%
G90
G05
T1
X56.16Y-77.05
X57.6Y-82.5
X57.6Y-89.7
X58.9Y-72.86
X59.9Y-92.4
X60.16Y-77.05
X61.6Y-82.5
X62.6Y-83.4
X62.9Y-72.86
X62.9Y-97.6
X66.36Y-77.05
X66.7Y-101.4
X67.2Y-93.9
X67.8Y-82.5
X68.3Y-94.4
X69.1Y-72.86
X69.6Y-52.62
X69.6Y-58.12
X70.36Y-77.05
X71.8Y-82.5
X72.8Y-83.4
X73.1Y-72.86
X73.5Y-97.9
X73.9Y-55.355
X73.9Y-65.3
X74.55Y-58.005
X74.55Y-66.0
X75.2Y-67.5
X75.85Y-61.9
X75.85Y-66.0
X76.56Y-77.05
X78.0Y-82.5
X78.1Y-55.56
X78.1Y-61.08
X79.3Y-72.86
X80.0Y-87.2
X80.0Y-93.2
X80.0Y-97.9
X80.1Y-99.4
X80.56Y-77.05
X81.1Y-95.1
X82.0Y-82.5
X82.5Y-94.0
X83.0Y-83.4
X83.3Y-72.86
X86.76Y-77.05
X88.2Y-82.5
X88.2Y-96.9
X89.5Y-72.86
X90.76Y-77.05
X91.405Y-63.45
X92.2Y-82.5
X92.6Y-96.1
X92.675Y-59.6
X93.2Y-83.4
X93.5Y-72.86
X96.96Y-77.05
X98.4Y-82.5
X98.5Y-94.1
X98.75Y-52.45
X99.7Y-72.86
X100.1Y-95.7
X100.7Y-58.12
X100.7Y-61.0
X100.96Y-77.05
X102.4Y-82.5
X103.4Y-83.4
X103.7Y-72.86
T2
X57.9Y-52.2
X57.9Y-57.0
X60.44Y-52.2
X60.44Y-57.0
X62.98Y-57.0
X65.52Y-57.0
T3
X52.5Y-88.6
X52.5Y-94.6
X64.5Y-115.6
X95.5Y-115.6
T4
X60.84Y-100.0
X71.0Y-100.0
X73.84Y-100.0
X84.0Y-100.0
T5
X55.79Y-85.52
X55.79Y-88.06
X55.79Y-90.6
X55.79Y-93.14
X55.79Y-95.68
X63.41Y-85.52
X63.41Y-88.06
X63.41Y-90.6
X63.41Y-93.14
X63.41Y-95.68
X65.99Y-85.52
X65.99Y-88.06
X65.99Y-90.6
X65.99Y-93.14
X65.99Y-95.68
X73.61Y-85.52
X73.61Y-88.06
X73.61Y-90.6
X73.61Y-93.14
X73.61Y-95.68
X76.19Y-85.52
X76.19Y-88.06
X76.19Y-90.6
X76.19Y-93.14
X76.19Y-95.68
X83.81Y-85.52
X83.81Y-88.06
X83.81Y-90.6
X83.81Y-93.14
X83.81Y-95.68
X86.39Y-85.52
X86.39Y-88.06
X86.39Y-90.6
X86.39Y-93.14
X86.39Y-95.68
X94.01Y-85.52
X94.01Y-88.06
X94.01Y-90.6
X94.01Y-93.14
X94.01Y-95.68
X96.59Y-85.52
X96.59Y-88.06
X96.59Y-90.6
X96.59Y-93.14
X96.59Y-95.68
X104.21Y-85.52
X104.21Y-88.06
X104.21Y-90.6
X104.21Y-93.14
X104.21Y-95.68
T6
X88.34Y-100.0
X98.5Y-100.0
T7
X69.84Y-115.6
X90.16Y-115.6
M30
