%TF.GenerationSoftware,KiCad,Pcbnew,10.0.5*%
%TF.CreationDate,2026-09-11T12:13:03-07:00*%
%TF.ProjectId,nanovolt-divider,6e616e6f-766f-46c7-942d-646976696465,Rev0*%
%TF.SameCoordinates,Original*%
%TF.FileFunction,Legend,Top*%
%TF.FilePolarity,Positive*%
%FSLAX46Y46*%
G04 Gerber Fmt 4.6, Leading zero omitted, Abs format (unit mm)*
G04 Created by KiCad (PCBNEW 10.0.5) date 2026-09-11 12:13:03*
%MOMM*%
%LPD*%
G01*
G04 APERTURE LIST*
%ADD10C,0.120000*%
%ADD11C,0.100000*%
%ADD12C,0.150000*%
G04 APERTURE END LIST*
D10*
X62671804Y-117345855D02*
X62824185Y-117345855D01*
X62824185Y-117345855D02*
X62900375Y-117383950D01*
X62900375Y-117383950D02*
X62976566Y-117460140D01*
X62976566Y-117460140D02*
X63014661Y-117612521D01*
X63014661Y-117612521D02*
X63014661Y-117879188D01*
X63014661Y-117879188D02*
X62976566Y-118031569D01*
X62976566Y-118031569D02*
X62900375Y-118107760D01*
X62900375Y-118107760D02*
X62824185Y-118145855D01*
X62824185Y-118145855D02*
X62671804Y-118145855D01*
X62671804Y-118145855D02*
X62595613Y-118107760D01*
X62595613Y-118107760D02*
X62519423Y-118031569D01*
X62519423Y-118031569D02*
X62481327Y-117879188D01*
X62481327Y-117879188D02*
X62481327Y-117612521D01*
X62481327Y-117612521D02*
X62519423Y-117460140D01*
X62519423Y-117460140D02*
X62595613Y-117383950D01*
X62595613Y-117383950D02*
X62671804Y-117345855D01*
X63357518Y-117345855D02*
X63357518Y-117993474D01*
X63357518Y-117993474D02*
X63395613Y-118069664D01*
X63395613Y-118069664D02*
X63433708Y-118107760D01*
X63433708Y-118107760D02*
X63509899Y-118145855D01*
X63509899Y-118145855D02*
X63662280Y-118145855D01*
X63662280Y-118145855D02*
X63738470Y-118107760D01*
X63738470Y-118107760D02*
X63776565Y-118069664D01*
X63776565Y-118069664D02*
X63814661Y-117993474D01*
X63814661Y-117993474D02*
X63814661Y-117345855D01*
X64081327Y-117345855D02*
X64538470Y-117345855D01*
X64309898Y-118145855D02*
X64309898Y-117345855D01*
X65795613Y-118145855D02*
X65414661Y-118145855D01*
X65414661Y-118145855D02*
X65414661Y-117345855D01*
X66214661Y-117345855D02*
X66367042Y-117345855D01*
X66367042Y-117345855D02*
X66443232Y-117383950D01*
X66443232Y-117383950D02*
X66519423Y-117460140D01*
X66519423Y-117460140D02*
X66557518Y-117612521D01*
X66557518Y-117612521D02*
X66557518Y-117879188D01*
X66557518Y-117879188D02*
X66519423Y-118031569D01*
X66519423Y-118031569D02*
X66443232Y-118107760D01*
X66443232Y-118107760D02*
X66367042Y-118145855D01*
X66367042Y-118145855D02*
X66214661Y-118145855D01*
X66214661Y-118145855D02*
X66138470Y-118107760D01*
X66138470Y-118107760D02*
X66062280Y-118031569D01*
X66062280Y-118031569D02*
X66024184Y-117879188D01*
X66024184Y-117879188D02*
X66024184Y-117612521D01*
X66024184Y-117612521D02*
X66062280Y-117460140D01*
X66062280Y-117460140D02*
X66138470Y-117383950D01*
X66138470Y-117383950D02*
X66214661Y-117345855D01*
X66688470Y-108995855D02*
X66231327Y-108995855D01*
X66459899Y-108995855D02*
X66459899Y-108195855D01*
X66459899Y-108195855D02*
X66383708Y-108310140D01*
X66383708Y-108310140D02*
X66307518Y-108386331D01*
X66307518Y-108386331D02*
X66231327Y-108424426D01*
X67488471Y-108995855D02*
X67221804Y-108614902D01*
X67031328Y-108995855D02*
X67031328Y-108195855D01*
X67031328Y-108195855D02*
X67336090Y-108195855D01*
X67336090Y-108195855D02*
X67412280Y-108233950D01*
X67412280Y-108233950D02*
X67450375Y-108272045D01*
X67450375Y-108272045D02*
X67488471Y-108348236D01*
X67488471Y-108348236D02*
X67488471Y-108462521D01*
X67488471Y-108462521D02*
X67450375Y-108538712D01*
X67450375Y-108538712D02*
X67412280Y-108576807D01*
X67412280Y-108576807D02*
X67336090Y-108614902D01*
X67336090Y-108614902D02*
X67031328Y-108614902D01*
X68440852Y-108691093D02*
X69050376Y-108691093D01*
X68745614Y-108995855D02*
X68745614Y-108386331D01*
X69926566Y-108195855D02*
X70383709Y-108195855D01*
X70155137Y-108995855D02*
X70155137Y-108195855D01*
X70650376Y-108995855D02*
X70650376Y-108195855D01*
X70650376Y-108195855D02*
X70917042Y-108767283D01*
X70917042Y-108767283D02*
X71183709Y-108195855D01*
X71183709Y-108195855D02*
X71183709Y-108995855D01*
X71564662Y-108995855D02*
X71564662Y-108195855D01*
X71564662Y-108195855D02*
X71869424Y-108195855D01*
X71869424Y-108195855D02*
X71945614Y-108233950D01*
X71945614Y-108233950D02*
X71983709Y-108272045D01*
X71983709Y-108272045D02*
X72021805Y-108348236D01*
X72021805Y-108348236D02*
X72021805Y-108462521D01*
X72021805Y-108462521D02*
X71983709Y-108538712D01*
X71983709Y-108538712D02*
X71945614Y-108576807D01*
X71945614Y-108576807D02*
X71869424Y-108614902D01*
X71869424Y-108614902D02*
X71564662Y-108614902D01*
X72326566Y-108272045D02*
X72364662Y-108233950D01*
X72364662Y-108233950D02*
X72440852Y-108195855D01*
X72440852Y-108195855D02*
X72631328Y-108195855D01*
X72631328Y-108195855D02*
X72707519Y-108233950D01*
X72707519Y-108233950D02*
X72745614Y-108272045D01*
X72745614Y-108272045D02*
X72783709Y-108348236D01*
X72783709Y-108348236D02*
X72783709Y-108424426D01*
X72783709Y-108424426D02*
X72745614Y-108538712D01*
X72745614Y-108538712D02*
X72288471Y-108995855D01*
X72288471Y-108995855D02*
X72783709Y-108995855D01*
X73050376Y-108195855D02*
X73583710Y-108195855D01*
X73583710Y-108195855D02*
X73240852Y-108995855D01*
X74269424Y-108195855D02*
X73888472Y-108195855D01*
X73888472Y-108195855D02*
X73850376Y-108576807D01*
X73850376Y-108576807D02*
X73888472Y-108538712D01*
X73888472Y-108538712D02*
X73964662Y-108500617D01*
X73964662Y-108500617D02*
X74155138Y-108500617D01*
X74155138Y-108500617D02*
X74231329Y-108538712D01*
X74231329Y-108538712D02*
X74269424Y-108576807D01*
X74269424Y-108576807D02*
X74307519Y-108652998D01*
X74307519Y-108652998D02*
X74307519Y-108843474D01*
X74307519Y-108843474D02*
X74269424Y-108919664D01*
X74269424Y-108919664D02*
X74231329Y-108957760D01*
X74231329Y-108957760D02*
X74155138Y-108995855D01*
X74155138Y-108995855D02*
X73964662Y-108995855D01*
X73964662Y-108995855D02*
X73888472Y-108957760D01*
X73888472Y-108957760D02*
X73850376Y-108919664D01*
X94171804Y-117345855D02*
X94324185Y-117345855D01*
X94324185Y-117345855D02*
X94400375Y-117383950D01*
X94400375Y-117383950D02*
X94476566Y-117460140D01*
X94476566Y-117460140D02*
X94514661Y-117612521D01*
X94514661Y-117612521D02*
X94514661Y-117879188D01*
X94514661Y-117879188D02*
X94476566Y-118031569D01*
X94476566Y-118031569D02*
X94400375Y-118107760D01*
X94400375Y-118107760D02*
X94324185Y-118145855D01*
X94324185Y-118145855D02*
X94171804Y-118145855D01*
X94171804Y-118145855D02*
X94095613Y-118107760D01*
X94095613Y-118107760D02*
X94019423Y-118031569D01*
X94019423Y-118031569D02*
X93981327Y-117879188D01*
X93981327Y-117879188D02*
X93981327Y-117612521D01*
X93981327Y-117612521D02*
X94019423Y-117460140D01*
X94019423Y-117460140D02*
X94095613Y-117383950D01*
X94095613Y-117383950D02*
X94171804Y-117345855D01*
X94857518Y-117345855D02*
X94857518Y-117993474D01*
X94857518Y-117993474D02*
X94895613Y-118069664D01*
X94895613Y-118069664D02*
X94933708Y-118107760D01*
X94933708Y-118107760D02*
X95009899Y-118145855D01*
X95009899Y-118145855D02*
X95162280Y-118145855D01*
X95162280Y-118145855D02*
X95238470Y-118107760D01*
X95238470Y-118107760D02*
X95276565Y-118069664D01*
X95276565Y-118069664D02*
X95314661Y-117993474D01*
X95314661Y-117993474D02*
X95314661Y-117345855D01*
X95581327Y-117345855D02*
X96038470Y-117345855D01*
X95809898Y-118145855D02*
X95809898Y-117345855D01*
X96914661Y-118145855D02*
X96914661Y-117345855D01*
X96914661Y-117726807D02*
X97371804Y-117726807D01*
X97371804Y-118145855D02*
X97371804Y-117345855D01*
X97752756Y-118145855D02*
X97752756Y-117345855D01*
X51145855Y-90230576D02*
X50345855Y-90230576D01*
X50345855Y-90230576D02*
X51145855Y-89773433D01*
X51145855Y-89773433D02*
X50345855Y-89773433D01*
X50345855Y-89240100D02*
X50345855Y-89087719D01*
X50345855Y-89087719D02*
X50383950Y-89011529D01*
X50383950Y-89011529D02*
X50460140Y-88935338D01*
X50460140Y-88935338D02*
X50612521Y-88897243D01*
X50612521Y-88897243D02*
X50879188Y-88897243D01*
X50879188Y-88897243D02*
X51031569Y-88935338D01*
X51031569Y-88935338D02*
X51107760Y-89011529D01*
X51107760Y-89011529D02*
X51145855Y-89087719D01*
X51145855Y-89087719D02*
X51145855Y-89240100D01*
X51145855Y-89240100D02*
X51107760Y-89316291D01*
X51107760Y-89316291D02*
X51031569Y-89392481D01*
X51031569Y-89392481D02*
X50879188Y-89430577D01*
X50879188Y-89430577D02*
X50612521Y-89430577D01*
X50612521Y-89430577D02*
X50460140Y-89392481D01*
X50460140Y-89392481D02*
X50383950Y-89316291D01*
X50383950Y-89316291D02*
X50345855Y-89240100D01*
X51145855Y-88097243D02*
X50764902Y-88363910D01*
X51145855Y-88554386D02*
X50345855Y-88554386D01*
X50345855Y-88554386D02*
X50345855Y-88249624D01*
X50345855Y-88249624D02*
X50383950Y-88173434D01*
X50383950Y-88173434D02*
X50422045Y-88135339D01*
X50422045Y-88135339D02*
X50498236Y-88097243D01*
X50498236Y-88097243D02*
X50612521Y-88097243D01*
X50612521Y-88097243D02*
X50688712Y-88135339D01*
X50688712Y-88135339D02*
X50726807Y-88173434D01*
X50726807Y-88173434D02*
X50764902Y-88249624D01*
X50764902Y-88249624D02*
X50764902Y-88554386D01*
X51145855Y-87754386D02*
X50345855Y-87754386D01*
X50345855Y-87754386D02*
X50917283Y-87487720D01*
X50917283Y-87487720D02*
X50345855Y-87221053D01*
X50345855Y-87221053D02*
X51145855Y-87221053D01*
X51145855Y-86230576D02*
X50345855Y-86230576D01*
X50726807Y-86230576D02*
X50726807Y-85773433D01*
X51145855Y-85773433D02*
X50345855Y-85773433D01*
X51145855Y-85392481D02*
X50345855Y-85392481D01*
X51145855Y-97480576D02*
X50345855Y-97480576D01*
X50345855Y-97480576D02*
X51145855Y-97023433D01*
X51145855Y-97023433D02*
X50345855Y-97023433D01*
X50345855Y-96490100D02*
X50345855Y-96337719D01*
X50345855Y-96337719D02*
X50383950Y-96261529D01*
X50383950Y-96261529D02*
X50460140Y-96185338D01*
X50460140Y-96185338D02*
X50612521Y-96147243D01*
X50612521Y-96147243D02*
X50879188Y-96147243D01*
X50879188Y-96147243D02*
X51031569Y-96185338D01*
X51031569Y-96185338D02*
X51107760Y-96261529D01*
X51107760Y-96261529D02*
X51145855Y-96337719D01*
X51145855Y-96337719D02*
X51145855Y-96490100D01*
X51145855Y-96490100D02*
X51107760Y-96566291D01*
X51107760Y-96566291D02*
X51031569Y-96642481D01*
X51031569Y-96642481D02*
X50879188Y-96680577D01*
X50879188Y-96680577D02*
X50612521Y-96680577D01*
X50612521Y-96680577D02*
X50460140Y-96642481D01*
X50460140Y-96642481D02*
X50383950Y-96566291D01*
X50383950Y-96566291D02*
X50345855Y-96490100D01*
X51145855Y-95347243D02*
X50764902Y-95613910D01*
X51145855Y-95804386D02*
X50345855Y-95804386D01*
X50345855Y-95804386D02*
X50345855Y-95499624D01*
X50345855Y-95499624D02*
X50383950Y-95423434D01*
X50383950Y-95423434D02*
X50422045Y-95385339D01*
X50422045Y-95385339D02*
X50498236Y-95347243D01*
X50498236Y-95347243D02*
X50612521Y-95347243D01*
X50612521Y-95347243D02*
X50688712Y-95385339D01*
X50688712Y-95385339D02*
X50726807Y-95423434D01*
X50726807Y-95423434D02*
X50764902Y-95499624D01*
X50764902Y-95499624D02*
X50764902Y-95804386D01*
X51145855Y-95004386D02*
X50345855Y-95004386D01*
X50345855Y-95004386D02*
X50917283Y-94737720D01*
X50917283Y-94737720D02*
X50345855Y-94471053D01*
X50345855Y-94471053D02*
X51145855Y-94471053D01*
X51145855Y-93099624D02*
X51145855Y-93480576D01*
X51145855Y-93480576D02*
X50345855Y-93480576D01*
X50345855Y-92680576D02*
X50345855Y-92528195D01*
X50345855Y-92528195D02*
X50383950Y-92452005D01*
X50383950Y-92452005D02*
X50460140Y-92375814D01*
X50460140Y-92375814D02*
X50612521Y-92337719D01*
X50612521Y-92337719D02*
X50879188Y-92337719D01*
X50879188Y-92337719D02*
X51031569Y-92375814D01*
X51031569Y-92375814D02*
X51107760Y-92452005D01*
X51107760Y-92452005D02*
X51145855Y-92528195D01*
X51145855Y-92528195D02*
X51145855Y-92680576D01*
X51145855Y-92680576D02*
X51107760Y-92756767D01*
X51107760Y-92756767D02*
X51031569Y-92832957D01*
X51031569Y-92832957D02*
X50879188Y-92871053D01*
X50879188Y-92871053D02*
X50612521Y-92871053D01*
X50612521Y-92871053D02*
X50460140Y-92832957D01*
X50460140Y-92832957D02*
X50383950Y-92756767D01*
X50383950Y-92756767D02*
X50345855Y-92680576D01*
X51719664Y-61873433D02*
X51757760Y-61911529D01*
X51757760Y-61911529D02*
X51795855Y-62025814D01*
X51795855Y-62025814D02*
X51795855Y-62102005D01*
X51795855Y-62102005D02*
X51757760Y-62216291D01*
X51757760Y-62216291D02*
X51681569Y-62292481D01*
X51681569Y-62292481D02*
X51605379Y-62330576D01*
X51605379Y-62330576D02*
X51452998Y-62368672D01*
X51452998Y-62368672D02*
X51338712Y-62368672D01*
X51338712Y-62368672D02*
X51186331Y-62330576D01*
X51186331Y-62330576D02*
X51110140Y-62292481D01*
X51110140Y-62292481D02*
X51033950Y-62216291D01*
X51033950Y-62216291D02*
X50995855Y-62102005D01*
X50995855Y-62102005D02*
X50995855Y-62025814D01*
X50995855Y-62025814D02*
X51033950Y-61911529D01*
X51033950Y-61911529D02*
X51072045Y-61873433D01*
X50995855Y-61378195D02*
X50995855Y-61225814D01*
X50995855Y-61225814D02*
X51033950Y-61149624D01*
X51033950Y-61149624D02*
X51110140Y-61073433D01*
X51110140Y-61073433D02*
X51262521Y-61035338D01*
X51262521Y-61035338D02*
X51529188Y-61035338D01*
X51529188Y-61035338D02*
X51681569Y-61073433D01*
X51681569Y-61073433D02*
X51757760Y-61149624D01*
X51757760Y-61149624D02*
X51795855Y-61225814D01*
X51795855Y-61225814D02*
X51795855Y-61378195D01*
X51795855Y-61378195D02*
X51757760Y-61454386D01*
X51757760Y-61454386D02*
X51681569Y-61530576D01*
X51681569Y-61530576D02*
X51529188Y-61568672D01*
X51529188Y-61568672D02*
X51262521Y-61568672D01*
X51262521Y-61568672D02*
X51110140Y-61530576D01*
X51110140Y-61530576D02*
X51033950Y-61454386D01*
X51033950Y-61454386D02*
X50995855Y-61378195D01*
X51795855Y-60692481D02*
X50995855Y-60692481D01*
X50995855Y-60692481D02*
X51795855Y-60235338D01*
X51795855Y-60235338D02*
X50995855Y-60235338D01*
X50995855Y-59968672D02*
X50995855Y-59511529D01*
X51795855Y-59740101D02*
X50995855Y-59740101D01*
X51795855Y-58787719D02*
X51414902Y-59054386D01*
X51795855Y-59244862D02*
X50995855Y-59244862D01*
X50995855Y-59244862D02*
X50995855Y-58940100D01*
X50995855Y-58940100D02*
X51033950Y-58863910D01*
X51033950Y-58863910D02*
X51072045Y-58825815D01*
X51072045Y-58825815D02*
X51148236Y-58787719D01*
X51148236Y-58787719D02*
X51262521Y-58787719D01*
X51262521Y-58787719D02*
X51338712Y-58825815D01*
X51338712Y-58825815D02*
X51376807Y-58863910D01*
X51376807Y-58863910D02*
X51414902Y-58940100D01*
X51414902Y-58940100D02*
X51414902Y-59244862D01*
X50995855Y-58292481D02*
X50995855Y-58140100D01*
X50995855Y-58140100D02*
X51033950Y-58063910D01*
X51033950Y-58063910D02*
X51110140Y-57987719D01*
X51110140Y-57987719D02*
X51262521Y-57949624D01*
X51262521Y-57949624D02*
X51529188Y-57949624D01*
X51529188Y-57949624D02*
X51681569Y-57987719D01*
X51681569Y-57987719D02*
X51757760Y-58063910D01*
X51757760Y-58063910D02*
X51795855Y-58140100D01*
X51795855Y-58140100D02*
X51795855Y-58292481D01*
X51795855Y-58292481D02*
X51757760Y-58368672D01*
X51757760Y-58368672D02*
X51681569Y-58444862D01*
X51681569Y-58444862D02*
X51529188Y-58482958D01*
X51529188Y-58482958D02*
X51262521Y-58482958D01*
X51262521Y-58482958D02*
X51110140Y-58444862D01*
X51110140Y-58444862D02*
X51033950Y-58368672D01*
X51033950Y-58368672D02*
X50995855Y-58292481D01*
X51795855Y-57225815D02*
X51795855Y-57606767D01*
X51795855Y-57606767D02*
X50995855Y-57606767D01*
X107395855Y-95873433D02*
X107014902Y-96140100D01*
X107395855Y-96330576D02*
X106595855Y-96330576D01*
X106595855Y-96330576D02*
X106595855Y-96025814D01*
X106595855Y-96025814D02*
X106633950Y-95949624D01*
X106633950Y-95949624D02*
X106672045Y-95911529D01*
X106672045Y-95911529D02*
X106748236Y-95873433D01*
X106748236Y-95873433D02*
X106862521Y-95873433D01*
X106862521Y-95873433D02*
X106938712Y-95911529D01*
X106938712Y-95911529D02*
X106976807Y-95949624D01*
X106976807Y-95949624D02*
X107014902Y-96025814D01*
X107014902Y-96025814D02*
X107014902Y-96330576D01*
X107167283Y-95568672D02*
X107167283Y-95187719D01*
X107395855Y-95644862D02*
X106595855Y-95378195D01*
X106595855Y-95378195D02*
X107395855Y-95111529D01*
X107395855Y-94844862D02*
X106595855Y-94844862D01*
X106595855Y-94844862D02*
X107395855Y-94387719D01*
X107395855Y-94387719D02*
X106595855Y-94387719D01*
X106633950Y-93587720D02*
X106595855Y-93663910D01*
X106595855Y-93663910D02*
X106595855Y-93778196D01*
X106595855Y-93778196D02*
X106633950Y-93892482D01*
X106633950Y-93892482D02*
X106710140Y-93968672D01*
X106710140Y-93968672D02*
X106786331Y-94006767D01*
X106786331Y-94006767D02*
X106938712Y-94044863D01*
X106938712Y-94044863D02*
X107052998Y-94044863D01*
X107052998Y-94044863D02*
X107205379Y-94006767D01*
X107205379Y-94006767D02*
X107281569Y-93968672D01*
X107281569Y-93968672D02*
X107357760Y-93892482D01*
X107357760Y-93892482D02*
X107395855Y-93778196D01*
X107395855Y-93778196D02*
X107395855Y-93702005D01*
X107395855Y-93702005D02*
X107357760Y-93587720D01*
X107357760Y-93587720D02*
X107319664Y-93549624D01*
X107319664Y-93549624D02*
X107052998Y-93549624D01*
X107052998Y-93549624D02*
X107052998Y-93702005D01*
X106976807Y-93206767D02*
X106976807Y-92940101D01*
X107395855Y-92825815D02*
X107395855Y-93206767D01*
X107395855Y-93206767D02*
X106595855Y-93206767D01*
X106595855Y-93206767D02*
X106595855Y-92825815D01*
X107319664Y-91416290D02*
X107357760Y-91454386D01*
X107357760Y-91454386D02*
X107395855Y-91568671D01*
X107395855Y-91568671D02*
X107395855Y-91644862D01*
X107395855Y-91644862D02*
X107357760Y-91759148D01*
X107357760Y-91759148D02*
X107281569Y-91835338D01*
X107281569Y-91835338D02*
X107205379Y-91873433D01*
X107205379Y-91873433D02*
X107052998Y-91911529D01*
X107052998Y-91911529D02*
X106938712Y-91911529D01*
X106938712Y-91911529D02*
X106786331Y-91873433D01*
X106786331Y-91873433D02*
X106710140Y-91835338D01*
X106710140Y-91835338D02*
X106633950Y-91759148D01*
X106633950Y-91759148D02*
X106595855Y-91644862D01*
X106595855Y-91644862D02*
X106595855Y-91568671D01*
X106595855Y-91568671D02*
X106633950Y-91454386D01*
X106633950Y-91454386D02*
X106672045Y-91416290D01*
X106976807Y-91073433D02*
X106976807Y-90806767D01*
X107395855Y-90692481D02*
X107395855Y-91073433D01*
X107395855Y-91073433D02*
X106595855Y-91073433D01*
X106595855Y-91073433D02*
X106595855Y-90692481D01*
X107395855Y-89968671D02*
X107395855Y-90349623D01*
X107395855Y-90349623D02*
X106595855Y-90349623D01*
X107395855Y-89321052D02*
X107395855Y-89702004D01*
X107395855Y-89702004D02*
X106595855Y-89702004D01*
X107357760Y-89092481D02*
X107395855Y-88978195D01*
X107395855Y-88978195D02*
X107395855Y-88787719D01*
X107395855Y-88787719D02*
X107357760Y-88711528D01*
X107357760Y-88711528D02*
X107319664Y-88673433D01*
X107319664Y-88673433D02*
X107243474Y-88635338D01*
X107243474Y-88635338D02*
X107167283Y-88635338D01*
X107167283Y-88635338D02*
X107091093Y-88673433D01*
X107091093Y-88673433D02*
X107052998Y-88711528D01*
X107052998Y-88711528D02*
X107014902Y-88787719D01*
X107014902Y-88787719D02*
X106976807Y-88940100D01*
X106976807Y-88940100D02*
X106938712Y-89016290D01*
X106938712Y-89016290D02*
X106900617Y-89054385D01*
X106900617Y-89054385D02*
X106824426Y-89092481D01*
X106824426Y-89092481D02*
X106748236Y-89092481D01*
X106748236Y-89092481D02*
X106672045Y-89054385D01*
X106672045Y-89054385D02*
X106633950Y-89016290D01*
X106633950Y-89016290D02*
X106595855Y-88940100D01*
X106595855Y-88940100D02*
X106595855Y-88749623D01*
X106595855Y-88749623D02*
X106633950Y-88635338D01*
D11*
X51553884Y-107235864D02*
X51553884Y-107902531D01*
X51553884Y-107331102D02*
X51601503Y-107283483D01*
X51601503Y-107283483D02*
X51696741Y-107235864D01*
X51696741Y-107235864D02*
X51839598Y-107235864D01*
X51839598Y-107235864D02*
X51934836Y-107283483D01*
X51934836Y-107283483D02*
X51982455Y-107378721D01*
X51982455Y-107378721D02*
X51982455Y-107902531D01*
X52887217Y-107902531D02*
X52887217Y-107378721D01*
X52887217Y-107378721D02*
X52839598Y-107283483D01*
X52839598Y-107283483D02*
X52744360Y-107235864D01*
X52744360Y-107235864D02*
X52553884Y-107235864D01*
X52553884Y-107235864D02*
X52458646Y-107283483D01*
X52887217Y-107854912D02*
X52791979Y-107902531D01*
X52791979Y-107902531D02*
X52553884Y-107902531D01*
X52553884Y-107902531D02*
X52458646Y-107854912D01*
X52458646Y-107854912D02*
X52411027Y-107759673D01*
X52411027Y-107759673D02*
X52411027Y-107664435D01*
X52411027Y-107664435D02*
X52458646Y-107569197D01*
X52458646Y-107569197D02*
X52553884Y-107521578D01*
X52553884Y-107521578D02*
X52791979Y-107521578D01*
X52791979Y-107521578D02*
X52887217Y-107473959D01*
X53363408Y-107235864D02*
X53363408Y-107902531D01*
X53363408Y-107331102D02*
X53411027Y-107283483D01*
X53411027Y-107283483D02*
X53506265Y-107235864D01*
X53506265Y-107235864D02*
X53649122Y-107235864D01*
X53649122Y-107235864D02*
X53744360Y-107283483D01*
X53744360Y-107283483D02*
X53791979Y-107378721D01*
X53791979Y-107378721D02*
X53791979Y-107902531D01*
X54411027Y-107902531D02*
X54315789Y-107854912D01*
X54315789Y-107854912D02*
X54268170Y-107807292D01*
X54268170Y-107807292D02*
X54220551Y-107712054D01*
X54220551Y-107712054D02*
X54220551Y-107426340D01*
X54220551Y-107426340D02*
X54268170Y-107331102D01*
X54268170Y-107331102D02*
X54315789Y-107283483D01*
X54315789Y-107283483D02*
X54411027Y-107235864D01*
X54411027Y-107235864D02*
X54553884Y-107235864D01*
X54553884Y-107235864D02*
X54649122Y-107283483D01*
X54649122Y-107283483D02*
X54696741Y-107331102D01*
X54696741Y-107331102D02*
X54744360Y-107426340D01*
X54744360Y-107426340D02*
X54744360Y-107712054D01*
X54744360Y-107712054D02*
X54696741Y-107807292D01*
X54696741Y-107807292D02*
X54649122Y-107854912D01*
X54649122Y-107854912D02*
X54553884Y-107902531D01*
X54553884Y-107902531D02*
X54411027Y-107902531D01*
X55077694Y-107235864D02*
X55315789Y-107902531D01*
X55315789Y-107902531D02*
X55553884Y-107235864D01*
X56077694Y-107902531D02*
X55982456Y-107854912D01*
X55982456Y-107854912D02*
X55934837Y-107807292D01*
X55934837Y-107807292D02*
X55887218Y-107712054D01*
X55887218Y-107712054D02*
X55887218Y-107426340D01*
X55887218Y-107426340D02*
X55934837Y-107331102D01*
X55934837Y-107331102D02*
X55982456Y-107283483D01*
X55982456Y-107283483D02*
X56077694Y-107235864D01*
X56077694Y-107235864D02*
X56220551Y-107235864D01*
X56220551Y-107235864D02*
X56315789Y-107283483D01*
X56315789Y-107283483D02*
X56363408Y-107331102D01*
X56363408Y-107331102D02*
X56411027Y-107426340D01*
X56411027Y-107426340D02*
X56411027Y-107712054D01*
X56411027Y-107712054D02*
X56363408Y-107807292D01*
X56363408Y-107807292D02*
X56315789Y-107854912D01*
X56315789Y-107854912D02*
X56220551Y-107902531D01*
X56220551Y-107902531D02*
X56077694Y-107902531D01*
X56982456Y-107902531D02*
X56887218Y-107854912D01*
X56887218Y-107854912D02*
X56839599Y-107759673D01*
X56839599Y-107759673D02*
X56839599Y-106902531D01*
X57220552Y-107235864D02*
X57601504Y-107235864D01*
X57363409Y-106902531D02*
X57363409Y-107759673D01*
X57363409Y-107759673D02*
X57411028Y-107854912D01*
X57411028Y-107854912D02*
X57506266Y-107902531D01*
X57506266Y-107902531D02*
X57601504Y-107902531D01*
X57934838Y-107521578D02*
X58696743Y-107521578D01*
X59601504Y-107902531D02*
X59601504Y-106902531D01*
X59601504Y-107854912D02*
X59506266Y-107902531D01*
X59506266Y-107902531D02*
X59315790Y-107902531D01*
X59315790Y-107902531D02*
X59220552Y-107854912D01*
X59220552Y-107854912D02*
X59172933Y-107807292D01*
X59172933Y-107807292D02*
X59125314Y-107712054D01*
X59125314Y-107712054D02*
X59125314Y-107426340D01*
X59125314Y-107426340D02*
X59172933Y-107331102D01*
X59172933Y-107331102D02*
X59220552Y-107283483D01*
X59220552Y-107283483D02*
X59315790Y-107235864D01*
X59315790Y-107235864D02*
X59506266Y-107235864D01*
X59506266Y-107235864D02*
X59601504Y-107283483D01*
X60077695Y-107902531D02*
X60077695Y-107235864D01*
X60077695Y-106902531D02*
X60030076Y-106950150D01*
X60030076Y-106950150D02*
X60077695Y-106997769D01*
X60077695Y-106997769D02*
X60125314Y-106950150D01*
X60125314Y-106950150D02*
X60077695Y-106902531D01*
X60077695Y-106902531D02*
X60077695Y-106997769D01*
X60458647Y-107235864D02*
X60696742Y-107902531D01*
X60696742Y-107902531D02*
X60934837Y-107235864D01*
X61315790Y-107902531D02*
X61315790Y-107235864D01*
X61315790Y-106902531D02*
X61268171Y-106950150D01*
X61268171Y-106950150D02*
X61315790Y-106997769D01*
X61315790Y-106997769D02*
X61363409Y-106950150D01*
X61363409Y-106950150D02*
X61315790Y-106902531D01*
X61315790Y-106902531D02*
X61315790Y-106997769D01*
X62220551Y-107902531D02*
X62220551Y-106902531D01*
X62220551Y-107854912D02*
X62125313Y-107902531D01*
X62125313Y-107902531D02*
X61934837Y-107902531D01*
X61934837Y-107902531D02*
X61839599Y-107854912D01*
X61839599Y-107854912D02*
X61791980Y-107807292D01*
X61791980Y-107807292D02*
X61744361Y-107712054D01*
X61744361Y-107712054D02*
X61744361Y-107426340D01*
X61744361Y-107426340D02*
X61791980Y-107331102D01*
X61791980Y-107331102D02*
X61839599Y-107283483D01*
X61839599Y-107283483D02*
X61934837Y-107235864D01*
X61934837Y-107235864D02*
X62125313Y-107235864D01*
X62125313Y-107235864D02*
X62220551Y-107283483D01*
X63077694Y-107854912D02*
X62982456Y-107902531D01*
X62982456Y-107902531D02*
X62791980Y-107902531D01*
X62791980Y-107902531D02*
X62696742Y-107854912D01*
X62696742Y-107854912D02*
X62649123Y-107759673D01*
X62649123Y-107759673D02*
X62649123Y-107378721D01*
X62649123Y-107378721D02*
X62696742Y-107283483D01*
X62696742Y-107283483D02*
X62791980Y-107235864D01*
X62791980Y-107235864D02*
X62982456Y-107235864D01*
X62982456Y-107235864D02*
X63077694Y-107283483D01*
X63077694Y-107283483D02*
X63125313Y-107378721D01*
X63125313Y-107378721D02*
X63125313Y-107473959D01*
X63125313Y-107473959D02*
X62649123Y-107569197D01*
X63553885Y-107902531D02*
X63553885Y-107235864D01*
X63553885Y-107426340D02*
X63601504Y-107331102D01*
X63601504Y-107331102D02*
X63649123Y-107283483D01*
X63649123Y-107283483D02*
X63744361Y-107235864D01*
X63744361Y-107235864D02*
X63839599Y-107235864D01*
X52125312Y-109512475D02*
X51791979Y-109036284D01*
X51553884Y-109512475D02*
X51553884Y-108512475D01*
X51553884Y-108512475D02*
X51934836Y-108512475D01*
X51934836Y-108512475D02*
X52030074Y-108560094D01*
X52030074Y-108560094D02*
X52077693Y-108607713D01*
X52077693Y-108607713D02*
X52125312Y-108702951D01*
X52125312Y-108702951D02*
X52125312Y-108845808D01*
X52125312Y-108845808D02*
X52077693Y-108941046D01*
X52077693Y-108941046D02*
X52030074Y-108988665D01*
X52030074Y-108988665D02*
X51934836Y-109036284D01*
X51934836Y-109036284D02*
X51553884Y-109036284D01*
X52934836Y-109464856D02*
X52839598Y-109512475D01*
X52839598Y-109512475D02*
X52649122Y-109512475D01*
X52649122Y-109512475D02*
X52553884Y-109464856D01*
X52553884Y-109464856D02*
X52506265Y-109369617D01*
X52506265Y-109369617D02*
X52506265Y-108988665D01*
X52506265Y-108988665D02*
X52553884Y-108893427D01*
X52553884Y-108893427D02*
X52649122Y-108845808D01*
X52649122Y-108845808D02*
X52839598Y-108845808D01*
X52839598Y-108845808D02*
X52934836Y-108893427D01*
X52934836Y-108893427D02*
X52982455Y-108988665D01*
X52982455Y-108988665D02*
X52982455Y-109083903D01*
X52982455Y-109083903D02*
X52506265Y-109179141D01*
X53315789Y-108845808D02*
X53553884Y-109512475D01*
X53553884Y-109512475D02*
X53791979Y-108845808D01*
X54887218Y-109226760D02*
X55363408Y-109226760D01*
X54791980Y-109512475D02*
X55125313Y-108512475D01*
X55125313Y-108512475D02*
X55458646Y-109512475D01*
X56839599Y-109036284D02*
X56839599Y-109226760D01*
X56887218Y-109226760D02*
X56887218Y-109036284D01*
X56934837Y-108988665D02*
X56934837Y-109274379D01*
X56982456Y-109226760D02*
X56982456Y-109036284D01*
X57030075Y-109036284D02*
X57030075Y-109226760D01*
X56839599Y-109179141D02*
X56934837Y-109274379D01*
X56934837Y-109274379D02*
X57030075Y-109179141D01*
X56839599Y-109083903D02*
X56934837Y-108988665D01*
X56934837Y-108988665D02*
X57030075Y-109083903D01*
X56839599Y-109036284D02*
X56934837Y-108988665D01*
X56934837Y-108988665D02*
X57030075Y-109036284D01*
X57030075Y-109036284D02*
X57077694Y-109131522D01*
X57077694Y-109131522D02*
X57030075Y-109226760D01*
X57030075Y-109226760D02*
X56934837Y-109274379D01*
X56934837Y-109274379D02*
X56839599Y-109226760D01*
X56839599Y-109226760D02*
X56791980Y-109131522D01*
X56791980Y-109131522D02*
X56839599Y-109036284D01*
X58506266Y-108607713D02*
X58553885Y-108560094D01*
X58553885Y-108560094D02*
X58649123Y-108512475D01*
X58649123Y-108512475D02*
X58887218Y-108512475D01*
X58887218Y-108512475D02*
X58982456Y-108560094D01*
X58982456Y-108560094D02*
X59030075Y-108607713D01*
X59030075Y-108607713D02*
X59077694Y-108702951D01*
X59077694Y-108702951D02*
X59077694Y-108798189D01*
X59077694Y-108798189D02*
X59030075Y-108941046D01*
X59030075Y-108941046D02*
X58458647Y-109512475D01*
X58458647Y-109512475D02*
X59077694Y-109512475D01*
X59696742Y-108512475D02*
X59791980Y-108512475D01*
X59791980Y-108512475D02*
X59887218Y-108560094D01*
X59887218Y-108560094D02*
X59934837Y-108607713D01*
X59934837Y-108607713D02*
X59982456Y-108702951D01*
X59982456Y-108702951D02*
X60030075Y-108893427D01*
X60030075Y-108893427D02*
X60030075Y-109131522D01*
X60030075Y-109131522D02*
X59982456Y-109321998D01*
X59982456Y-109321998D02*
X59934837Y-109417236D01*
X59934837Y-109417236D02*
X59887218Y-109464856D01*
X59887218Y-109464856D02*
X59791980Y-109512475D01*
X59791980Y-109512475D02*
X59696742Y-109512475D01*
X59696742Y-109512475D02*
X59601504Y-109464856D01*
X59601504Y-109464856D02*
X59553885Y-109417236D01*
X59553885Y-109417236D02*
X59506266Y-109321998D01*
X59506266Y-109321998D02*
X59458647Y-109131522D01*
X59458647Y-109131522D02*
X59458647Y-108893427D01*
X59458647Y-108893427D02*
X59506266Y-108702951D01*
X59506266Y-108702951D02*
X59553885Y-108607713D01*
X59553885Y-108607713D02*
X59601504Y-108560094D01*
X59601504Y-108560094D02*
X59696742Y-108512475D01*
X60411028Y-108607713D02*
X60458647Y-108560094D01*
X60458647Y-108560094D02*
X60553885Y-108512475D01*
X60553885Y-108512475D02*
X60791980Y-108512475D01*
X60791980Y-108512475D02*
X60887218Y-108560094D01*
X60887218Y-108560094D02*
X60934837Y-108607713D01*
X60934837Y-108607713D02*
X60982456Y-108702951D01*
X60982456Y-108702951D02*
X60982456Y-108798189D01*
X60982456Y-108798189D02*
X60934837Y-108941046D01*
X60934837Y-108941046D02*
X60363409Y-109512475D01*
X60363409Y-109512475D02*
X60982456Y-109512475D01*
X61839599Y-108512475D02*
X61649123Y-108512475D01*
X61649123Y-108512475D02*
X61553885Y-108560094D01*
X61553885Y-108560094D02*
X61506266Y-108607713D01*
X61506266Y-108607713D02*
X61411028Y-108750570D01*
X61411028Y-108750570D02*
X61363409Y-108941046D01*
X61363409Y-108941046D02*
X61363409Y-109321998D01*
X61363409Y-109321998D02*
X61411028Y-109417236D01*
X61411028Y-109417236D02*
X61458647Y-109464856D01*
X61458647Y-109464856D02*
X61553885Y-109512475D01*
X61553885Y-109512475D02*
X61744361Y-109512475D01*
X61744361Y-109512475D02*
X61839599Y-109464856D01*
X61839599Y-109464856D02*
X61887218Y-109417236D01*
X61887218Y-109417236D02*
X61934837Y-109321998D01*
X61934837Y-109321998D02*
X61934837Y-109083903D01*
X61934837Y-109083903D02*
X61887218Y-108988665D01*
X61887218Y-108988665D02*
X61839599Y-108941046D01*
X61839599Y-108941046D02*
X61744361Y-108893427D01*
X61744361Y-108893427D02*
X61553885Y-108893427D01*
X61553885Y-108893427D02*
X61458647Y-108941046D01*
X61458647Y-108941046D02*
X61411028Y-108988665D01*
X61411028Y-108988665D02*
X61363409Y-109083903D01*
X51553884Y-111122419D02*
X51553884Y-110122419D01*
X52458645Y-110455752D02*
X52458645Y-111265276D01*
X52458645Y-111265276D02*
X52411026Y-111360514D01*
X52411026Y-111360514D02*
X52363407Y-111408133D01*
X52363407Y-111408133D02*
X52268169Y-111455752D01*
X52268169Y-111455752D02*
X52125312Y-111455752D01*
X52125312Y-111455752D02*
X52030074Y-111408133D01*
X52458645Y-111074800D02*
X52363407Y-111122419D01*
X52363407Y-111122419D02*
X52172931Y-111122419D01*
X52172931Y-111122419D02*
X52077693Y-111074800D01*
X52077693Y-111074800D02*
X52030074Y-111027180D01*
X52030074Y-111027180D02*
X51982455Y-110931942D01*
X51982455Y-110931942D02*
X51982455Y-110646228D01*
X51982455Y-110646228D02*
X52030074Y-110550990D01*
X52030074Y-110550990D02*
X52077693Y-110503371D01*
X52077693Y-110503371D02*
X52172931Y-110455752D01*
X52172931Y-110455752D02*
X52363407Y-110455752D01*
X52363407Y-110455752D02*
X52458645Y-110503371D01*
X53077693Y-111122419D02*
X52982455Y-111074800D01*
X52982455Y-111074800D02*
X52934836Y-111027180D01*
X52934836Y-111027180D02*
X52887217Y-110931942D01*
X52887217Y-110931942D02*
X52887217Y-110646228D01*
X52887217Y-110646228D02*
X52934836Y-110550990D01*
X52934836Y-110550990D02*
X52982455Y-110503371D01*
X52982455Y-110503371D02*
X53077693Y-110455752D01*
X53077693Y-110455752D02*
X53220550Y-110455752D01*
X53220550Y-110455752D02*
X53315788Y-110503371D01*
X53315788Y-110503371D02*
X53363407Y-110550990D01*
X53363407Y-110550990D02*
X53411026Y-110646228D01*
X53411026Y-110646228D02*
X53411026Y-110931942D01*
X53411026Y-110931942D02*
X53363407Y-111027180D01*
X53363407Y-111027180D02*
X53315788Y-111074800D01*
X53315788Y-111074800D02*
X53220550Y-111122419D01*
X53220550Y-111122419D02*
X53077693Y-111122419D01*
X53839598Y-111122419D02*
X53839598Y-110455752D01*
X53839598Y-110646228D02*
X53887217Y-110550990D01*
X53887217Y-110550990D02*
X53934836Y-110503371D01*
X53934836Y-110503371D02*
X54030074Y-110455752D01*
X54030074Y-110455752D02*
X54125312Y-110455752D01*
X55220551Y-111122419D02*
X55220551Y-110122419D01*
X55791979Y-111122419D02*
X55363408Y-110550990D01*
X55791979Y-110122419D02*
X55220551Y-110693847D01*
X56649122Y-110455752D02*
X56649122Y-111122419D01*
X56220551Y-110455752D02*
X56220551Y-110979561D01*
X56220551Y-110979561D02*
X56268170Y-111074800D01*
X56268170Y-111074800D02*
X56363408Y-111122419D01*
X56363408Y-111122419D02*
X56506265Y-111122419D01*
X56506265Y-111122419D02*
X56601503Y-111074800D01*
X56601503Y-111074800D02*
X56649122Y-111027180D01*
X57030075Y-110455752D02*
X57268170Y-111122419D01*
X57268170Y-111122419D02*
X57506265Y-110455752D01*
X57791980Y-110455752D02*
X58030075Y-111122419D01*
X58268170Y-110455752D02*
X58030075Y-111122419D01*
X58030075Y-111122419D02*
X57934837Y-111360514D01*
X57934837Y-111360514D02*
X57887218Y-111408133D01*
X57887218Y-111408133D02*
X57791980Y-111455752D01*
X59077694Y-111074800D02*
X58982456Y-111122419D01*
X58982456Y-111122419D02*
X58791980Y-111122419D01*
X58791980Y-111122419D02*
X58696742Y-111074800D01*
X58696742Y-111074800D02*
X58649123Y-111027180D01*
X58649123Y-111027180D02*
X58601504Y-110931942D01*
X58601504Y-110931942D02*
X58601504Y-110646228D01*
X58601504Y-110646228D02*
X58649123Y-110550990D01*
X58649123Y-110550990D02*
X58696742Y-110503371D01*
X58696742Y-110503371D02*
X58791980Y-110455752D01*
X58791980Y-110455752D02*
X58982456Y-110455752D01*
X58982456Y-110455752D02*
X59077694Y-110503371D01*
X59506266Y-111122419D02*
X59506266Y-110122419D01*
X59934837Y-111122419D02*
X59934837Y-110598609D01*
X59934837Y-110598609D02*
X59887218Y-110503371D01*
X59887218Y-110503371D02*
X59791980Y-110455752D01*
X59791980Y-110455752D02*
X59649123Y-110455752D01*
X59649123Y-110455752D02*
X59553885Y-110503371D01*
X59553885Y-110503371D02*
X59506266Y-110550990D01*
X60411028Y-111122419D02*
X60411028Y-110122419D01*
X60506266Y-110741466D02*
X60791980Y-111122419D01*
X60791980Y-110455752D02*
X60411028Y-110836704D01*
X61363409Y-111122419D02*
X61268171Y-111074800D01*
X61268171Y-111074800D02*
X61220552Y-111027180D01*
X61220552Y-111027180D02*
X61172933Y-110931942D01*
X61172933Y-110931942D02*
X61172933Y-110646228D01*
X61172933Y-110646228D02*
X61220552Y-110550990D01*
X61220552Y-110550990D02*
X61268171Y-110503371D01*
X61268171Y-110503371D02*
X61363409Y-110455752D01*
X61363409Y-110455752D02*
X61506266Y-110455752D01*
X61506266Y-110455752D02*
X61601504Y-110503371D01*
X61601504Y-110503371D02*
X61649123Y-110550990D01*
X61649123Y-110550990D02*
X61696742Y-110646228D01*
X61696742Y-110646228D02*
X61696742Y-110931942D01*
X61696742Y-110931942D02*
X61649123Y-111027180D01*
X61649123Y-111027180D02*
X61601504Y-111074800D01*
X61601504Y-111074800D02*
X61506266Y-111122419D01*
X61506266Y-111122419D02*
X61363409Y-111122419D01*
D12*
X86654819Y-80538094D02*
X85654819Y-80538094D01*
X85654819Y-80538094D02*
X85654819Y-80299999D01*
X85654819Y-80299999D02*
X85702438Y-80157142D01*
X85702438Y-80157142D02*
X85797676Y-80061904D01*
X85797676Y-80061904D02*
X85892914Y-80014285D01*
X85892914Y-80014285D02*
X86083390Y-79966666D01*
X86083390Y-79966666D02*
X86226247Y-79966666D01*
X86226247Y-79966666D02*
X86416723Y-80014285D01*
X86416723Y-80014285D02*
X86511961Y-80061904D01*
X86511961Y-80061904D02*
X86607200Y-80157142D01*
X86607200Y-80157142D02*
X86654819Y-80299999D01*
X86654819Y-80299999D02*
X86654819Y-80538094D01*
X85654819Y-79061904D02*
X85654819Y-79538094D01*
X85654819Y-79538094D02*
X86131009Y-79585713D01*
X86131009Y-79585713D02*
X86083390Y-79538094D01*
X86083390Y-79538094D02*
X86035771Y-79442856D01*
X86035771Y-79442856D02*
X86035771Y-79204761D01*
X86035771Y-79204761D02*
X86083390Y-79109523D01*
X86083390Y-79109523D02*
X86131009Y-79061904D01*
X86131009Y-79061904D02*
X86226247Y-79014285D01*
X86226247Y-79014285D02*
X86464342Y-79014285D01*
X86464342Y-79014285D02*
X86559580Y-79061904D01*
X86559580Y-79061904D02*
X86607200Y-79109523D01*
X86607200Y-79109523D02*
X86654819Y-79204761D01*
X86654819Y-79204761D02*
X86654819Y-79442856D01*
X86654819Y-79442856D02*
X86607200Y-79538094D01*
X86607200Y-79538094D02*
X86559580Y-79585713D01*
X90654819Y-80538094D02*
X89654819Y-80538094D01*
X89654819Y-80538094D02*
X89654819Y-80299999D01*
X89654819Y-80299999D02*
X89702438Y-80157142D01*
X89702438Y-80157142D02*
X89797676Y-80061904D01*
X89797676Y-80061904D02*
X89892914Y-80014285D01*
X89892914Y-80014285D02*
X90083390Y-79966666D01*
X90083390Y-79966666D02*
X90226247Y-79966666D01*
X90226247Y-79966666D02*
X90416723Y-80014285D01*
X90416723Y-80014285D02*
X90511961Y-80061904D01*
X90511961Y-80061904D02*
X90607200Y-80157142D01*
X90607200Y-80157142D02*
X90654819Y-80299999D01*
X90654819Y-80299999D02*
X90654819Y-80538094D01*
X89654819Y-79109523D02*
X89654819Y-79299999D01*
X89654819Y-79299999D02*
X89702438Y-79395237D01*
X89702438Y-79395237D02*
X89750057Y-79442856D01*
X89750057Y-79442856D02*
X89892914Y-79538094D01*
X89892914Y-79538094D02*
X90083390Y-79585713D01*
X90083390Y-79585713D02*
X90464342Y-79585713D01*
X90464342Y-79585713D02*
X90559580Y-79538094D01*
X90559580Y-79538094D02*
X90607200Y-79490475D01*
X90607200Y-79490475D02*
X90654819Y-79395237D01*
X90654819Y-79395237D02*
X90654819Y-79204761D01*
X90654819Y-79204761D02*
X90607200Y-79109523D01*
X90607200Y-79109523D02*
X90559580Y-79061904D01*
X90559580Y-79061904D02*
X90464342Y-79014285D01*
X90464342Y-79014285D02*
X90226247Y-79014285D01*
X90226247Y-79014285D02*
X90131009Y-79061904D01*
X90131009Y-79061904D02*
X90083390Y-79109523D01*
X90083390Y-79109523D02*
X90035771Y-79204761D01*
X90035771Y-79204761D02*
X90035771Y-79395237D01*
X90035771Y-79395237D02*
X90083390Y-79490475D01*
X90083390Y-79490475D02*
X90131009Y-79538094D01*
X90131009Y-79538094D02*
X90226247Y-79585713D01*
X101224819Y-54742857D02*
X100748628Y-55076190D01*
X101224819Y-55314285D02*
X100224819Y-55314285D01*
X100224819Y-55314285D02*
X100224819Y-54933333D01*
X100224819Y-54933333D02*
X100272438Y-54838095D01*
X100272438Y-54838095D02*
X100320057Y-54790476D01*
X100320057Y-54790476D02*
X100415295Y-54742857D01*
X100415295Y-54742857D02*
X100558152Y-54742857D01*
X100558152Y-54742857D02*
X100653390Y-54790476D01*
X100653390Y-54790476D02*
X100701009Y-54838095D01*
X100701009Y-54838095D02*
X100748628Y-54933333D01*
X100748628Y-54933333D02*
X100748628Y-55314285D01*
X100320057Y-54361904D02*
X100272438Y-54314285D01*
X100272438Y-54314285D02*
X100224819Y-54219047D01*
X100224819Y-54219047D02*
X100224819Y-53980952D01*
X100224819Y-53980952D02*
X100272438Y-53885714D01*
X100272438Y-53885714D02*
X100320057Y-53838095D01*
X100320057Y-53838095D02*
X100415295Y-53790476D01*
X100415295Y-53790476D02*
X100510533Y-53790476D01*
X100510533Y-53790476D02*
X100653390Y-53838095D01*
X100653390Y-53838095D02*
X101224819Y-54409523D01*
X101224819Y-54409523D02*
X101224819Y-53790476D01*
X100224819Y-53457142D02*
X100224819Y-52838095D01*
X100224819Y-52838095D02*
X100605771Y-53171428D01*
X100605771Y-53171428D02*
X100605771Y-53028571D01*
X100605771Y-53028571D02*
X100653390Y-52933333D01*
X100653390Y-52933333D02*
X100701009Y-52885714D01*
X100701009Y-52885714D02*
X100796247Y-52838095D01*
X100796247Y-52838095D02*
X101034342Y-52838095D01*
X101034342Y-52838095D02*
X101129580Y-52885714D01*
X101129580Y-52885714D02*
X101177200Y-52933333D01*
X101177200Y-52933333D02*
X101224819Y-53028571D01*
X101224819Y-53028571D02*
X101224819Y-53314285D01*
X101224819Y-53314285D02*
X101177200Y-53409523D01*
X101177200Y-53409523D02*
X101129580Y-53457142D01*
X84284819Y-66766666D02*
X83808628Y-67099999D01*
X84284819Y-67338094D02*
X83284819Y-67338094D01*
X83284819Y-67338094D02*
X83284819Y-66957142D01*
X83284819Y-66957142D02*
X83332438Y-66861904D01*
X83332438Y-66861904D02*
X83380057Y-66814285D01*
X83380057Y-66814285D02*
X83475295Y-66766666D01*
X83475295Y-66766666D02*
X83618152Y-66766666D01*
X83618152Y-66766666D02*
X83713390Y-66814285D01*
X83713390Y-66814285D02*
X83761009Y-66861904D01*
X83761009Y-66861904D02*
X83808628Y-66957142D01*
X83808628Y-66957142D02*
X83808628Y-67338094D01*
X83284819Y-66433332D02*
X83284819Y-65766666D01*
X83284819Y-65766666D02*
X84284819Y-66195237D01*
X95166666Y-112934819D02*
X95166666Y-113649104D01*
X95166666Y-113649104D02*
X95119047Y-113791961D01*
X95119047Y-113791961D02*
X95023809Y-113887200D01*
X95023809Y-113887200D02*
X94880952Y-113934819D01*
X94880952Y-113934819D02*
X94785714Y-113934819D01*
X96119047Y-112934819D02*
X95642857Y-112934819D01*
X95642857Y-112934819D02*
X95595238Y-113411009D01*
X95595238Y-113411009D02*
X95642857Y-113363390D01*
X95642857Y-113363390D02*
X95738095Y-113315771D01*
X95738095Y-113315771D02*
X95976190Y-113315771D01*
X95976190Y-113315771D02*
X96071428Y-113363390D01*
X96071428Y-113363390D02*
X96119047Y-113411009D01*
X96119047Y-113411009D02*
X96166666Y-113506247D01*
X96166666Y-113506247D02*
X96166666Y-113744342D01*
X96166666Y-113744342D02*
X96119047Y-113839580D01*
X96119047Y-113839580D02*
X96071428Y-113887200D01*
X96071428Y-113887200D02*
X95976190Y-113934819D01*
X95976190Y-113934819D02*
X95738095Y-113934819D01*
X95738095Y-113934819D02*
X95642857Y-113887200D01*
X95642857Y-113887200D02*
X95595238Y-113839580D01*
X98304761Y-73750057D02*
X98209523Y-73702438D01*
X98209523Y-73702438D02*
X98114285Y-73607200D01*
X98114285Y-73607200D02*
X97971428Y-73464342D01*
X97971428Y-73464342D02*
X97876190Y-73416723D01*
X97876190Y-73416723D02*
X97780952Y-73416723D01*
X97828571Y-73654819D02*
X97733333Y-73607200D01*
X97733333Y-73607200D02*
X97638095Y-73511961D01*
X97638095Y-73511961D02*
X97590476Y-73321485D01*
X97590476Y-73321485D02*
X97590476Y-72988152D01*
X97590476Y-72988152D02*
X97638095Y-72797676D01*
X97638095Y-72797676D02*
X97733333Y-72702438D01*
X97733333Y-72702438D02*
X97828571Y-72654819D01*
X97828571Y-72654819D02*
X98019047Y-72654819D01*
X98019047Y-72654819D02*
X98114285Y-72702438D01*
X98114285Y-72702438D02*
X98209523Y-72797676D01*
X98209523Y-72797676D02*
X98257142Y-72988152D01*
X98257142Y-72988152D02*
X98257142Y-73321485D01*
X98257142Y-73321485D02*
X98209523Y-73511961D01*
X98209523Y-73511961D02*
X98114285Y-73607200D01*
X98114285Y-73607200D02*
X98019047Y-73654819D01*
X98019047Y-73654819D02*
X97828571Y-73654819D01*
X98733333Y-73654819D02*
X98923809Y-73654819D01*
X98923809Y-73654819D02*
X99019047Y-73607200D01*
X99019047Y-73607200D02*
X99066666Y-73559580D01*
X99066666Y-73559580D02*
X99161904Y-73416723D01*
X99161904Y-73416723D02*
X99209523Y-73226247D01*
X99209523Y-73226247D02*
X99209523Y-72845295D01*
X99209523Y-72845295D02*
X99161904Y-72750057D01*
X99161904Y-72750057D02*
X99114285Y-72702438D01*
X99114285Y-72702438D02*
X99019047Y-72654819D01*
X99019047Y-72654819D02*
X98828571Y-72654819D01*
X98828571Y-72654819D02*
X98733333Y-72702438D01*
X98733333Y-72702438D02*
X98685714Y-72750057D01*
X98685714Y-72750057D02*
X98638095Y-72845295D01*
X98638095Y-72845295D02*
X98638095Y-73083390D01*
X98638095Y-73083390D02*
X98685714Y-73178628D01*
X98685714Y-73178628D02*
X98733333Y-73226247D01*
X98733333Y-73226247D02*
X98828571Y-73273866D01*
X98828571Y-73273866D02*
X99019047Y-73273866D01*
X99019047Y-73273866D02*
X99114285Y-73226247D01*
X99114285Y-73226247D02*
X99161904Y-73178628D01*
X99161904Y-73178628D02*
X99209523Y-73083390D01*
X64166666Y-112934819D02*
X64166666Y-113649104D01*
X64166666Y-113649104D02*
X64119047Y-113791961D01*
X64119047Y-113791961D02*
X64023809Y-113887200D01*
X64023809Y-113887200D02*
X63880952Y-113934819D01*
X63880952Y-113934819D02*
X63785714Y-113934819D01*
X65071428Y-112934819D02*
X64880952Y-112934819D01*
X64880952Y-112934819D02*
X64785714Y-112982438D01*
X64785714Y-112982438D02*
X64738095Y-113030057D01*
X64738095Y-113030057D02*
X64642857Y-113172914D01*
X64642857Y-113172914D02*
X64595238Y-113363390D01*
X64595238Y-113363390D02*
X64595238Y-113744342D01*
X64595238Y-113744342D02*
X64642857Y-113839580D01*
X64642857Y-113839580D02*
X64690476Y-113887200D01*
X64690476Y-113887200D02*
X64785714Y-113934819D01*
X64785714Y-113934819D02*
X64976190Y-113934819D01*
X64976190Y-113934819D02*
X65071428Y-113887200D01*
X65071428Y-113887200D02*
X65119047Y-113839580D01*
X65119047Y-113839580D02*
X65166666Y-113744342D01*
X65166666Y-113744342D02*
X65166666Y-113506247D01*
X65166666Y-113506247D02*
X65119047Y-113411009D01*
X65119047Y-113411009D02*
X65071428Y-113363390D01*
X65071428Y-113363390D02*
X64976190Y-113315771D01*
X64976190Y-113315771D02*
X64785714Y-113315771D01*
X64785714Y-113315771D02*
X64690476Y-113363390D01*
X64690476Y-113363390D02*
X64642857Y-113411009D01*
X64642857Y-113411009D02*
X64595238Y-113506247D01*
X75124819Y-54742857D02*
X74648628Y-55076190D01*
X75124819Y-55314285D02*
X74124819Y-55314285D01*
X74124819Y-55314285D02*
X74124819Y-54933333D01*
X74124819Y-54933333D02*
X74172438Y-54838095D01*
X74172438Y-54838095D02*
X74220057Y-54790476D01*
X74220057Y-54790476D02*
X74315295Y-54742857D01*
X74315295Y-54742857D02*
X74458152Y-54742857D01*
X74458152Y-54742857D02*
X74553390Y-54790476D01*
X74553390Y-54790476D02*
X74601009Y-54838095D01*
X74601009Y-54838095D02*
X74648628Y-54933333D01*
X74648628Y-54933333D02*
X74648628Y-55314285D01*
X74220057Y-54361904D02*
X74172438Y-54314285D01*
X74172438Y-54314285D02*
X74124819Y-54219047D01*
X74124819Y-54219047D02*
X74124819Y-53980952D01*
X74124819Y-53980952D02*
X74172438Y-53885714D01*
X74172438Y-53885714D02*
X74220057Y-53838095D01*
X74220057Y-53838095D02*
X74315295Y-53790476D01*
X74315295Y-53790476D02*
X74410533Y-53790476D01*
X74410533Y-53790476D02*
X74553390Y-53838095D01*
X74553390Y-53838095D02*
X75124819Y-54409523D01*
X75124819Y-54409523D02*
X75124819Y-53790476D01*
X75124819Y-52838095D02*
X75124819Y-53409523D01*
X75124819Y-53123809D02*
X74124819Y-53123809D01*
X74124819Y-53123809D02*
X74267676Y-53219047D01*
X74267676Y-53219047D02*
X74362914Y-53314285D01*
X74362914Y-53314285D02*
X74410533Y-53409523D01*
X80284819Y-71566666D02*
X79808628Y-71899999D01*
X80284819Y-72138094D02*
X79284819Y-72138094D01*
X79284819Y-72138094D02*
X79284819Y-71757142D01*
X79284819Y-71757142D02*
X79332438Y-71661904D01*
X79332438Y-71661904D02*
X79380057Y-71614285D01*
X79380057Y-71614285D02*
X79475295Y-71566666D01*
X79475295Y-71566666D02*
X79618152Y-71566666D01*
X79618152Y-71566666D02*
X79713390Y-71614285D01*
X79713390Y-71614285D02*
X79761009Y-71661904D01*
X79761009Y-71661904D02*
X79808628Y-71757142D01*
X79808628Y-71757142D02*
X79808628Y-72138094D01*
X79284819Y-70709523D02*
X79284819Y-70899999D01*
X79284819Y-70899999D02*
X79332438Y-70995237D01*
X79332438Y-70995237D02*
X79380057Y-71042856D01*
X79380057Y-71042856D02*
X79522914Y-71138094D01*
X79522914Y-71138094D02*
X79713390Y-71185713D01*
X79713390Y-71185713D02*
X80094342Y-71185713D01*
X80094342Y-71185713D02*
X80189580Y-71138094D01*
X80189580Y-71138094D02*
X80237200Y-71090475D01*
X80237200Y-71090475D02*
X80284819Y-70995237D01*
X80284819Y-70995237D02*
X80284819Y-70804761D01*
X80284819Y-70804761D02*
X80237200Y-70709523D01*
X80237200Y-70709523D02*
X80189580Y-70661904D01*
X80189580Y-70661904D02*
X80094342Y-70614285D01*
X80094342Y-70614285D02*
X79856247Y-70614285D01*
X79856247Y-70614285D02*
X79761009Y-70661904D01*
X79761009Y-70661904D02*
X79713390Y-70709523D01*
X79713390Y-70709523D02*
X79665771Y-70804761D01*
X79665771Y-70804761D02*
X79665771Y-70995237D01*
X79665771Y-70995237D02*
X79713390Y-71090475D01*
X79713390Y-71090475D02*
X79761009Y-71138094D01*
X79761009Y-71138094D02*
X79856247Y-71185713D01*
X78277142Y-102954819D02*
X77943809Y-102478628D01*
X77705714Y-102954819D02*
X77705714Y-101954819D01*
X77705714Y-101954819D02*
X78086666Y-101954819D01*
X78086666Y-101954819D02*
X78181904Y-102002438D01*
X78181904Y-102002438D02*
X78229523Y-102050057D01*
X78229523Y-102050057D02*
X78277142Y-102145295D01*
X78277142Y-102145295D02*
X78277142Y-102288152D01*
X78277142Y-102288152D02*
X78229523Y-102383390D01*
X78229523Y-102383390D02*
X78181904Y-102431009D01*
X78181904Y-102431009D02*
X78086666Y-102478628D01*
X78086666Y-102478628D02*
X77705714Y-102478628D01*
X78610476Y-101954819D02*
X79229523Y-101954819D01*
X79229523Y-101954819D02*
X78896190Y-102335771D01*
X78896190Y-102335771D02*
X79039047Y-102335771D01*
X79039047Y-102335771D02*
X79134285Y-102383390D01*
X79134285Y-102383390D02*
X79181904Y-102431009D01*
X79181904Y-102431009D02*
X79229523Y-102526247D01*
X79229523Y-102526247D02*
X79229523Y-102764342D01*
X79229523Y-102764342D02*
X79181904Y-102859580D01*
X79181904Y-102859580D02*
X79134285Y-102907200D01*
X79134285Y-102907200D02*
X79039047Y-102954819D01*
X79039047Y-102954819D02*
X78753333Y-102954819D01*
X78753333Y-102954819D02*
X78658095Y-102907200D01*
X78658095Y-102907200D02*
X78610476Y-102859580D01*
X79610476Y-102050057D02*
X79658095Y-102002438D01*
X79658095Y-102002438D02*
X79753333Y-101954819D01*
X79753333Y-101954819D02*
X79991428Y-101954819D01*
X79991428Y-101954819D02*
X80086666Y-102002438D01*
X80086666Y-102002438D02*
X80134285Y-102050057D01*
X80134285Y-102050057D02*
X80181904Y-102145295D01*
X80181904Y-102145295D02*
X80181904Y-102240533D01*
X80181904Y-102240533D02*
X80134285Y-102383390D01*
X80134285Y-102383390D02*
X79562857Y-102954819D01*
X79562857Y-102954819D02*
X80181904Y-102954819D01*
X80454819Y-80538094D02*
X79454819Y-80538094D01*
X79454819Y-80538094D02*
X79454819Y-80299999D01*
X79454819Y-80299999D02*
X79502438Y-80157142D01*
X79502438Y-80157142D02*
X79597676Y-80061904D01*
X79597676Y-80061904D02*
X79692914Y-80014285D01*
X79692914Y-80014285D02*
X79883390Y-79966666D01*
X79883390Y-79966666D02*
X80026247Y-79966666D01*
X80026247Y-79966666D02*
X80216723Y-80014285D01*
X80216723Y-80014285D02*
X80311961Y-80061904D01*
X80311961Y-80061904D02*
X80407200Y-80157142D01*
X80407200Y-80157142D02*
X80454819Y-80299999D01*
X80454819Y-80299999D02*
X80454819Y-80538094D01*
X79788152Y-79109523D02*
X80454819Y-79109523D01*
X79407200Y-79347618D02*
X80121485Y-79585713D01*
X80121485Y-79585713D02*
X80121485Y-78966666D01*
X101828571Y-73750057D02*
X101733333Y-73702438D01*
X101733333Y-73702438D02*
X101638095Y-73607200D01*
X101638095Y-73607200D02*
X101495238Y-73464342D01*
X101495238Y-73464342D02*
X101400000Y-73416723D01*
X101400000Y-73416723D02*
X101304762Y-73416723D01*
X101352381Y-73654819D02*
X101257143Y-73607200D01*
X101257143Y-73607200D02*
X101161905Y-73511961D01*
X101161905Y-73511961D02*
X101114286Y-73321485D01*
X101114286Y-73321485D02*
X101114286Y-72988152D01*
X101114286Y-72988152D02*
X101161905Y-72797676D01*
X101161905Y-72797676D02*
X101257143Y-72702438D01*
X101257143Y-72702438D02*
X101352381Y-72654819D01*
X101352381Y-72654819D02*
X101542857Y-72654819D01*
X101542857Y-72654819D02*
X101638095Y-72702438D01*
X101638095Y-72702438D02*
X101733333Y-72797676D01*
X101733333Y-72797676D02*
X101780952Y-72988152D01*
X101780952Y-72988152D02*
X101780952Y-73321485D01*
X101780952Y-73321485D02*
X101733333Y-73511961D01*
X101733333Y-73511961D02*
X101638095Y-73607200D01*
X101638095Y-73607200D02*
X101542857Y-73654819D01*
X101542857Y-73654819D02*
X101352381Y-73654819D01*
X102733333Y-73654819D02*
X102161905Y-73654819D01*
X102447619Y-73654819D02*
X102447619Y-72654819D01*
X102447619Y-72654819D02*
X102352381Y-72797676D01*
X102352381Y-72797676D02*
X102257143Y-72892914D01*
X102257143Y-72892914D02*
X102161905Y-72940533D01*
X103352381Y-72654819D02*
X103447619Y-72654819D01*
X103447619Y-72654819D02*
X103542857Y-72702438D01*
X103542857Y-72702438D02*
X103590476Y-72750057D01*
X103590476Y-72750057D02*
X103638095Y-72845295D01*
X103638095Y-72845295D02*
X103685714Y-73035771D01*
X103685714Y-73035771D02*
X103685714Y-73273866D01*
X103685714Y-73273866D02*
X103638095Y-73464342D01*
X103638095Y-73464342D02*
X103590476Y-73559580D01*
X103590476Y-73559580D02*
X103542857Y-73607200D01*
X103542857Y-73607200D02*
X103447619Y-73654819D01*
X103447619Y-73654819D02*
X103352381Y-73654819D01*
X103352381Y-73654819D02*
X103257143Y-73607200D01*
X103257143Y-73607200D02*
X103209524Y-73559580D01*
X103209524Y-73559580D02*
X103161905Y-73464342D01*
X103161905Y-73464342D02*
X103114286Y-73273866D01*
X103114286Y-73273866D02*
X103114286Y-73035771D01*
X103114286Y-73035771D02*
X103161905Y-72845295D01*
X103161905Y-72845295D02*
X103209524Y-72750057D01*
X103209524Y-72750057D02*
X103257143Y-72702438D01*
X103257143Y-72702438D02*
X103352381Y-72654819D01*
X100854819Y-81014285D02*
X99854819Y-81014285D01*
X99854819Y-81014285D02*
X99854819Y-80776190D01*
X99854819Y-80776190D02*
X99902438Y-80633333D01*
X99902438Y-80633333D02*
X99997676Y-80538095D01*
X99997676Y-80538095D02*
X100092914Y-80490476D01*
X100092914Y-80490476D02*
X100283390Y-80442857D01*
X100283390Y-80442857D02*
X100426247Y-80442857D01*
X100426247Y-80442857D02*
X100616723Y-80490476D01*
X100616723Y-80490476D02*
X100711961Y-80538095D01*
X100711961Y-80538095D02*
X100807200Y-80633333D01*
X100807200Y-80633333D02*
X100854819Y-80776190D01*
X100854819Y-80776190D02*
X100854819Y-81014285D01*
X100854819Y-79490476D02*
X100854819Y-80061904D01*
X100854819Y-79776190D02*
X99854819Y-79776190D01*
X99854819Y-79776190D02*
X99997676Y-79871428D01*
X99997676Y-79871428D02*
X100092914Y-79966666D01*
X100092914Y-79966666D02*
X100140533Y-80061904D01*
X99854819Y-78871428D02*
X99854819Y-78776190D01*
X99854819Y-78776190D02*
X99902438Y-78680952D01*
X99902438Y-78680952D02*
X99950057Y-78633333D01*
X99950057Y-78633333D02*
X100045295Y-78585714D01*
X100045295Y-78585714D02*
X100235771Y-78538095D01*
X100235771Y-78538095D02*
X100473866Y-78538095D01*
X100473866Y-78538095D02*
X100664342Y-78585714D01*
X100664342Y-78585714D02*
X100759580Y-78633333D01*
X100759580Y-78633333D02*
X100807200Y-78680952D01*
X100807200Y-78680952D02*
X100854819Y-78776190D01*
X100854819Y-78776190D02*
X100854819Y-78871428D01*
X100854819Y-78871428D02*
X100807200Y-78966666D01*
X100807200Y-78966666D02*
X100759580Y-79014285D01*
X100759580Y-79014285D02*
X100664342Y-79061904D01*
X100664342Y-79061904D02*
X100473866Y-79109523D01*
X100473866Y-79109523D02*
X100235771Y-79109523D01*
X100235771Y-79109523D02*
X100045295Y-79061904D01*
X100045295Y-79061904D02*
X99950057Y-79014285D01*
X99950057Y-79014285D02*
X99902438Y-78966666D01*
X99902438Y-78966666D02*
X99854819Y-78871428D01*
D10*
X58128571Y-55863855D02*
X57671428Y-55863855D01*
X57900000Y-55863855D02*
X57900000Y-55063855D01*
X57900000Y-55063855D02*
X57823809Y-55178140D01*
X57823809Y-55178140D02*
X57747619Y-55254331D01*
X57747619Y-55254331D02*
X57671428Y-55292426D01*
X60211428Y-55140045D02*
X60249524Y-55101950D01*
X60249524Y-55101950D02*
X60325714Y-55063855D01*
X60325714Y-55063855D02*
X60516190Y-55063855D01*
X60516190Y-55063855D02*
X60592381Y-55101950D01*
X60592381Y-55101950D02*
X60630476Y-55140045D01*
X60630476Y-55140045D02*
X60668571Y-55216236D01*
X60668571Y-55216236D02*
X60668571Y-55292426D01*
X60668571Y-55292426D02*
X60630476Y-55406712D01*
X60630476Y-55406712D02*
X60173333Y-55863855D01*
X60173333Y-55863855D02*
X60668571Y-55863855D01*
X61157619Y-58987664D02*
X61119523Y-59025760D01*
X61119523Y-59025760D02*
X61005238Y-59063855D01*
X61005238Y-59063855D02*
X60929047Y-59063855D01*
X60929047Y-59063855D02*
X60814761Y-59025760D01*
X60814761Y-59025760D02*
X60738571Y-58949569D01*
X60738571Y-58949569D02*
X60700476Y-58873379D01*
X60700476Y-58873379D02*
X60662380Y-58720998D01*
X60662380Y-58720998D02*
X60662380Y-58606712D01*
X60662380Y-58606712D02*
X60700476Y-58454331D01*
X60700476Y-58454331D02*
X60738571Y-58378140D01*
X60738571Y-58378140D02*
X60814761Y-58301950D01*
X60814761Y-58301950D02*
X60929047Y-58263855D01*
X60929047Y-58263855D02*
X61005238Y-58263855D01*
X61005238Y-58263855D02*
X61119523Y-58301950D01*
X61119523Y-58301950D02*
X61157619Y-58340045D01*
X61500476Y-59063855D02*
X61500476Y-58263855D01*
X61500476Y-58263855D02*
X61957619Y-59063855D01*
X61957619Y-59063855D02*
X61957619Y-58263855D01*
X62757618Y-59063855D02*
X62300475Y-59063855D01*
X62529047Y-59063855D02*
X62529047Y-58263855D01*
X62529047Y-58263855D02*
X62452856Y-58378140D01*
X62452856Y-58378140D02*
X62376666Y-58454331D01*
X62376666Y-58454331D02*
X62300475Y-58492426D01*
X62713333Y-55063855D02*
X63208571Y-55063855D01*
X63208571Y-55063855D02*
X62941905Y-55368617D01*
X62941905Y-55368617D02*
X63056190Y-55368617D01*
X63056190Y-55368617D02*
X63132381Y-55406712D01*
X63132381Y-55406712D02*
X63170476Y-55444807D01*
X63170476Y-55444807D02*
X63208571Y-55520998D01*
X63208571Y-55520998D02*
X63208571Y-55711474D01*
X63208571Y-55711474D02*
X63170476Y-55787664D01*
X63170476Y-55787664D02*
X63132381Y-55825760D01*
X63132381Y-55825760D02*
X63056190Y-55863855D01*
X63056190Y-55863855D02*
X62827619Y-55863855D01*
X62827619Y-55863855D02*
X62751428Y-55825760D01*
X62751428Y-55825760D02*
X62713333Y-55787664D01*
X65672381Y-55330521D02*
X65672381Y-55863855D01*
X65481905Y-55025760D02*
X65291428Y-55597188D01*
X65291428Y-55597188D02*
X65786667Y-55597188D01*
D12*
X65277142Y-102954819D02*
X64943809Y-102478628D01*
X64705714Y-102954819D02*
X64705714Y-101954819D01*
X64705714Y-101954819D02*
X65086666Y-101954819D01*
X65086666Y-101954819D02*
X65181904Y-102002438D01*
X65181904Y-102002438D02*
X65229523Y-102050057D01*
X65229523Y-102050057D02*
X65277142Y-102145295D01*
X65277142Y-102145295D02*
X65277142Y-102288152D01*
X65277142Y-102288152D02*
X65229523Y-102383390D01*
X65229523Y-102383390D02*
X65181904Y-102431009D01*
X65181904Y-102431009D02*
X65086666Y-102478628D01*
X65086666Y-102478628D02*
X64705714Y-102478628D01*
X65610476Y-101954819D02*
X66229523Y-101954819D01*
X66229523Y-101954819D02*
X65896190Y-102335771D01*
X65896190Y-102335771D02*
X66039047Y-102335771D01*
X66039047Y-102335771D02*
X66134285Y-102383390D01*
X66134285Y-102383390D02*
X66181904Y-102431009D01*
X66181904Y-102431009D02*
X66229523Y-102526247D01*
X66229523Y-102526247D02*
X66229523Y-102764342D01*
X66229523Y-102764342D02*
X66181904Y-102859580D01*
X66181904Y-102859580D02*
X66134285Y-102907200D01*
X66134285Y-102907200D02*
X66039047Y-102954819D01*
X66039047Y-102954819D02*
X65753333Y-102954819D01*
X65753333Y-102954819D02*
X65658095Y-102907200D01*
X65658095Y-102907200D02*
X65610476Y-102859580D01*
X67181904Y-102954819D02*
X66610476Y-102954819D01*
X66896190Y-102954819D02*
X66896190Y-101954819D01*
X66896190Y-101954819D02*
X66800952Y-102097676D01*
X66800952Y-102097676D02*
X66705714Y-102192914D01*
X66705714Y-102192914D02*
X66610476Y-102240533D01*
X53704819Y-91338094D02*
X52704819Y-91338094D01*
X53704819Y-90766666D02*
X53133390Y-91195237D01*
X52704819Y-90766666D02*
X53276247Y-91338094D01*
X53038152Y-89909523D02*
X53704819Y-89909523D01*
X52657200Y-90147618D02*
X53371485Y-90385713D01*
X53371485Y-90385713D02*
X53371485Y-89766666D01*
X64904761Y-77300057D02*
X64809523Y-77252438D01*
X64809523Y-77252438D02*
X64714285Y-77157200D01*
X64714285Y-77157200D02*
X64571428Y-77014342D01*
X64571428Y-77014342D02*
X64476190Y-76966723D01*
X64476190Y-76966723D02*
X64380952Y-76966723D01*
X64428571Y-77204819D02*
X64333333Y-77157200D01*
X64333333Y-77157200D02*
X64238095Y-77061961D01*
X64238095Y-77061961D02*
X64190476Y-76871485D01*
X64190476Y-76871485D02*
X64190476Y-76538152D01*
X64190476Y-76538152D02*
X64238095Y-76347676D01*
X64238095Y-76347676D02*
X64333333Y-76252438D01*
X64333333Y-76252438D02*
X64428571Y-76204819D01*
X64428571Y-76204819D02*
X64619047Y-76204819D01*
X64619047Y-76204819D02*
X64714285Y-76252438D01*
X64714285Y-76252438D02*
X64809523Y-76347676D01*
X64809523Y-76347676D02*
X64857142Y-76538152D01*
X64857142Y-76538152D02*
X64857142Y-76871485D01*
X64857142Y-76871485D02*
X64809523Y-77061961D01*
X64809523Y-77061961D02*
X64714285Y-77157200D01*
X64714285Y-77157200D02*
X64619047Y-77204819D01*
X64619047Y-77204819D02*
X64428571Y-77204819D01*
X65809523Y-77204819D02*
X65238095Y-77204819D01*
X65523809Y-77204819D02*
X65523809Y-76204819D01*
X65523809Y-76204819D02*
X65428571Y-76347676D01*
X65428571Y-76347676D02*
X65333333Y-76442914D01*
X65333333Y-76442914D02*
X65238095Y-76490533D01*
X56054819Y-80538094D02*
X55054819Y-80538094D01*
X55054819Y-80538094D02*
X55054819Y-80299999D01*
X55054819Y-80299999D02*
X55102438Y-80157142D01*
X55102438Y-80157142D02*
X55197676Y-80061904D01*
X55197676Y-80061904D02*
X55292914Y-80014285D01*
X55292914Y-80014285D02*
X55483390Y-79966666D01*
X55483390Y-79966666D02*
X55626247Y-79966666D01*
X55626247Y-79966666D02*
X55816723Y-80014285D01*
X55816723Y-80014285D02*
X55911961Y-80061904D01*
X55911961Y-80061904D02*
X56007200Y-80157142D01*
X56007200Y-80157142D02*
X56054819Y-80299999D01*
X56054819Y-80299999D02*
X56054819Y-80538094D01*
X55054819Y-79633332D02*
X55054819Y-78966666D01*
X55054819Y-78966666D02*
X56054819Y-79395237D01*
X76454819Y-80538094D02*
X75454819Y-80538094D01*
X75454819Y-80538094D02*
X75454819Y-80299999D01*
X75454819Y-80299999D02*
X75502438Y-80157142D01*
X75502438Y-80157142D02*
X75597676Y-80061904D01*
X75597676Y-80061904D02*
X75692914Y-80014285D01*
X75692914Y-80014285D02*
X75883390Y-79966666D01*
X75883390Y-79966666D02*
X76026247Y-79966666D01*
X76026247Y-79966666D02*
X76216723Y-80014285D01*
X76216723Y-80014285D02*
X76311961Y-80061904D01*
X76311961Y-80061904D02*
X76407200Y-80157142D01*
X76407200Y-80157142D02*
X76454819Y-80299999D01*
X76454819Y-80299999D02*
X76454819Y-80538094D01*
X75454819Y-79633332D02*
X75454819Y-79014285D01*
X75454819Y-79014285D02*
X75835771Y-79347618D01*
X75835771Y-79347618D02*
X75835771Y-79204761D01*
X75835771Y-79204761D02*
X75883390Y-79109523D01*
X75883390Y-79109523D02*
X75931009Y-79061904D01*
X75931009Y-79061904D02*
X76026247Y-79014285D01*
X76026247Y-79014285D02*
X76264342Y-79014285D01*
X76264342Y-79014285D02*
X76359580Y-79061904D01*
X76359580Y-79061904D02*
X76407200Y-79109523D01*
X76407200Y-79109523D02*
X76454819Y-79204761D01*
X76454819Y-79204761D02*
X76454819Y-79490475D01*
X76454819Y-79490475D02*
X76407200Y-79585713D01*
X76407200Y-79585713D02*
X76359580Y-79633332D01*
X54404761Y-76300057D02*
X54309523Y-76252438D01*
X54309523Y-76252438D02*
X54214285Y-76157200D01*
X54214285Y-76157200D02*
X54071428Y-76014342D01*
X54071428Y-76014342D02*
X53976190Y-75966723D01*
X53976190Y-75966723D02*
X53880952Y-75966723D01*
X53928571Y-76204819D02*
X53833333Y-76157200D01*
X53833333Y-76157200D02*
X53738095Y-76061961D01*
X53738095Y-76061961D02*
X53690476Y-75871485D01*
X53690476Y-75871485D02*
X53690476Y-75538152D01*
X53690476Y-75538152D02*
X53738095Y-75347676D01*
X53738095Y-75347676D02*
X53833333Y-75252438D01*
X53833333Y-75252438D02*
X53928571Y-75204819D01*
X53928571Y-75204819D02*
X54119047Y-75204819D01*
X54119047Y-75204819D02*
X54214285Y-75252438D01*
X54214285Y-75252438D02*
X54309523Y-75347676D01*
X54309523Y-75347676D02*
X54357142Y-75538152D01*
X54357142Y-75538152D02*
X54357142Y-75871485D01*
X54357142Y-75871485D02*
X54309523Y-76061961D01*
X54309523Y-76061961D02*
X54214285Y-76157200D01*
X54214285Y-76157200D02*
X54119047Y-76204819D01*
X54119047Y-76204819D02*
X53928571Y-76204819D01*
X54690476Y-75204819D02*
X55357142Y-75204819D01*
X55357142Y-75204819D02*
X54928571Y-76204819D01*
X69909580Y-54266666D02*
X69957200Y-54314285D01*
X69957200Y-54314285D02*
X70004819Y-54457142D01*
X70004819Y-54457142D02*
X70004819Y-54552380D01*
X70004819Y-54552380D02*
X69957200Y-54695237D01*
X69957200Y-54695237D02*
X69861961Y-54790475D01*
X69861961Y-54790475D02*
X69766723Y-54838094D01*
X69766723Y-54838094D02*
X69576247Y-54885713D01*
X69576247Y-54885713D02*
X69433390Y-54885713D01*
X69433390Y-54885713D02*
X69242914Y-54838094D01*
X69242914Y-54838094D02*
X69147676Y-54790475D01*
X69147676Y-54790475D02*
X69052438Y-54695237D01*
X69052438Y-54695237D02*
X69004819Y-54552380D01*
X69004819Y-54552380D02*
X69004819Y-54457142D01*
X69004819Y-54457142D02*
X69052438Y-54314285D01*
X69052438Y-54314285D02*
X69100057Y-54266666D01*
X69004819Y-53933332D02*
X69004819Y-53314285D01*
X69004819Y-53314285D02*
X69385771Y-53647618D01*
X69385771Y-53647618D02*
X69385771Y-53504761D01*
X69385771Y-53504761D02*
X69433390Y-53409523D01*
X69433390Y-53409523D02*
X69481009Y-53361904D01*
X69481009Y-53361904D02*
X69576247Y-53314285D01*
X69576247Y-53314285D02*
X69814342Y-53314285D01*
X69814342Y-53314285D02*
X69909580Y-53361904D01*
X69909580Y-53361904D02*
X69957200Y-53409523D01*
X69957200Y-53409523D02*
X70004819Y-53504761D01*
X70004819Y-53504761D02*
X70004819Y-53790475D01*
X70004819Y-53790475D02*
X69957200Y-53885713D01*
X69957200Y-53885713D02*
X69909580Y-53933332D01*
X63884819Y-72042857D02*
X63408628Y-72376190D01*
X63884819Y-72614285D02*
X62884819Y-72614285D01*
X62884819Y-72614285D02*
X62884819Y-72233333D01*
X62884819Y-72233333D02*
X62932438Y-72138095D01*
X62932438Y-72138095D02*
X62980057Y-72090476D01*
X62980057Y-72090476D02*
X63075295Y-72042857D01*
X63075295Y-72042857D02*
X63218152Y-72042857D01*
X63218152Y-72042857D02*
X63313390Y-72090476D01*
X63313390Y-72090476D02*
X63361009Y-72138095D01*
X63361009Y-72138095D02*
X63408628Y-72233333D01*
X63408628Y-72233333D02*
X63408628Y-72614285D01*
X63884819Y-71090476D02*
X63884819Y-71661904D01*
X63884819Y-71376190D02*
X62884819Y-71376190D01*
X62884819Y-71376190D02*
X63027676Y-71471428D01*
X63027676Y-71471428D02*
X63122914Y-71566666D01*
X63122914Y-71566666D02*
X63170533Y-71661904D01*
X62884819Y-70233333D02*
X62884819Y-70423809D01*
X62884819Y-70423809D02*
X62932438Y-70519047D01*
X62932438Y-70519047D02*
X62980057Y-70566666D01*
X62980057Y-70566666D02*
X63122914Y-70661904D01*
X63122914Y-70661904D02*
X63313390Y-70709523D01*
X63313390Y-70709523D02*
X63694342Y-70709523D01*
X63694342Y-70709523D02*
X63789580Y-70661904D01*
X63789580Y-70661904D02*
X63837200Y-70614285D01*
X63837200Y-70614285D02*
X63884819Y-70519047D01*
X63884819Y-70519047D02*
X63884819Y-70328571D01*
X63884819Y-70328571D02*
X63837200Y-70233333D01*
X63837200Y-70233333D02*
X63789580Y-70185714D01*
X63789580Y-70185714D02*
X63694342Y-70138095D01*
X63694342Y-70138095D02*
X63456247Y-70138095D01*
X63456247Y-70138095D02*
X63361009Y-70185714D01*
X63361009Y-70185714D02*
X63313390Y-70233333D01*
X63313390Y-70233333D02*
X63265771Y-70328571D01*
X63265771Y-70328571D02*
X63265771Y-70519047D01*
X63265771Y-70519047D02*
X63313390Y-70614285D01*
X63313390Y-70614285D02*
X63361009Y-70661904D01*
X63361009Y-70661904D02*
X63456247Y-70709523D01*
X70254819Y-80538094D02*
X69254819Y-80538094D01*
X69254819Y-80538094D02*
X69254819Y-80299999D01*
X69254819Y-80299999D02*
X69302438Y-80157142D01*
X69302438Y-80157142D02*
X69397676Y-80061904D01*
X69397676Y-80061904D02*
X69492914Y-80014285D01*
X69492914Y-80014285D02*
X69683390Y-79966666D01*
X69683390Y-79966666D02*
X69826247Y-79966666D01*
X69826247Y-79966666D02*
X70016723Y-80014285D01*
X70016723Y-80014285D02*
X70111961Y-80061904D01*
X70111961Y-80061904D02*
X70207200Y-80157142D01*
X70207200Y-80157142D02*
X70254819Y-80299999D01*
X70254819Y-80299999D02*
X70254819Y-80538094D01*
X69350057Y-79585713D02*
X69302438Y-79538094D01*
X69302438Y-79538094D02*
X69254819Y-79442856D01*
X69254819Y-79442856D02*
X69254819Y-79204761D01*
X69254819Y-79204761D02*
X69302438Y-79109523D01*
X69302438Y-79109523D02*
X69350057Y-79061904D01*
X69350057Y-79061904D02*
X69445295Y-79014285D01*
X69445295Y-79014285D02*
X69540533Y-79014285D01*
X69540533Y-79014285D02*
X69683390Y-79061904D01*
X69683390Y-79061904D02*
X70254819Y-79633332D01*
X70254819Y-79633332D02*
X70254819Y-79014285D01*
X100684819Y-67242857D02*
X100208628Y-67576190D01*
X100684819Y-67814285D02*
X99684819Y-67814285D01*
X99684819Y-67814285D02*
X99684819Y-67433333D01*
X99684819Y-67433333D02*
X99732438Y-67338095D01*
X99732438Y-67338095D02*
X99780057Y-67290476D01*
X99780057Y-67290476D02*
X99875295Y-67242857D01*
X99875295Y-67242857D02*
X100018152Y-67242857D01*
X100018152Y-67242857D02*
X100113390Y-67290476D01*
X100113390Y-67290476D02*
X100161009Y-67338095D01*
X100161009Y-67338095D02*
X100208628Y-67433333D01*
X100208628Y-67433333D02*
X100208628Y-67814285D01*
X100684819Y-66290476D02*
X100684819Y-66861904D01*
X100684819Y-66576190D02*
X99684819Y-66576190D01*
X99684819Y-66576190D02*
X99827676Y-66671428D01*
X99827676Y-66671428D02*
X99922914Y-66766666D01*
X99922914Y-66766666D02*
X99970533Y-66861904D01*
X99684819Y-65957142D02*
X99684819Y-65290476D01*
X99684819Y-65290476D02*
X100684819Y-65719047D01*
D10*
X57633333Y-50263855D02*
X58128571Y-50263855D01*
X58128571Y-50263855D02*
X57861905Y-50568617D01*
X57861905Y-50568617D02*
X57976190Y-50568617D01*
X57976190Y-50568617D02*
X58052381Y-50606712D01*
X58052381Y-50606712D02*
X58090476Y-50644807D01*
X58090476Y-50644807D02*
X58128571Y-50720998D01*
X58128571Y-50720998D02*
X58128571Y-50911474D01*
X58128571Y-50911474D02*
X58090476Y-50987664D01*
X58090476Y-50987664D02*
X58052381Y-51025760D01*
X58052381Y-51025760D02*
X57976190Y-51063855D01*
X57976190Y-51063855D02*
X57747619Y-51063855D01*
X57747619Y-51063855D02*
X57671428Y-51025760D01*
X57671428Y-51025760D02*
X57633333Y-50987664D01*
X58579524Y-54263855D02*
X58579524Y-53463855D01*
X58579524Y-53463855D02*
X58884286Y-53463855D01*
X58884286Y-53463855D02*
X58960476Y-53501950D01*
X58960476Y-53501950D02*
X58998571Y-53540045D01*
X58998571Y-53540045D02*
X59036667Y-53616236D01*
X59036667Y-53616236D02*
X59036667Y-53730521D01*
X59036667Y-53730521D02*
X58998571Y-53806712D01*
X58998571Y-53806712D02*
X58960476Y-53844807D01*
X58960476Y-53844807D02*
X58884286Y-53882902D01*
X58884286Y-53882902D02*
X58579524Y-53882902D01*
X59798571Y-54263855D02*
X59341428Y-54263855D01*
X59570000Y-54263855D02*
X59570000Y-53463855D01*
X59570000Y-53463855D02*
X59493809Y-53578140D01*
X59493809Y-53578140D02*
X59417619Y-53654331D01*
X59417619Y-53654331D02*
X59341428Y-53692426D01*
X60592381Y-50530521D02*
X60592381Y-51063855D01*
X60401905Y-50225760D02*
X60211428Y-50797188D01*
X60211428Y-50797188D02*
X60706667Y-50797188D01*
D12*
X74084819Y-66766666D02*
X73608628Y-67099999D01*
X74084819Y-67338094D02*
X73084819Y-67338094D01*
X73084819Y-67338094D02*
X73084819Y-66957142D01*
X73084819Y-66957142D02*
X73132438Y-66861904D01*
X73132438Y-66861904D02*
X73180057Y-66814285D01*
X73180057Y-66814285D02*
X73275295Y-66766666D01*
X73275295Y-66766666D02*
X73418152Y-66766666D01*
X73418152Y-66766666D02*
X73513390Y-66814285D01*
X73513390Y-66814285D02*
X73561009Y-66861904D01*
X73561009Y-66861904D02*
X73608628Y-66957142D01*
X73608628Y-66957142D02*
X73608628Y-67338094D01*
X73084819Y-66433332D02*
X73084819Y-65814285D01*
X73084819Y-65814285D02*
X73465771Y-66147618D01*
X73465771Y-66147618D02*
X73465771Y-66004761D01*
X73465771Y-66004761D02*
X73513390Y-65909523D01*
X73513390Y-65909523D02*
X73561009Y-65861904D01*
X73561009Y-65861904D02*
X73656247Y-65814285D01*
X73656247Y-65814285D02*
X73894342Y-65814285D01*
X73894342Y-65814285D02*
X73989580Y-65861904D01*
X73989580Y-65861904D02*
X74037200Y-65909523D01*
X74037200Y-65909523D02*
X74084819Y-66004761D01*
X74084819Y-66004761D02*
X74084819Y-66290475D01*
X74084819Y-66290475D02*
X74037200Y-66385713D01*
X74037200Y-66385713D02*
X73989580Y-66433332D01*
X94484819Y-72042857D02*
X94008628Y-72376190D01*
X94484819Y-72614285D02*
X93484819Y-72614285D01*
X93484819Y-72614285D02*
X93484819Y-72233333D01*
X93484819Y-72233333D02*
X93532438Y-72138095D01*
X93532438Y-72138095D02*
X93580057Y-72090476D01*
X93580057Y-72090476D02*
X93675295Y-72042857D01*
X93675295Y-72042857D02*
X93818152Y-72042857D01*
X93818152Y-72042857D02*
X93913390Y-72090476D01*
X93913390Y-72090476D02*
X93961009Y-72138095D01*
X93961009Y-72138095D02*
X94008628Y-72233333D01*
X94008628Y-72233333D02*
X94008628Y-72614285D01*
X94484819Y-71090476D02*
X94484819Y-71661904D01*
X94484819Y-71376190D02*
X93484819Y-71376190D01*
X93484819Y-71376190D02*
X93627676Y-71471428D01*
X93627676Y-71471428D02*
X93722914Y-71566666D01*
X93722914Y-71566666D02*
X93770533Y-71661904D01*
X93580057Y-70709523D02*
X93532438Y-70661904D01*
X93532438Y-70661904D02*
X93484819Y-70566666D01*
X93484819Y-70566666D02*
X93484819Y-70328571D01*
X93484819Y-70328571D02*
X93532438Y-70233333D01*
X93532438Y-70233333D02*
X93580057Y-70185714D01*
X93580057Y-70185714D02*
X93675295Y-70138095D01*
X93675295Y-70138095D02*
X93770533Y-70138095D01*
X93770533Y-70138095D02*
X93913390Y-70185714D01*
X93913390Y-70185714D02*
X94484819Y-70757142D01*
X94484819Y-70757142D02*
X94484819Y-70138095D01*
X52166666Y-91934819D02*
X52166666Y-92649104D01*
X52166666Y-92649104D02*
X52119047Y-92791961D01*
X52119047Y-92791961D02*
X52023809Y-92887200D01*
X52023809Y-92887200D02*
X51880952Y-92934819D01*
X51880952Y-92934819D02*
X51785714Y-92934819D01*
X52595238Y-92030057D02*
X52642857Y-91982438D01*
X52642857Y-91982438D02*
X52738095Y-91934819D01*
X52738095Y-91934819D02*
X52976190Y-91934819D01*
X52976190Y-91934819D02*
X53071428Y-91982438D01*
X53071428Y-91982438D02*
X53119047Y-92030057D01*
X53119047Y-92030057D02*
X53166666Y-92125295D01*
X53166666Y-92125295D02*
X53166666Y-92220533D01*
X53166666Y-92220533D02*
X53119047Y-92363390D01*
X53119047Y-92363390D02*
X52547619Y-92934819D01*
X52547619Y-92934819D02*
X53166666Y-92934819D01*
X70084819Y-71566666D02*
X69608628Y-71899999D01*
X70084819Y-72138094D02*
X69084819Y-72138094D01*
X69084819Y-72138094D02*
X69084819Y-71757142D01*
X69084819Y-71757142D02*
X69132438Y-71661904D01*
X69132438Y-71661904D02*
X69180057Y-71614285D01*
X69180057Y-71614285D02*
X69275295Y-71566666D01*
X69275295Y-71566666D02*
X69418152Y-71566666D01*
X69418152Y-71566666D02*
X69513390Y-71614285D01*
X69513390Y-71614285D02*
X69561009Y-71661904D01*
X69561009Y-71661904D02*
X69608628Y-71757142D01*
X69608628Y-71757142D02*
X69608628Y-72138094D01*
X69180057Y-71185713D02*
X69132438Y-71138094D01*
X69132438Y-71138094D02*
X69084819Y-71042856D01*
X69084819Y-71042856D02*
X69084819Y-70804761D01*
X69084819Y-70804761D02*
X69132438Y-70709523D01*
X69132438Y-70709523D02*
X69180057Y-70661904D01*
X69180057Y-70661904D02*
X69275295Y-70614285D01*
X69275295Y-70614285D02*
X69370533Y-70614285D01*
X69370533Y-70614285D02*
X69513390Y-70661904D01*
X69513390Y-70661904D02*
X70084819Y-71233332D01*
X70084819Y-71233332D02*
X70084819Y-70614285D01*
X70084819Y-66766666D02*
X69608628Y-67099999D01*
X70084819Y-67338094D02*
X69084819Y-67338094D01*
X69084819Y-67338094D02*
X69084819Y-66957142D01*
X69084819Y-66957142D02*
X69132438Y-66861904D01*
X69132438Y-66861904D02*
X69180057Y-66814285D01*
X69180057Y-66814285D02*
X69275295Y-66766666D01*
X69275295Y-66766666D02*
X69418152Y-66766666D01*
X69418152Y-66766666D02*
X69513390Y-66814285D01*
X69513390Y-66814285D02*
X69561009Y-66861904D01*
X69561009Y-66861904D02*
X69608628Y-66957142D01*
X69608628Y-66957142D02*
X69608628Y-67338094D01*
X70084819Y-65814285D02*
X70084819Y-66385713D01*
X70084819Y-66099999D02*
X69084819Y-66099999D01*
X69084819Y-66099999D02*
X69227676Y-66195237D01*
X69227676Y-66195237D02*
X69322914Y-66290475D01*
X69322914Y-66290475D02*
X69370533Y-66385713D01*
X59884819Y-67242857D02*
X59408628Y-67576190D01*
X59884819Y-67814285D02*
X58884819Y-67814285D01*
X58884819Y-67814285D02*
X58884819Y-67433333D01*
X58884819Y-67433333D02*
X58932438Y-67338095D01*
X58932438Y-67338095D02*
X58980057Y-67290476D01*
X58980057Y-67290476D02*
X59075295Y-67242857D01*
X59075295Y-67242857D02*
X59218152Y-67242857D01*
X59218152Y-67242857D02*
X59313390Y-67290476D01*
X59313390Y-67290476D02*
X59361009Y-67338095D01*
X59361009Y-67338095D02*
X59408628Y-67433333D01*
X59408628Y-67433333D02*
X59408628Y-67814285D01*
X59884819Y-66290476D02*
X59884819Y-66861904D01*
X59884819Y-66576190D02*
X58884819Y-66576190D01*
X58884819Y-66576190D02*
X59027676Y-66671428D01*
X59027676Y-66671428D02*
X59122914Y-66766666D01*
X59122914Y-66766666D02*
X59170533Y-66861904D01*
X58884819Y-65957142D02*
X58884819Y-65338095D01*
X58884819Y-65338095D02*
X59265771Y-65671428D01*
X59265771Y-65671428D02*
X59265771Y-65528571D01*
X59265771Y-65528571D02*
X59313390Y-65433333D01*
X59313390Y-65433333D02*
X59361009Y-65385714D01*
X59361009Y-65385714D02*
X59456247Y-65338095D01*
X59456247Y-65338095D02*
X59694342Y-65338095D01*
X59694342Y-65338095D02*
X59789580Y-65385714D01*
X59789580Y-65385714D02*
X59837200Y-65433333D01*
X59837200Y-65433333D02*
X59884819Y-65528571D01*
X59884819Y-65528571D02*
X59884819Y-65814285D01*
X59884819Y-65814285D02*
X59837200Y-65909523D01*
X59837200Y-65909523D02*
X59789580Y-65957142D01*
X90484819Y-66766666D02*
X90008628Y-67099999D01*
X90484819Y-67338094D02*
X89484819Y-67338094D01*
X89484819Y-67338094D02*
X89484819Y-66957142D01*
X89484819Y-66957142D02*
X89532438Y-66861904D01*
X89532438Y-66861904D02*
X89580057Y-66814285D01*
X89580057Y-66814285D02*
X89675295Y-66766666D01*
X89675295Y-66766666D02*
X89818152Y-66766666D01*
X89818152Y-66766666D02*
X89913390Y-66814285D01*
X89913390Y-66814285D02*
X89961009Y-66861904D01*
X89961009Y-66861904D02*
X90008628Y-66957142D01*
X90008628Y-66957142D02*
X90008628Y-67338094D01*
X90484819Y-66290475D02*
X90484819Y-66099999D01*
X90484819Y-66099999D02*
X90437200Y-66004761D01*
X90437200Y-66004761D02*
X90389580Y-65957142D01*
X90389580Y-65957142D02*
X90246723Y-65861904D01*
X90246723Y-65861904D02*
X90056247Y-65814285D01*
X90056247Y-65814285D02*
X89675295Y-65814285D01*
X89675295Y-65814285D02*
X89580057Y-65861904D01*
X89580057Y-65861904D02*
X89532438Y-65909523D01*
X89532438Y-65909523D02*
X89484819Y-66004761D01*
X89484819Y-66004761D02*
X89484819Y-66195237D01*
X89484819Y-66195237D02*
X89532438Y-66290475D01*
X89532438Y-66290475D02*
X89580057Y-66338094D01*
X89580057Y-66338094D02*
X89675295Y-66385713D01*
X89675295Y-66385713D02*
X89913390Y-66385713D01*
X89913390Y-66385713D02*
X90008628Y-66338094D01*
X90008628Y-66338094D02*
X90056247Y-66290475D01*
X90056247Y-66290475D02*
X90103866Y-66195237D01*
X90103866Y-66195237D02*
X90103866Y-66004761D01*
X90103866Y-66004761D02*
X90056247Y-65909523D01*
X90056247Y-65909523D02*
X90008628Y-65861904D01*
X90008628Y-65861904D02*
X89913390Y-65814285D01*
X63654761Y-74800057D02*
X63559523Y-74752438D01*
X63559523Y-74752438D02*
X63464285Y-74657200D01*
X63464285Y-74657200D02*
X63321428Y-74514342D01*
X63321428Y-74514342D02*
X63226190Y-74466723D01*
X63226190Y-74466723D02*
X63130952Y-74466723D01*
X63178571Y-74704819D02*
X63083333Y-74657200D01*
X63083333Y-74657200D02*
X62988095Y-74561961D01*
X62988095Y-74561961D02*
X62940476Y-74371485D01*
X62940476Y-74371485D02*
X62940476Y-74038152D01*
X62940476Y-74038152D02*
X62988095Y-73847676D01*
X62988095Y-73847676D02*
X63083333Y-73752438D01*
X63083333Y-73752438D02*
X63178571Y-73704819D01*
X63178571Y-73704819D02*
X63369047Y-73704819D01*
X63369047Y-73704819D02*
X63464285Y-73752438D01*
X63464285Y-73752438D02*
X63559523Y-73847676D01*
X63559523Y-73847676D02*
X63607142Y-74038152D01*
X63607142Y-74038152D02*
X63607142Y-74371485D01*
X63607142Y-74371485D02*
X63559523Y-74561961D01*
X63559523Y-74561961D02*
X63464285Y-74657200D01*
X63464285Y-74657200D02*
X63369047Y-74704819D01*
X63369047Y-74704819D02*
X63178571Y-74704819D01*
X64178571Y-74133390D02*
X64083333Y-74085771D01*
X64083333Y-74085771D02*
X64035714Y-74038152D01*
X64035714Y-74038152D02*
X63988095Y-73942914D01*
X63988095Y-73942914D02*
X63988095Y-73895295D01*
X63988095Y-73895295D02*
X64035714Y-73800057D01*
X64035714Y-73800057D02*
X64083333Y-73752438D01*
X64083333Y-73752438D02*
X64178571Y-73704819D01*
X64178571Y-73704819D02*
X64369047Y-73704819D01*
X64369047Y-73704819D02*
X64464285Y-73752438D01*
X64464285Y-73752438D02*
X64511904Y-73800057D01*
X64511904Y-73800057D02*
X64559523Y-73895295D01*
X64559523Y-73895295D02*
X64559523Y-73942914D01*
X64559523Y-73942914D02*
X64511904Y-74038152D01*
X64511904Y-74038152D02*
X64464285Y-74085771D01*
X64464285Y-74085771D02*
X64369047Y-74133390D01*
X64369047Y-74133390D02*
X64178571Y-74133390D01*
X64178571Y-74133390D02*
X64083333Y-74181009D01*
X64083333Y-74181009D02*
X64035714Y-74228628D01*
X64035714Y-74228628D02*
X63988095Y-74323866D01*
X63988095Y-74323866D02*
X63988095Y-74514342D01*
X63988095Y-74514342D02*
X64035714Y-74609580D01*
X64035714Y-74609580D02*
X64083333Y-74657200D01*
X64083333Y-74657200D02*
X64178571Y-74704819D01*
X64178571Y-74704819D02*
X64369047Y-74704819D01*
X64369047Y-74704819D02*
X64464285Y-74657200D01*
X64464285Y-74657200D02*
X64511904Y-74609580D01*
X64511904Y-74609580D02*
X64559523Y-74514342D01*
X64559523Y-74514342D02*
X64559523Y-74323866D01*
X64559523Y-74323866D02*
X64511904Y-74228628D01*
X64511904Y-74228628D02*
X64464285Y-74181009D01*
X64464285Y-74181009D02*
X64369047Y-74133390D01*
X74904761Y-77550057D02*
X74809523Y-77502438D01*
X74809523Y-77502438D02*
X74714285Y-77407200D01*
X74714285Y-77407200D02*
X74571428Y-77264342D01*
X74571428Y-77264342D02*
X74476190Y-77216723D01*
X74476190Y-77216723D02*
X74380952Y-77216723D01*
X74428571Y-77454819D02*
X74333333Y-77407200D01*
X74333333Y-77407200D02*
X74238095Y-77311961D01*
X74238095Y-77311961D02*
X74190476Y-77121485D01*
X74190476Y-77121485D02*
X74190476Y-76788152D01*
X74190476Y-76788152D02*
X74238095Y-76597676D01*
X74238095Y-76597676D02*
X74333333Y-76502438D01*
X74333333Y-76502438D02*
X74428571Y-76454819D01*
X74428571Y-76454819D02*
X74619047Y-76454819D01*
X74619047Y-76454819D02*
X74714285Y-76502438D01*
X74714285Y-76502438D02*
X74809523Y-76597676D01*
X74809523Y-76597676D02*
X74857142Y-76788152D01*
X74857142Y-76788152D02*
X74857142Y-77121485D01*
X74857142Y-77121485D02*
X74809523Y-77311961D01*
X74809523Y-77311961D02*
X74714285Y-77407200D01*
X74714285Y-77407200D02*
X74619047Y-77454819D01*
X74619047Y-77454819D02*
X74428571Y-77454819D01*
X75190476Y-76454819D02*
X75809523Y-76454819D01*
X75809523Y-76454819D02*
X75476190Y-76835771D01*
X75476190Y-76835771D02*
X75619047Y-76835771D01*
X75619047Y-76835771D02*
X75714285Y-76883390D01*
X75714285Y-76883390D02*
X75761904Y-76931009D01*
X75761904Y-76931009D02*
X75809523Y-77026247D01*
X75809523Y-77026247D02*
X75809523Y-77264342D01*
X75809523Y-77264342D02*
X75761904Y-77359580D01*
X75761904Y-77359580D02*
X75714285Y-77407200D01*
X75714285Y-77407200D02*
X75619047Y-77454819D01*
X75619047Y-77454819D02*
X75333333Y-77454819D01*
X75333333Y-77454819D02*
X75238095Y-77407200D01*
X75238095Y-77407200D02*
X75190476Y-77359580D01*
X104684819Y-67242857D02*
X104208628Y-67576190D01*
X104684819Y-67814285D02*
X103684819Y-67814285D01*
X103684819Y-67814285D02*
X103684819Y-67433333D01*
X103684819Y-67433333D02*
X103732438Y-67338095D01*
X103732438Y-67338095D02*
X103780057Y-67290476D01*
X103780057Y-67290476D02*
X103875295Y-67242857D01*
X103875295Y-67242857D02*
X104018152Y-67242857D01*
X104018152Y-67242857D02*
X104113390Y-67290476D01*
X104113390Y-67290476D02*
X104161009Y-67338095D01*
X104161009Y-67338095D02*
X104208628Y-67433333D01*
X104208628Y-67433333D02*
X104208628Y-67814285D01*
X104684819Y-66290476D02*
X104684819Y-66861904D01*
X104684819Y-66576190D02*
X103684819Y-66576190D01*
X103684819Y-66576190D02*
X103827676Y-66671428D01*
X103827676Y-66671428D02*
X103922914Y-66766666D01*
X103922914Y-66766666D02*
X103970533Y-66861904D01*
X104684819Y-65814285D02*
X104684819Y-65623809D01*
X104684819Y-65623809D02*
X104637200Y-65528571D01*
X104637200Y-65528571D02*
X104589580Y-65480952D01*
X104589580Y-65480952D02*
X104446723Y-65385714D01*
X104446723Y-65385714D02*
X104256247Y-65338095D01*
X104256247Y-65338095D02*
X103875295Y-65338095D01*
X103875295Y-65338095D02*
X103780057Y-65385714D01*
X103780057Y-65385714D02*
X103732438Y-65433333D01*
X103732438Y-65433333D02*
X103684819Y-65528571D01*
X103684819Y-65528571D02*
X103684819Y-65719047D01*
X103684819Y-65719047D02*
X103732438Y-65814285D01*
X103732438Y-65814285D02*
X103780057Y-65861904D01*
X103780057Y-65861904D02*
X103875295Y-65909523D01*
X103875295Y-65909523D02*
X104113390Y-65909523D01*
X104113390Y-65909523D02*
X104208628Y-65861904D01*
X104208628Y-65861904D02*
X104256247Y-65814285D01*
X104256247Y-65814285D02*
X104303866Y-65719047D01*
X104303866Y-65719047D02*
X104303866Y-65528571D01*
X104303866Y-65528571D02*
X104256247Y-65433333D01*
X104256247Y-65433333D02*
X104208628Y-65385714D01*
X104208628Y-65385714D02*
X104113390Y-65338095D01*
X104684819Y-72042857D02*
X104208628Y-72376190D01*
X104684819Y-72614285D02*
X103684819Y-72614285D01*
X103684819Y-72614285D02*
X103684819Y-72233333D01*
X103684819Y-72233333D02*
X103732438Y-72138095D01*
X103732438Y-72138095D02*
X103780057Y-72090476D01*
X103780057Y-72090476D02*
X103875295Y-72042857D01*
X103875295Y-72042857D02*
X104018152Y-72042857D01*
X104018152Y-72042857D02*
X104113390Y-72090476D01*
X104113390Y-72090476D02*
X104161009Y-72138095D01*
X104161009Y-72138095D02*
X104208628Y-72233333D01*
X104208628Y-72233333D02*
X104208628Y-72614285D01*
X103780057Y-71661904D02*
X103732438Y-71614285D01*
X103732438Y-71614285D02*
X103684819Y-71519047D01*
X103684819Y-71519047D02*
X103684819Y-71280952D01*
X103684819Y-71280952D02*
X103732438Y-71185714D01*
X103732438Y-71185714D02*
X103780057Y-71138095D01*
X103780057Y-71138095D02*
X103875295Y-71090476D01*
X103875295Y-71090476D02*
X103970533Y-71090476D01*
X103970533Y-71090476D02*
X104113390Y-71138095D01*
X104113390Y-71138095D02*
X104684819Y-71709523D01*
X104684819Y-71709523D02*
X104684819Y-71090476D01*
X103684819Y-70471428D02*
X103684819Y-70376190D01*
X103684819Y-70376190D02*
X103732438Y-70280952D01*
X103732438Y-70280952D02*
X103780057Y-70233333D01*
X103780057Y-70233333D02*
X103875295Y-70185714D01*
X103875295Y-70185714D02*
X104065771Y-70138095D01*
X104065771Y-70138095D02*
X104303866Y-70138095D01*
X104303866Y-70138095D02*
X104494342Y-70185714D01*
X104494342Y-70185714D02*
X104589580Y-70233333D01*
X104589580Y-70233333D02*
X104637200Y-70280952D01*
X104637200Y-70280952D02*
X104684819Y-70376190D01*
X104684819Y-70376190D02*
X104684819Y-70471428D01*
X104684819Y-70471428D02*
X104637200Y-70566666D01*
X104637200Y-70566666D02*
X104589580Y-70614285D01*
X104589580Y-70614285D02*
X104494342Y-70661904D01*
X104494342Y-70661904D02*
X104303866Y-70709523D01*
X104303866Y-70709523D02*
X104065771Y-70709523D01*
X104065771Y-70709523D02*
X103875295Y-70661904D01*
X103875295Y-70661904D02*
X103780057Y-70614285D01*
X103780057Y-70614285D02*
X103732438Y-70566666D01*
X103732438Y-70566666D02*
X103684819Y-70471428D01*
X52166666Y-85934819D02*
X52166666Y-86649104D01*
X52166666Y-86649104D02*
X52119047Y-86791961D01*
X52119047Y-86791961D02*
X52023809Y-86887200D01*
X52023809Y-86887200D02*
X51880952Y-86934819D01*
X51880952Y-86934819D02*
X51785714Y-86934819D01*
X53166666Y-86934819D02*
X52595238Y-86934819D01*
X52880952Y-86934819D02*
X52880952Y-85934819D01*
X52880952Y-85934819D02*
X52785714Y-86077676D01*
X52785714Y-86077676D02*
X52690476Y-86172914D01*
X52690476Y-86172914D02*
X52595238Y-86220533D01*
X66254819Y-80538094D02*
X65254819Y-80538094D01*
X65254819Y-80538094D02*
X65254819Y-80299999D01*
X65254819Y-80299999D02*
X65302438Y-80157142D01*
X65302438Y-80157142D02*
X65397676Y-80061904D01*
X65397676Y-80061904D02*
X65492914Y-80014285D01*
X65492914Y-80014285D02*
X65683390Y-79966666D01*
X65683390Y-79966666D02*
X65826247Y-79966666D01*
X65826247Y-79966666D02*
X66016723Y-80014285D01*
X66016723Y-80014285D02*
X66111961Y-80061904D01*
X66111961Y-80061904D02*
X66207200Y-80157142D01*
X66207200Y-80157142D02*
X66254819Y-80299999D01*
X66254819Y-80299999D02*
X66254819Y-80538094D01*
X66254819Y-79014285D02*
X66254819Y-79585713D01*
X66254819Y-79299999D02*
X65254819Y-79299999D01*
X65254819Y-79299999D02*
X65397676Y-79395237D01*
X65397676Y-79395237D02*
X65492914Y-79490475D01*
X65492914Y-79490475D02*
X65540533Y-79585713D01*
X63904819Y-91338094D02*
X62904819Y-91338094D01*
X63904819Y-90766666D02*
X63333390Y-91195237D01*
X62904819Y-90766666D02*
X63476247Y-91338094D01*
X63904819Y-89814285D02*
X63904819Y-90385713D01*
X63904819Y-90099999D02*
X62904819Y-90099999D01*
X62904819Y-90099999D02*
X63047676Y-90195237D01*
X63047676Y-90195237D02*
X63142914Y-90290475D01*
X63142914Y-90290475D02*
X63190533Y-90385713D01*
X94484819Y-67242857D02*
X94008628Y-67576190D01*
X94484819Y-67814285D02*
X93484819Y-67814285D01*
X93484819Y-67814285D02*
X93484819Y-67433333D01*
X93484819Y-67433333D02*
X93532438Y-67338095D01*
X93532438Y-67338095D02*
X93580057Y-67290476D01*
X93580057Y-67290476D02*
X93675295Y-67242857D01*
X93675295Y-67242857D02*
X93818152Y-67242857D01*
X93818152Y-67242857D02*
X93913390Y-67290476D01*
X93913390Y-67290476D02*
X93961009Y-67338095D01*
X93961009Y-67338095D02*
X94008628Y-67433333D01*
X94008628Y-67433333D02*
X94008628Y-67814285D01*
X94484819Y-66290476D02*
X94484819Y-66861904D01*
X94484819Y-66576190D02*
X93484819Y-66576190D01*
X93484819Y-66576190D02*
X93627676Y-66671428D01*
X93627676Y-66671428D02*
X93722914Y-66766666D01*
X93722914Y-66766666D02*
X93770533Y-66861904D01*
X94484819Y-65338095D02*
X94484819Y-65909523D01*
X94484819Y-65623809D02*
X93484819Y-65623809D01*
X93484819Y-65623809D02*
X93627676Y-65719047D01*
X93627676Y-65719047D02*
X93722914Y-65814285D01*
X93722914Y-65814285D02*
X93770533Y-65909523D01*
X96854819Y-80538094D02*
X95854819Y-80538094D01*
X95854819Y-80538094D02*
X95854819Y-80299999D01*
X95854819Y-80299999D02*
X95902438Y-80157142D01*
X95902438Y-80157142D02*
X95997676Y-80061904D01*
X95997676Y-80061904D02*
X96092914Y-80014285D01*
X96092914Y-80014285D02*
X96283390Y-79966666D01*
X96283390Y-79966666D02*
X96426247Y-79966666D01*
X96426247Y-79966666D02*
X96616723Y-80014285D01*
X96616723Y-80014285D02*
X96711961Y-80061904D01*
X96711961Y-80061904D02*
X96807200Y-80157142D01*
X96807200Y-80157142D02*
X96854819Y-80299999D01*
X96854819Y-80299999D02*
X96854819Y-80538094D01*
X96854819Y-79490475D02*
X96854819Y-79299999D01*
X96854819Y-79299999D02*
X96807200Y-79204761D01*
X96807200Y-79204761D02*
X96759580Y-79157142D01*
X96759580Y-79157142D02*
X96616723Y-79061904D01*
X96616723Y-79061904D02*
X96426247Y-79014285D01*
X96426247Y-79014285D02*
X96045295Y-79014285D01*
X96045295Y-79014285D02*
X95950057Y-79061904D01*
X95950057Y-79061904D02*
X95902438Y-79109523D01*
X95902438Y-79109523D02*
X95854819Y-79204761D01*
X95854819Y-79204761D02*
X95854819Y-79395237D01*
X95854819Y-79395237D02*
X95902438Y-79490475D01*
X95902438Y-79490475D02*
X95950057Y-79538094D01*
X95950057Y-79538094D02*
X96045295Y-79585713D01*
X96045295Y-79585713D02*
X96283390Y-79585713D01*
X96283390Y-79585713D02*
X96378628Y-79538094D01*
X96378628Y-79538094D02*
X96426247Y-79490475D01*
X96426247Y-79490475D02*
X96473866Y-79395237D01*
X96473866Y-79395237D02*
X96473866Y-79204761D01*
X96473866Y-79204761D02*
X96426247Y-79109523D01*
X96426247Y-79109523D02*
X96378628Y-79061904D01*
X96378628Y-79061904D02*
X96283390Y-79014285D01*
X90484819Y-72042857D02*
X90008628Y-72376190D01*
X90484819Y-72614285D02*
X89484819Y-72614285D01*
X89484819Y-72614285D02*
X89484819Y-72233333D01*
X89484819Y-72233333D02*
X89532438Y-72138095D01*
X89532438Y-72138095D02*
X89580057Y-72090476D01*
X89580057Y-72090476D02*
X89675295Y-72042857D01*
X89675295Y-72042857D02*
X89818152Y-72042857D01*
X89818152Y-72042857D02*
X89913390Y-72090476D01*
X89913390Y-72090476D02*
X89961009Y-72138095D01*
X89961009Y-72138095D02*
X90008628Y-72233333D01*
X90008628Y-72233333D02*
X90008628Y-72614285D01*
X90484819Y-71090476D02*
X90484819Y-71661904D01*
X90484819Y-71376190D02*
X89484819Y-71376190D01*
X89484819Y-71376190D02*
X89627676Y-71471428D01*
X89627676Y-71471428D02*
X89722914Y-71566666D01*
X89722914Y-71566666D02*
X89770533Y-71661904D01*
X89484819Y-70471428D02*
X89484819Y-70376190D01*
X89484819Y-70376190D02*
X89532438Y-70280952D01*
X89532438Y-70280952D02*
X89580057Y-70233333D01*
X89580057Y-70233333D02*
X89675295Y-70185714D01*
X89675295Y-70185714D02*
X89865771Y-70138095D01*
X89865771Y-70138095D02*
X90103866Y-70138095D01*
X90103866Y-70138095D02*
X90294342Y-70185714D01*
X90294342Y-70185714D02*
X90389580Y-70233333D01*
X90389580Y-70233333D02*
X90437200Y-70280952D01*
X90437200Y-70280952D02*
X90484819Y-70376190D01*
X90484819Y-70376190D02*
X90484819Y-70471428D01*
X90484819Y-70471428D02*
X90437200Y-70566666D01*
X90437200Y-70566666D02*
X90389580Y-70614285D01*
X90389580Y-70614285D02*
X90294342Y-70661904D01*
X90294342Y-70661904D02*
X90103866Y-70709523D01*
X90103866Y-70709523D02*
X89865771Y-70709523D01*
X89865771Y-70709523D02*
X89675295Y-70661904D01*
X89675295Y-70661904D02*
X89580057Y-70614285D01*
X89580057Y-70614285D02*
X89532438Y-70566666D01*
X89532438Y-70566666D02*
X89484819Y-70471428D01*
X100684819Y-72042857D02*
X100208628Y-72376190D01*
X100684819Y-72614285D02*
X99684819Y-72614285D01*
X99684819Y-72614285D02*
X99684819Y-72233333D01*
X99684819Y-72233333D02*
X99732438Y-72138095D01*
X99732438Y-72138095D02*
X99780057Y-72090476D01*
X99780057Y-72090476D02*
X99875295Y-72042857D01*
X99875295Y-72042857D02*
X100018152Y-72042857D01*
X100018152Y-72042857D02*
X100113390Y-72090476D01*
X100113390Y-72090476D02*
X100161009Y-72138095D01*
X100161009Y-72138095D02*
X100208628Y-72233333D01*
X100208628Y-72233333D02*
X100208628Y-72614285D01*
X100684819Y-71090476D02*
X100684819Y-71661904D01*
X100684819Y-71376190D02*
X99684819Y-71376190D01*
X99684819Y-71376190D02*
X99827676Y-71471428D01*
X99827676Y-71471428D02*
X99922914Y-71566666D01*
X99922914Y-71566666D02*
X99970533Y-71661904D01*
X100113390Y-70519047D02*
X100065771Y-70614285D01*
X100065771Y-70614285D02*
X100018152Y-70661904D01*
X100018152Y-70661904D02*
X99922914Y-70709523D01*
X99922914Y-70709523D02*
X99875295Y-70709523D01*
X99875295Y-70709523D02*
X99780057Y-70661904D01*
X99780057Y-70661904D02*
X99732438Y-70614285D01*
X99732438Y-70614285D02*
X99684819Y-70519047D01*
X99684819Y-70519047D02*
X99684819Y-70328571D01*
X99684819Y-70328571D02*
X99732438Y-70233333D01*
X99732438Y-70233333D02*
X99780057Y-70185714D01*
X99780057Y-70185714D02*
X99875295Y-70138095D01*
X99875295Y-70138095D02*
X99922914Y-70138095D01*
X99922914Y-70138095D02*
X100018152Y-70185714D01*
X100018152Y-70185714D02*
X100065771Y-70233333D01*
X100065771Y-70233333D02*
X100113390Y-70328571D01*
X100113390Y-70328571D02*
X100113390Y-70519047D01*
X100113390Y-70519047D02*
X100161009Y-70614285D01*
X100161009Y-70614285D02*
X100208628Y-70661904D01*
X100208628Y-70661904D02*
X100303866Y-70709523D01*
X100303866Y-70709523D02*
X100494342Y-70709523D01*
X100494342Y-70709523D02*
X100589580Y-70661904D01*
X100589580Y-70661904D02*
X100637200Y-70614285D01*
X100637200Y-70614285D02*
X100684819Y-70519047D01*
X100684819Y-70519047D02*
X100684819Y-70328571D01*
X100684819Y-70328571D02*
X100637200Y-70233333D01*
X100637200Y-70233333D02*
X100589580Y-70185714D01*
X100589580Y-70185714D02*
X100494342Y-70138095D01*
X100494342Y-70138095D02*
X100303866Y-70138095D01*
X100303866Y-70138095D02*
X100208628Y-70185714D01*
X100208628Y-70185714D02*
X100161009Y-70233333D01*
X100161009Y-70233333D02*
X100113390Y-70328571D01*
X83904761Y-74800057D02*
X83809523Y-74752438D01*
X83809523Y-74752438D02*
X83714285Y-74657200D01*
X83714285Y-74657200D02*
X83571428Y-74514342D01*
X83571428Y-74514342D02*
X83476190Y-74466723D01*
X83476190Y-74466723D02*
X83380952Y-74466723D01*
X83428571Y-74704819D02*
X83333333Y-74657200D01*
X83333333Y-74657200D02*
X83238095Y-74561961D01*
X83238095Y-74561961D02*
X83190476Y-74371485D01*
X83190476Y-74371485D02*
X83190476Y-74038152D01*
X83190476Y-74038152D02*
X83238095Y-73847676D01*
X83238095Y-73847676D02*
X83333333Y-73752438D01*
X83333333Y-73752438D02*
X83428571Y-73704819D01*
X83428571Y-73704819D02*
X83619047Y-73704819D01*
X83619047Y-73704819D02*
X83714285Y-73752438D01*
X83714285Y-73752438D02*
X83809523Y-73847676D01*
X83809523Y-73847676D02*
X83857142Y-74038152D01*
X83857142Y-74038152D02*
X83857142Y-74371485D01*
X83857142Y-74371485D02*
X83809523Y-74561961D01*
X83809523Y-74561961D02*
X83714285Y-74657200D01*
X83714285Y-74657200D02*
X83619047Y-74704819D01*
X83619047Y-74704819D02*
X83428571Y-74704819D01*
X84714285Y-74038152D02*
X84714285Y-74704819D01*
X84476190Y-73657200D02*
X84238095Y-74371485D01*
X84238095Y-74371485D02*
X84857142Y-74371485D01*
X69909580Y-59766666D02*
X69957200Y-59814285D01*
X69957200Y-59814285D02*
X70004819Y-59957142D01*
X70004819Y-59957142D02*
X70004819Y-60052380D01*
X70004819Y-60052380D02*
X69957200Y-60195237D01*
X69957200Y-60195237D02*
X69861961Y-60290475D01*
X69861961Y-60290475D02*
X69766723Y-60338094D01*
X69766723Y-60338094D02*
X69576247Y-60385713D01*
X69576247Y-60385713D02*
X69433390Y-60385713D01*
X69433390Y-60385713D02*
X69242914Y-60338094D01*
X69242914Y-60338094D02*
X69147676Y-60290475D01*
X69147676Y-60290475D02*
X69052438Y-60195237D01*
X69052438Y-60195237D02*
X69004819Y-60052380D01*
X69004819Y-60052380D02*
X69004819Y-59957142D01*
X69004819Y-59957142D02*
X69052438Y-59814285D01*
X69052438Y-59814285D02*
X69100057Y-59766666D01*
X69338152Y-58909523D02*
X70004819Y-58909523D01*
X68957200Y-59147618D02*
X69671485Y-59385713D01*
X69671485Y-59385713D02*
X69671485Y-58766666D01*
X84284819Y-71566666D02*
X83808628Y-71899999D01*
X84284819Y-72138094D02*
X83284819Y-72138094D01*
X83284819Y-72138094D02*
X83284819Y-71757142D01*
X83284819Y-71757142D02*
X83332438Y-71661904D01*
X83332438Y-71661904D02*
X83380057Y-71614285D01*
X83380057Y-71614285D02*
X83475295Y-71566666D01*
X83475295Y-71566666D02*
X83618152Y-71566666D01*
X83618152Y-71566666D02*
X83713390Y-71614285D01*
X83713390Y-71614285D02*
X83761009Y-71661904D01*
X83761009Y-71661904D02*
X83808628Y-71757142D01*
X83808628Y-71757142D02*
X83808628Y-72138094D01*
X83713390Y-70995237D02*
X83665771Y-71090475D01*
X83665771Y-71090475D02*
X83618152Y-71138094D01*
X83618152Y-71138094D02*
X83522914Y-71185713D01*
X83522914Y-71185713D02*
X83475295Y-71185713D01*
X83475295Y-71185713D02*
X83380057Y-71138094D01*
X83380057Y-71138094D02*
X83332438Y-71090475D01*
X83332438Y-71090475D02*
X83284819Y-70995237D01*
X83284819Y-70995237D02*
X83284819Y-70804761D01*
X83284819Y-70804761D02*
X83332438Y-70709523D01*
X83332438Y-70709523D02*
X83380057Y-70661904D01*
X83380057Y-70661904D02*
X83475295Y-70614285D01*
X83475295Y-70614285D02*
X83522914Y-70614285D01*
X83522914Y-70614285D02*
X83618152Y-70661904D01*
X83618152Y-70661904D02*
X83665771Y-70709523D01*
X83665771Y-70709523D02*
X83713390Y-70804761D01*
X83713390Y-70804761D02*
X83713390Y-70995237D01*
X83713390Y-70995237D02*
X83761009Y-71090475D01*
X83761009Y-71090475D02*
X83808628Y-71138094D01*
X83808628Y-71138094D02*
X83903866Y-71185713D01*
X83903866Y-71185713D02*
X84094342Y-71185713D01*
X84094342Y-71185713D02*
X84189580Y-71138094D01*
X84189580Y-71138094D02*
X84237200Y-71090475D01*
X84237200Y-71090475D02*
X84284819Y-70995237D01*
X84284819Y-70995237D02*
X84284819Y-70804761D01*
X84284819Y-70804761D02*
X84237200Y-70709523D01*
X84237200Y-70709523D02*
X84189580Y-70661904D01*
X84189580Y-70661904D02*
X84094342Y-70614285D01*
X84094342Y-70614285D02*
X83903866Y-70614285D01*
X83903866Y-70614285D02*
X83808628Y-70661904D01*
X83808628Y-70661904D02*
X83761009Y-70709523D01*
X83761009Y-70709523D02*
X83713390Y-70804761D01*
X101109580Y-59766666D02*
X101157200Y-59814285D01*
X101157200Y-59814285D02*
X101204819Y-59957142D01*
X101204819Y-59957142D02*
X101204819Y-60052380D01*
X101204819Y-60052380D02*
X101157200Y-60195237D01*
X101157200Y-60195237D02*
X101061961Y-60290475D01*
X101061961Y-60290475D02*
X100966723Y-60338094D01*
X100966723Y-60338094D02*
X100776247Y-60385713D01*
X100776247Y-60385713D02*
X100633390Y-60385713D01*
X100633390Y-60385713D02*
X100442914Y-60338094D01*
X100442914Y-60338094D02*
X100347676Y-60290475D01*
X100347676Y-60290475D02*
X100252438Y-60195237D01*
X100252438Y-60195237D02*
X100204819Y-60052380D01*
X100204819Y-60052380D02*
X100204819Y-59957142D01*
X100204819Y-59957142D02*
X100252438Y-59814285D01*
X100252438Y-59814285D02*
X100300057Y-59766666D01*
X101204819Y-58814285D02*
X101204819Y-59385713D01*
X101204819Y-59099999D02*
X100204819Y-59099999D01*
X100204819Y-59099999D02*
X100347676Y-59195237D01*
X100347676Y-59195237D02*
X100442914Y-59290475D01*
X100442914Y-59290475D02*
X100490533Y-59385713D01*
X92777142Y-102874819D02*
X92443809Y-102398628D01*
X92205714Y-102874819D02*
X92205714Y-101874819D01*
X92205714Y-101874819D02*
X92586666Y-101874819D01*
X92586666Y-101874819D02*
X92681904Y-101922438D01*
X92681904Y-101922438D02*
X92729523Y-101970057D01*
X92729523Y-101970057D02*
X92777142Y-102065295D01*
X92777142Y-102065295D02*
X92777142Y-102208152D01*
X92777142Y-102208152D02*
X92729523Y-102303390D01*
X92729523Y-102303390D02*
X92681904Y-102351009D01*
X92681904Y-102351009D02*
X92586666Y-102398628D01*
X92586666Y-102398628D02*
X92205714Y-102398628D01*
X93110476Y-101874819D02*
X93729523Y-101874819D01*
X93729523Y-101874819D02*
X93396190Y-102255771D01*
X93396190Y-102255771D02*
X93539047Y-102255771D01*
X93539047Y-102255771D02*
X93634285Y-102303390D01*
X93634285Y-102303390D02*
X93681904Y-102351009D01*
X93681904Y-102351009D02*
X93729523Y-102446247D01*
X93729523Y-102446247D02*
X93729523Y-102684342D01*
X93729523Y-102684342D02*
X93681904Y-102779580D01*
X93681904Y-102779580D02*
X93634285Y-102827200D01*
X93634285Y-102827200D02*
X93539047Y-102874819D01*
X93539047Y-102874819D02*
X93253333Y-102874819D01*
X93253333Y-102874819D02*
X93158095Y-102827200D01*
X93158095Y-102827200D02*
X93110476Y-102779580D01*
X94062857Y-101874819D02*
X94681904Y-101874819D01*
X94681904Y-101874819D02*
X94348571Y-102255771D01*
X94348571Y-102255771D02*
X94491428Y-102255771D01*
X94491428Y-102255771D02*
X94586666Y-102303390D01*
X94586666Y-102303390D02*
X94634285Y-102351009D01*
X94634285Y-102351009D02*
X94681904Y-102446247D01*
X94681904Y-102446247D02*
X94681904Y-102684342D01*
X94681904Y-102684342D02*
X94634285Y-102779580D01*
X94634285Y-102779580D02*
X94586666Y-102827200D01*
X94586666Y-102827200D02*
X94491428Y-102874819D01*
X94491428Y-102874819D02*
X94205714Y-102874819D01*
X94205714Y-102874819D02*
X94110476Y-102827200D01*
X94110476Y-102827200D02*
X94062857Y-102779580D01*
X84304819Y-91338094D02*
X83304819Y-91338094D01*
X84304819Y-90766666D02*
X83733390Y-91195237D01*
X83304819Y-90766666D02*
X83876247Y-91338094D01*
X83304819Y-90433332D02*
X83304819Y-89814285D01*
X83304819Y-89814285D02*
X83685771Y-90147618D01*
X83685771Y-90147618D02*
X83685771Y-90004761D01*
X83685771Y-90004761D02*
X83733390Y-89909523D01*
X83733390Y-89909523D02*
X83781009Y-89861904D01*
X83781009Y-89861904D02*
X83876247Y-89814285D01*
X83876247Y-89814285D02*
X84114342Y-89814285D01*
X84114342Y-89814285D02*
X84209580Y-89861904D01*
X84209580Y-89861904D02*
X84257200Y-89909523D01*
X84257200Y-89909523D02*
X84304819Y-90004761D01*
X84304819Y-90004761D02*
X84304819Y-90290475D01*
X84304819Y-90290475D02*
X84257200Y-90385713D01*
X84257200Y-90385713D02*
X84209580Y-90433332D01*
X94504819Y-91338094D02*
X93504819Y-91338094D01*
X94504819Y-90766666D02*
X93933390Y-91195237D01*
X93504819Y-90766666D02*
X94076247Y-91338094D01*
X93504819Y-89861904D02*
X93504819Y-90338094D01*
X93504819Y-90338094D02*
X93981009Y-90385713D01*
X93981009Y-90385713D02*
X93933390Y-90338094D01*
X93933390Y-90338094D02*
X93885771Y-90242856D01*
X93885771Y-90242856D02*
X93885771Y-90004761D01*
X93885771Y-90004761D02*
X93933390Y-89909523D01*
X93933390Y-89909523D02*
X93981009Y-89861904D01*
X93981009Y-89861904D02*
X94076247Y-89814285D01*
X94076247Y-89814285D02*
X94314342Y-89814285D01*
X94314342Y-89814285D02*
X94409580Y-89861904D01*
X94409580Y-89861904D02*
X94457200Y-89909523D01*
X94457200Y-89909523D02*
X94504819Y-90004761D01*
X94504819Y-90004761D02*
X94504819Y-90242856D01*
X94504819Y-90242856D02*
X94457200Y-90338094D01*
X94457200Y-90338094D02*
X94409580Y-90385713D01*
X60054819Y-80538094D02*
X59054819Y-80538094D01*
X59054819Y-80538094D02*
X59054819Y-80299999D01*
X59054819Y-80299999D02*
X59102438Y-80157142D01*
X59102438Y-80157142D02*
X59197676Y-80061904D01*
X59197676Y-80061904D02*
X59292914Y-80014285D01*
X59292914Y-80014285D02*
X59483390Y-79966666D01*
X59483390Y-79966666D02*
X59626247Y-79966666D01*
X59626247Y-79966666D02*
X59816723Y-80014285D01*
X59816723Y-80014285D02*
X59911961Y-80061904D01*
X59911961Y-80061904D02*
X60007200Y-80157142D01*
X60007200Y-80157142D02*
X60054819Y-80299999D01*
X60054819Y-80299999D02*
X60054819Y-80538094D01*
X59483390Y-79395237D02*
X59435771Y-79490475D01*
X59435771Y-79490475D02*
X59388152Y-79538094D01*
X59388152Y-79538094D02*
X59292914Y-79585713D01*
X59292914Y-79585713D02*
X59245295Y-79585713D01*
X59245295Y-79585713D02*
X59150057Y-79538094D01*
X59150057Y-79538094D02*
X59102438Y-79490475D01*
X59102438Y-79490475D02*
X59054819Y-79395237D01*
X59054819Y-79395237D02*
X59054819Y-79204761D01*
X59054819Y-79204761D02*
X59102438Y-79109523D01*
X59102438Y-79109523D02*
X59150057Y-79061904D01*
X59150057Y-79061904D02*
X59245295Y-79014285D01*
X59245295Y-79014285D02*
X59292914Y-79014285D01*
X59292914Y-79014285D02*
X59388152Y-79061904D01*
X59388152Y-79061904D02*
X59435771Y-79109523D01*
X59435771Y-79109523D02*
X59483390Y-79204761D01*
X59483390Y-79204761D02*
X59483390Y-79395237D01*
X59483390Y-79395237D02*
X59531009Y-79490475D01*
X59531009Y-79490475D02*
X59578628Y-79538094D01*
X59578628Y-79538094D02*
X59673866Y-79585713D01*
X59673866Y-79585713D02*
X59864342Y-79585713D01*
X59864342Y-79585713D02*
X59959580Y-79538094D01*
X59959580Y-79538094D02*
X60007200Y-79490475D01*
X60007200Y-79490475D02*
X60054819Y-79395237D01*
X60054819Y-79395237D02*
X60054819Y-79204761D01*
X60054819Y-79204761D02*
X60007200Y-79109523D01*
X60007200Y-79109523D02*
X59959580Y-79061904D01*
X59959580Y-79061904D02*
X59864342Y-79014285D01*
X59864342Y-79014285D02*
X59673866Y-79014285D01*
X59673866Y-79014285D02*
X59578628Y-79061904D01*
X59578628Y-79061904D02*
X59531009Y-79109523D01*
X59531009Y-79109523D02*
X59483390Y-79204761D01*
X79054819Y-57861904D02*
X79864342Y-57861904D01*
X79864342Y-57861904D02*
X79959580Y-57814285D01*
X79959580Y-57814285D02*
X80007200Y-57766666D01*
X80007200Y-57766666D02*
X80054819Y-57671428D01*
X80054819Y-57671428D02*
X80054819Y-57480952D01*
X80054819Y-57480952D02*
X80007200Y-57385714D01*
X80007200Y-57385714D02*
X79959580Y-57338095D01*
X79959580Y-57338095D02*
X79864342Y-57290476D01*
X79864342Y-57290476D02*
X79054819Y-57290476D01*
X80054819Y-56290476D02*
X80054819Y-56861904D01*
X80054819Y-56576190D02*
X79054819Y-56576190D01*
X79054819Y-56576190D02*
X79197676Y-56671428D01*
X79197676Y-56671428D02*
X79292914Y-56766666D01*
X79292914Y-56766666D02*
X79340533Y-56861904D01*
X69197142Y-112134819D02*
X68863809Y-111658628D01*
X68625714Y-112134819D02*
X68625714Y-111134819D01*
X68625714Y-111134819D02*
X69006666Y-111134819D01*
X69006666Y-111134819D02*
X69101904Y-111182438D01*
X69101904Y-111182438D02*
X69149523Y-111230057D01*
X69149523Y-111230057D02*
X69197142Y-111325295D01*
X69197142Y-111325295D02*
X69197142Y-111468152D01*
X69197142Y-111468152D02*
X69149523Y-111563390D01*
X69149523Y-111563390D02*
X69101904Y-111611009D01*
X69101904Y-111611009D02*
X69006666Y-111658628D01*
X69006666Y-111658628D02*
X68625714Y-111658628D01*
X69530476Y-111134819D02*
X70149523Y-111134819D01*
X70149523Y-111134819D02*
X69816190Y-111515771D01*
X69816190Y-111515771D02*
X69959047Y-111515771D01*
X69959047Y-111515771D02*
X70054285Y-111563390D01*
X70054285Y-111563390D02*
X70101904Y-111611009D01*
X70101904Y-111611009D02*
X70149523Y-111706247D01*
X70149523Y-111706247D02*
X70149523Y-111944342D01*
X70149523Y-111944342D02*
X70101904Y-112039580D01*
X70101904Y-112039580D02*
X70054285Y-112087200D01*
X70054285Y-112087200D02*
X69959047Y-112134819D01*
X69959047Y-112134819D02*
X69673333Y-112134819D01*
X69673333Y-112134819D02*
X69578095Y-112087200D01*
X69578095Y-112087200D02*
X69530476Y-112039580D01*
X71054285Y-111134819D02*
X70578095Y-111134819D01*
X70578095Y-111134819D02*
X70530476Y-111611009D01*
X70530476Y-111611009D02*
X70578095Y-111563390D01*
X70578095Y-111563390D02*
X70673333Y-111515771D01*
X70673333Y-111515771D02*
X70911428Y-111515771D01*
X70911428Y-111515771D02*
X71006666Y-111563390D01*
X71006666Y-111563390D02*
X71054285Y-111611009D01*
X71054285Y-111611009D02*
X71101904Y-111706247D01*
X71101904Y-111706247D02*
X71101904Y-111944342D01*
X71101904Y-111944342D02*
X71054285Y-112039580D01*
X71054285Y-112039580D02*
X71006666Y-112087200D01*
X71006666Y-112087200D02*
X70911428Y-112134819D01*
X70911428Y-112134819D02*
X70673333Y-112134819D01*
X70673333Y-112134819D02*
X70578095Y-112087200D01*
X70578095Y-112087200D02*
X70530476Y-112039580D01*
X87333333Y-107609580D02*
X87285714Y-107657200D01*
X87285714Y-107657200D02*
X87142857Y-107704819D01*
X87142857Y-107704819D02*
X87047619Y-107704819D01*
X87047619Y-107704819D02*
X86904762Y-107657200D01*
X86904762Y-107657200D02*
X86809524Y-107561961D01*
X86809524Y-107561961D02*
X86761905Y-107466723D01*
X86761905Y-107466723D02*
X86714286Y-107276247D01*
X86714286Y-107276247D02*
X86714286Y-107133390D01*
X86714286Y-107133390D02*
X86761905Y-106942914D01*
X86761905Y-106942914D02*
X86809524Y-106847676D01*
X86809524Y-106847676D02*
X86904762Y-106752438D01*
X86904762Y-106752438D02*
X87047619Y-106704819D01*
X87047619Y-106704819D02*
X87142857Y-106704819D01*
X87142857Y-106704819D02*
X87285714Y-106752438D01*
X87285714Y-106752438D02*
X87333333Y-106800057D01*
X87714286Y-106800057D02*
X87761905Y-106752438D01*
X87761905Y-106752438D02*
X87857143Y-106704819D01*
X87857143Y-106704819D02*
X88095238Y-106704819D01*
X88095238Y-106704819D02*
X88190476Y-106752438D01*
X88190476Y-106752438D02*
X88238095Y-106800057D01*
X88238095Y-106800057D02*
X88285714Y-106895295D01*
X88285714Y-106895295D02*
X88285714Y-106990533D01*
X88285714Y-106990533D02*
X88238095Y-107133390D01*
X88238095Y-107133390D02*
X87666667Y-107704819D01*
X87666667Y-107704819D02*
X88285714Y-107704819D01*
X85154761Y-77300057D02*
X85059523Y-77252438D01*
X85059523Y-77252438D02*
X84964285Y-77157200D01*
X84964285Y-77157200D02*
X84821428Y-77014342D01*
X84821428Y-77014342D02*
X84726190Y-76966723D01*
X84726190Y-76966723D02*
X84630952Y-76966723D01*
X84678571Y-77204819D02*
X84583333Y-77157200D01*
X84583333Y-77157200D02*
X84488095Y-77061961D01*
X84488095Y-77061961D02*
X84440476Y-76871485D01*
X84440476Y-76871485D02*
X84440476Y-76538152D01*
X84440476Y-76538152D02*
X84488095Y-76347676D01*
X84488095Y-76347676D02*
X84583333Y-76252438D01*
X84583333Y-76252438D02*
X84678571Y-76204819D01*
X84678571Y-76204819D02*
X84869047Y-76204819D01*
X84869047Y-76204819D02*
X84964285Y-76252438D01*
X84964285Y-76252438D02*
X85059523Y-76347676D01*
X85059523Y-76347676D02*
X85107142Y-76538152D01*
X85107142Y-76538152D02*
X85107142Y-76871485D01*
X85107142Y-76871485D02*
X85059523Y-77061961D01*
X85059523Y-77061961D02*
X84964285Y-77157200D01*
X84964285Y-77157200D02*
X84869047Y-77204819D01*
X84869047Y-77204819D02*
X84678571Y-77204819D01*
X86011904Y-76204819D02*
X85535714Y-76204819D01*
X85535714Y-76204819D02*
X85488095Y-76681009D01*
X85488095Y-76681009D02*
X85535714Y-76633390D01*
X85535714Y-76633390D02*
X85630952Y-76585771D01*
X85630952Y-76585771D02*
X85869047Y-76585771D01*
X85869047Y-76585771D02*
X85964285Y-76633390D01*
X85964285Y-76633390D02*
X86011904Y-76681009D01*
X86011904Y-76681009D02*
X86059523Y-76776247D01*
X86059523Y-76776247D02*
X86059523Y-77014342D01*
X86059523Y-77014342D02*
X86011904Y-77109580D01*
X86011904Y-77109580D02*
X85964285Y-77157200D01*
X85964285Y-77157200D02*
X85869047Y-77204819D01*
X85869047Y-77204819D02*
X85630952Y-77204819D01*
X85630952Y-77204819D02*
X85535714Y-77157200D01*
X85535714Y-77157200D02*
X85488095Y-77109580D01*
X63884819Y-67242857D02*
X63408628Y-67576190D01*
X63884819Y-67814285D02*
X62884819Y-67814285D01*
X62884819Y-67814285D02*
X62884819Y-67433333D01*
X62884819Y-67433333D02*
X62932438Y-67338095D01*
X62932438Y-67338095D02*
X62980057Y-67290476D01*
X62980057Y-67290476D02*
X63075295Y-67242857D01*
X63075295Y-67242857D02*
X63218152Y-67242857D01*
X63218152Y-67242857D02*
X63313390Y-67290476D01*
X63313390Y-67290476D02*
X63361009Y-67338095D01*
X63361009Y-67338095D02*
X63408628Y-67433333D01*
X63408628Y-67433333D02*
X63408628Y-67814285D01*
X63884819Y-66290476D02*
X63884819Y-66861904D01*
X63884819Y-66576190D02*
X62884819Y-66576190D01*
X62884819Y-66576190D02*
X63027676Y-66671428D01*
X63027676Y-66671428D02*
X63122914Y-66766666D01*
X63122914Y-66766666D02*
X63170533Y-66861904D01*
X62884819Y-65385714D02*
X62884819Y-65861904D01*
X62884819Y-65861904D02*
X63361009Y-65909523D01*
X63361009Y-65909523D02*
X63313390Y-65861904D01*
X63313390Y-65861904D02*
X63265771Y-65766666D01*
X63265771Y-65766666D02*
X63265771Y-65528571D01*
X63265771Y-65528571D02*
X63313390Y-65433333D01*
X63313390Y-65433333D02*
X63361009Y-65385714D01*
X63361009Y-65385714D02*
X63456247Y-65338095D01*
X63456247Y-65338095D02*
X63694342Y-65338095D01*
X63694342Y-65338095D02*
X63789580Y-65385714D01*
X63789580Y-65385714D02*
X63837200Y-65433333D01*
X63837200Y-65433333D02*
X63884819Y-65528571D01*
X63884819Y-65528571D02*
X63884819Y-65766666D01*
X63884819Y-65766666D02*
X63837200Y-65861904D01*
X63837200Y-65861904D02*
X63789580Y-65909523D01*
X74084819Y-71566666D02*
X73608628Y-71899999D01*
X74084819Y-72138094D02*
X73084819Y-72138094D01*
X73084819Y-72138094D02*
X73084819Y-71757142D01*
X73084819Y-71757142D02*
X73132438Y-71661904D01*
X73132438Y-71661904D02*
X73180057Y-71614285D01*
X73180057Y-71614285D02*
X73275295Y-71566666D01*
X73275295Y-71566666D02*
X73418152Y-71566666D01*
X73418152Y-71566666D02*
X73513390Y-71614285D01*
X73513390Y-71614285D02*
X73561009Y-71661904D01*
X73561009Y-71661904D02*
X73608628Y-71757142D01*
X73608628Y-71757142D02*
X73608628Y-72138094D01*
X73418152Y-70709523D02*
X74084819Y-70709523D01*
X73037200Y-70947618D02*
X73751485Y-71185713D01*
X73751485Y-71185713D02*
X73751485Y-70566666D01*
X73654761Y-74800057D02*
X73559523Y-74752438D01*
X73559523Y-74752438D02*
X73464285Y-74657200D01*
X73464285Y-74657200D02*
X73321428Y-74514342D01*
X73321428Y-74514342D02*
X73226190Y-74466723D01*
X73226190Y-74466723D02*
X73130952Y-74466723D01*
X73178571Y-74704819D02*
X73083333Y-74657200D01*
X73083333Y-74657200D02*
X72988095Y-74561961D01*
X72988095Y-74561961D02*
X72940476Y-74371485D01*
X72940476Y-74371485D02*
X72940476Y-74038152D01*
X72940476Y-74038152D02*
X72988095Y-73847676D01*
X72988095Y-73847676D02*
X73083333Y-73752438D01*
X73083333Y-73752438D02*
X73178571Y-73704819D01*
X73178571Y-73704819D02*
X73369047Y-73704819D01*
X73369047Y-73704819D02*
X73464285Y-73752438D01*
X73464285Y-73752438D02*
X73559523Y-73847676D01*
X73559523Y-73847676D02*
X73607142Y-74038152D01*
X73607142Y-74038152D02*
X73607142Y-74371485D01*
X73607142Y-74371485D02*
X73559523Y-74561961D01*
X73559523Y-74561961D02*
X73464285Y-74657200D01*
X73464285Y-74657200D02*
X73369047Y-74704819D01*
X73369047Y-74704819D02*
X73178571Y-74704819D01*
X73988095Y-73800057D02*
X74035714Y-73752438D01*
X74035714Y-73752438D02*
X74130952Y-73704819D01*
X74130952Y-73704819D02*
X74369047Y-73704819D01*
X74369047Y-73704819D02*
X74464285Y-73752438D01*
X74464285Y-73752438D02*
X74511904Y-73800057D01*
X74511904Y-73800057D02*
X74559523Y-73895295D01*
X74559523Y-73895295D02*
X74559523Y-73990533D01*
X74559523Y-73990533D02*
X74511904Y-74133390D01*
X74511904Y-74133390D02*
X73940476Y-74704819D01*
X73940476Y-74704819D02*
X74559523Y-74704819D01*
X80284819Y-66766666D02*
X79808628Y-67099999D01*
X80284819Y-67338094D02*
X79284819Y-67338094D01*
X79284819Y-67338094D02*
X79284819Y-66957142D01*
X79284819Y-66957142D02*
X79332438Y-66861904D01*
X79332438Y-66861904D02*
X79380057Y-66814285D01*
X79380057Y-66814285D02*
X79475295Y-66766666D01*
X79475295Y-66766666D02*
X79618152Y-66766666D01*
X79618152Y-66766666D02*
X79713390Y-66814285D01*
X79713390Y-66814285D02*
X79761009Y-66861904D01*
X79761009Y-66861904D02*
X79808628Y-66957142D01*
X79808628Y-66957142D02*
X79808628Y-67338094D01*
X79284819Y-65861904D02*
X79284819Y-66338094D01*
X79284819Y-66338094D02*
X79761009Y-66385713D01*
X79761009Y-66385713D02*
X79713390Y-66338094D01*
X79713390Y-66338094D02*
X79665771Y-66242856D01*
X79665771Y-66242856D02*
X79665771Y-66004761D01*
X79665771Y-66004761D02*
X79713390Y-65909523D01*
X79713390Y-65909523D02*
X79761009Y-65861904D01*
X79761009Y-65861904D02*
X79856247Y-65814285D01*
X79856247Y-65814285D02*
X80094342Y-65814285D01*
X80094342Y-65814285D02*
X80189580Y-65861904D01*
X80189580Y-65861904D02*
X80237200Y-65909523D01*
X80237200Y-65909523D02*
X80284819Y-66004761D01*
X80284819Y-66004761D02*
X80284819Y-66242856D01*
X80284819Y-66242856D02*
X80237200Y-66338094D01*
X80237200Y-66338094D02*
X80189580Y-66385713D01*
X74104819Y-91338094D02*
X73104819Y-91338094D01*
X74104819Y-90766666D02*
X73533390Y-91195237D01*
X73104819Y-90766666D02*
X73676247Y-91338094D01*
X73200057Y-90385713D02*
X73152438Y-90338094D01*
X73152438Y-90338094D02*
X73104819Y-90242856D01*
X73104819Y-90242856D02*
X73104819Y-90004761D01*
X73104819Y-90004761D02*
X73152438Y-89909523D01*
X73152438Y-89909523D02*
X73200057Y-89861904D01*
X73200057Y-89861904D02*
X73295295Y-89814285D01*
X73295295Y-89814285D02*
X73390533Y-89814285D01*
X73390533Y-89814285D02*
X73533390Y-89861904D01*
X73533390Y-89861904D02*
X74104819Y-90433332D01*
X74104819Y-90433332D02*
X74104819Y-89814285D01*
X75124819Y-60242857D02*
X74648628Y-60576190D01*
X75124819Y-60814285D02*
X74124819Y-60814285D01*
X74124819Y-60814285D02*
X74124819Y-60433333D01*
X74124819Y-60433333D02*
X74172438Y-60338095D01*
X74172438Y-60338095D02*
X74220057Y-60290476D01*
X74220057Y-60290476D02*
X74315295Y-60242857D01*
X74315295Y-60242857D02*
X74458152Y-60242857D01*
X74458152Y-60242857D02*
X74553390Y-60290476D01*
X74553390Y-60290476D02*
X74601009Y-60338095D01*
X74601009Y-60338095D02*
X74648628Y-60433333D01*
X74648628Y-60433333D02*
X74648628Y-60814285D01*
X74220057Y-59861904D02*
X74172438Y-59814285D01*
X74172438Y-59814285D02*
X74124819Y-59719047D01*
X74124819Y-59719047D02*
X74124819Y-59480952D01*
X74124819Y-59480952D02*
X74172438Y-59385714D01*
X74172438Y-59385714D02*
X74220057Y-59338095D01*
X74220057Y-59338095D02*
X74315295Y-59290476D01*
X74315295Y-59290476D02*
X74410533Y-59290476D01*
X74410533Y-59290476D02*
X74553390Y-59338095D01*
X74553390Y-59338095D02*
X75124819Y-59909523D01*
X75124819Y-59909523D02*
X75124819Y-59290476D01*
X74220057Y-58909523D02*
X74172438Y-58861904D01*
X74172438Y-58861904D02*
X74124819Y-58766666D01*
X74124819Y-58766666D02*
X74124819Y-58528571D01*
X74124819Y-58528571D02*
X74172438Y-58433333D01*
X74172438Y-58433333D02*
X74220057Y-58385714D01*
X74220057Y-58385714D02*
X74315295Y-58338095D01*
X74315295Y-58338095D02*
X74410533Y-58338095D01*
X74410533Y-58338095D02*
X74553390Y-58385714D01*
X74553390Y-58385714D02*
X75124819Y-58957142D01*
X75124819Y-58957142D02*
X75124819Y-58338095D01*
X94154761Y-74800057D02*
X94059523Y-74752438D01*
X94059523Y-74752438D02*
X93964285Y-74657200D01*
X93964285Y-74657200D02*
X93821428Y-74514342D01*
X93821428Y-74514342D02*
X93726190Y-74466723D01*
X93726190Y-74466723D02*
X93630952Y-74466723D01*
X93678571Y-74704819D02*
X93583333Y-74657200D01*
X93583333Y-74657200D02*
X93488095Y-74561961D01*
X93488095Y-74561961D02*
X93440476Y-74371485D01*
X93440476Y-74371485D02*
X93440476Y-74038152D01*
X93440476Y-74038152D02*
X93488095Y-73847676D01*
X93488095Y-73847676D02*
X93583333Y-73752438D01*
X93583333Y-73752438D02*
X93678571Y-73704819D01*
X93678571Y-73704819D02*
X93869047Y-73704819D01*
X93869047Y-73704819D02*
X93964285Y-73752438D01*
X93964285Y-73752438D02*
X94059523Y-73847676D01*
X94059523Y-73847676D02*
X94107142Y-74038152D01*
X94107142Y-74038152D02*
X94107142Y-74371485D01*
X94107142Y-74371485D02*
X94059523Y-74561961D01*
X94059523Y-74561961D02*
X93964285Y-74657200D01*
X93964285Y-74657200D02*
X93869047Y-74704819D01*
X93869047Y-74704819D02*
X93678571Y-74704819D01*
X94964285Y-73704819D02*
X94773809Y-73704819D01*
X94773809Y-73704819D02*
X94678571Y-73752438D01*
X94678571Y-73752438D02*
X94630952Y-73800057D01*
X94630952Y-73800057D02*
X94535714Y-73942914D01*
X94535714Y-73942914D02*
X94488095Y-74133390D01*
X94488095Y-74133390D02*
X94488095Y-74514342D01*
X94488095Y-74514342D02*
X94535714Y-74609580D01*
X94535714Y-74609580D02*
X94583333Y-74657200D01*
X94583333Y-74657200D02*
X94678571Y-74704819D01*
X94678571Y-74704819D02*
X94869047Y-74704819D01*
X94869047Y-74704819D02*
X94964285Y-74657200D01*
X94964285Y-74657200D02*
X95011904Y-74609580D01*
X95011904Y-74609580D02*
X95059523Y-74514342D01*
X95059523Y-74514342D02*
X95059523Y-74276247D01*
X95059523Y-74276247D02*
X95011904Y-74181009D01*
X95011904Y-74181009D02*
X94964285Y-74133390D01*
X94964285Y-74133390D02*
X94869047Y-74085771D01*
X94869047Y-74085771D02*
X94678571Y-74085771D01*
X94678571Y-74085771D02*
X94583333Y-74133390D01*
X94583333Y-74133390D02*
X94535714Y-74181009D01*
X94535714Y-74181009D02*
X94488095Y-74276247D01*
X59884819Y-72042857D02*
X59408628Y-72376190D01*
X59884819Y-72614285D02*
X58884819Y-72614285D01*
X58884819Y-72614285D02*
X58884819Y-72233333D01*
X58884819Y-72233333D02*
X58932438Y-72138095D01*
X58932438Y-72138095D02*
X58980057Y-72090476D01*
X58980057Y-72090476D02*
X59075295Y-72042857D01*
X59075295Y-72042857D02*
X59218152Y-72042857D01*
X59218152Y-72042857D02*
X59313390Y-72090476D01*
X59313390Y-72090476D02*
X59361009Y-72138095D01*
X59361009Y-72138095D02*
X59408628Y-72233333D01*
X59408628Y-72233333D02*
X59408628Y-72614285D01*
X59884819Y-71090476D02*
X59884819Y-71661904D01*
X59884819Y-71376190D02*
X58884819Y-71376190D01*
X58884819Y-71376190D02*
X59027676Y-71471428D01*
X59027676Y-71471428D02*
X59122914Y-71566666D01*
X59122914Y-71566666D02*
X59170533Y-71661904D01*
X59218152Y-70233333D02*
X59884819Y-70233333D01*
X58837200Y-70471428D02*
X59551485Y-70709523D01*
X59551485Y-70709523D02*
X59551485Y-70090476D01*
%TO.C,D5*%
D10*
X87200000Y-82160000D02*
X87200000Y-78150000D01*
X87200000Y-82160000D02*
X89200000Y-82160000D01*
X89200000Y-82160000D02*
X89200000Y-78150000D01*
%TO.C,D6*%
X91200000Y-82160000D02*
X91200000Y-78150000D01*
X91200000Y-82160000D02*
X93200000Y-82160000D01*
X93200000Y-82160000D02*
X93200000Y-78150000D01*
%TO.C,R23*%
X101690000Y-54827064D02*
X101690000Y-53372936D01*
X103510000Y-54827064D02*
X103510000Y-53372936D01*
%TO.C,R7*%
X81090000Y-65872936D02*
X81090000Y-67327064D01*
X82910000Y-65872936D02*
X82910000Y-67327064D01*
%TO.C,U2*%
X77940000Y-106540000D02*
X82060000Y-106540000D01*
X77940000Y-106635000D02*
X77940000Y-106540000D01*
X77940000Y-111660000D02*
X77940000Y-111565000D01*
X82060000Y-106540000D02*
X82060000Y-106635000D01*
X82060000Y-111565000D02*
X82060000Y-111660000D01*
X82060000Y-111660000D02*
X77940000Y-111660000D01*
X77400000Y-106630000D02*
X77160000Y-106300000D01*
X77640000Y-106300000D01*
X77400000Y-106630000D01*
G36*
X77400000Y-106630000D02*
G01*
X77160000Y-106300000D01*
X77640000Y-106300000D01*
X77400000Y-106630000D01*
G37*
%TO.C,Q9*%
X97640000Y-74040000D02*
X99160000Y-74040000D01*
X97640000Y-74090000D02*
X97640000Y-74040000D01*
X97640000Y-75990000D02*
X97640000Y-75210000D01*
X97640000Y-77160000D02*
X97640000Y-77110000D01*
X99160000Y-74040000D02*
X99160000Y-75040000D01*
X99160000Y-76160000D02*
X99160000Y-77160000D01*
X99160000Y-77160000D02*
X97640000Y-77160000D01*
X97100000Y-75220000D02*
X97340000Y-75550000D01*
X96860000Y-75550000D01*
X97100000Y-75220000D01*
G36*
X97340000Y-75550000D02*
G01*
X96860000Y-75550000D01*
X97100000Y-75220000D01*
X97340000Y-75550000D01*
G37*
%TO.C,R21*%
X75590000Y-54827064D02*
X75590000Y-53372936D01*
X77410000Y-54827064D02*
X77410000Y-53372936D01*
%TO.C,R6*%
X77090000Y-70672936D02*
X77090000Y-72127064D01*
X78910000Y-70672936D02*
X78910000Y-72127064D01*
%TO.C,R32*%
X75300000Y-98530000D02*
X82540000Y-98530000D01*
X75300000Y-100000000D02*
X74890000Y-100000000D01*
X75300000Y-101470000D02*
X75300000Y-98530000D01*
X82540000Y-98530000D02*
X82540000Y-101470000D01*
X82540000Y-101470000D02*
X75300000Y-101470000D01*
X82950000Y-100000000D02*
X82540000Y-100000000D01*
%TO.C,D4*%
X81000000Y-82160000D02*
X81000000Y-78150000D01*
X81000000Y-82160000D02*
X83000000Y-82160000D01*
X83000000Y-82160000D02*
X83000000Y-78150000D01*
%TO.C,Q10*%
X101640000Y-74040000D02*
X103160000Y-74040000D01*
X101640000Y-74090000D02*
X101640000Y-74040000D01*
X101640000Y-75990000D02*
X101640000Y-75210000D01*
X101640000Y-77160000D02*
X101640000Y-77110000D01*
X103160000Y-74040000D02*
X103160000Y-75040000D01*
X103160000Y-76160000D02*
X103160000Y-77160000D01*
X103160000Y-77160000D02*
X101640000Y-77160000D01*
X101100000Y-75220000D02*
X101340000Y-75550000D01*
X100860000Y-75550000D01*
X101100000Y-75220000D01*
G36*
X101340000Y-75550000D02*
G01*
X100860000Y-75550000D01*
X101100000Y-75220000D01*
X101340000Y-75550000D01*
G37*
%TO.C,D10*%
X101400000Y-82160000D02*
X101400000Y-78150000D01*
X101400000Y-82160000D02*
X103400000Y-82160000D01*
X103400000Y-82160000D02*
X103400000Y-78150000D01*
%TO.C,R31*%
X62300000Y-98530000D02*
X69540000Y-98530000D01*
X62300000Y-100000000D02*
X61890000Y-100000000D01*
X62300000Y-101470000D02*
X62300000Y-98530000D01*
X69540000Y-98530000D02*
X69540000Y-101470000D01*
X69540000Y-101470000D02*
X62300000Y-101470000D01*
X69950000Y-100000000D02*
X69540000Y-100000000D01*
%TO.C,K4*%
X54990000Y-83490000D02*
X64210000Y-83490000D01*
X54990000Y-97710000D02*
X54990000Y-83490000D01*
X63410000Y-98200000D02*
X62100000Y-98200000D01*
X63410000Y-98200000D02*
X63410000Y-96900000D01*
X64210000Y-83490000D02*
X64210000Y-97710000D01*
X64210000Y-97710000D02*
X54990000Y-97710000D01*
%TO.C,Q1*%
X67040000Y-74040000D02*
X68560000Y-74040000D01*
X67040000Y-74090000D02*
X67040000Y-74040000D01*
X67040000Y-75990000D02*
X67040000Y-75210000D01*
X67040000Y-77160000D02*
X67040000Y-77110000D01*
X68560000Y-74040000D02*
X68560000Y-75040000D01*
X68560000Y-76160000D02*
X68560000Y-77160000D01*
X68560000Y-77160000D02*
X67040000Y-77160000D01*
X66500000Y-75220000D02*
X66740000Y-75550000D01*
X66260000Y-75550000D01*
X66500000Y-75220000D01*
G36*
X66740000Y-75550000D02*
G01*
X66260000Y-75550000D01*
X66500000Y-75220000D01*
X66740000Y-75550000D01*
G37*
%TO.C,D7*%
X56600000Y-82160000D02*
X56600000Y-78150000D01*
X56600000Y-82160000D02*
X58600000Y-82160000D01*
X58600000Y-82160000D02*
X58600000Y-78150000D01*
%TO.C,D3*%
X77000000Y-82160000D02*
X77000000Y-78150000D01*
X77000000Y-82160000D02*
X79000000Y-82160000D01*
X79000000Y-82160000D02*
X79000000Y-78150000D01*
%TO.C,Q7*%
X56840000Y-74040000D02*
X58360000Y-74040000D01*
X56840000Y-74090000D02*
X56840000Y-74040000D01*
X56840000Y-75990000D02*
X56840000Y-75210000D01*
X56840000Y-77160000D02*
X56840000Y-77110000D01*
X58360000Y-74040000D02*
X58360000Y-75040000D01*
X58360000Y-76160000D02*
X58360000Y-77160000D01*
X58360000Y-77160000D02*
X56840000Y-77160000D01*
X56300000Y-75220000D02*
X56540000Y-75550000D01*
X56060000Y-75550000D01*
X56300000Y-75220000D01*
G36*
X56540000Y-75550000D02*
G01*
X56060000Y-75550000D01*
X56300000Y-75220000D01*
X56540000Y-75550000D01*
G37*
%TO.C,C3*%
X70490000Y-54811252D02*
X70490000Y-53388748D01*
X72310000Y-54811252D02*
X72310000Y-53388748D01*
%TO.C,R16*%
X60690000Y-70672936D02*
X60690000Y-72127064D01*
X62510000Y-70672936D02*
X62510000Y-72127064D01*
%TO.C,D2*%
X70800000Y-82160000D02*
X70800000Y-78150000D01*
X70800000Y-82160000D02*
X72800000Y-82160000D01*
X72800000Y-82160000D02*
X72800000Y-78150000D01*
%TO.C,R17*%
X97490000Y-65872936D02*
X97490000Y-67327064D01*
X99310000Y-65872936D02*
X99310000Y-67327064D01*
%TO.C,R3*%
X70890000Y-65872936D02*
X70890000Y-67327064D01*
X72710000Y-65872936D02*
X72710000Y-67327064D01*
%TO.C,R12*%
X91290000Y-70672936D02*
X91290000Y-72127064D01*
X93110000Y-70672936D02*
X93110000Y-72127064D01*
%TO.C,R2*%
X66890000Y-70672936D02*
X66890000Y-72127064D01*
X68710000Y-70672936D02*
X68710000Y-72127064D01*
%TO.C,R1*%
X66890000Y-65872936D02*
X66890000Y-67327064D01*
X68710000Y-65872936D02*
X68710000Y-67327064D01*
%TO.C,R13*%
X56690000Y-65872936D02*
X56690000Y-67327064D01*
X58510000Y-65872936D02*
X58510000Y-67327064D01*
%TO.C,R9*%
X87290000Y-65872936D02*
X87290000Y-67327064D01*
X89110000Y-65872936D02*
X89110000Y-67327064D01*
%TO.C,Q8*%
X60840000Y-74040000D02*
X62360000Y-74040000D01*
X60840000Y-74090000D02*
X60840000Y-74040000D01*
X60840000Y-75990000D02*
X60840000Y-75210000D01*
X60840000Y-77160000D02*
X60840000Y-77110000D01*
X62360000Y-74040000D02*
X62360000Y-75040000D01*
X62360000Y-76160000D02*
X62360000Y-77160000D01*
X62360000Y-77160000D02*
X60840000Y-77160000D01*
X60300000Y-75220000D02*
X60540000Y-75550000D01*
X60060000Y-75550000D01*
X60300000Y-75220000D01*
G36*
X60540000Y-75550000D02*
G01*
X60060000Y-75550000D01*
X60300000Y-75220000D01*
X60540000Y-75550000D01*
G37*
%TO.C,Q3*%
X77240000Y-74040000D02*
X78760000Y-74040000D01*
X77240000Y-74090000D02*
X77240000Y-74040000D01*
X77240000Y-75990000D02*
X77240000Y-75210000D01*
X77240000Y-77160000D02*
X77240000Y-77110000D01*
X78760000Y-74040000D02*
X78760000Y-75040000D01*
X78760000Y-76160000D02*
X78760000Y-77160000D01*
X78760000Y-77160000D02*
X77240000Y-77160000D01*
X76700000Y-75220000D02*
X76940000Y-75550000D01*
X76460000Y-75550000D01*
X76700000Y-75220000D01*
G36*
X76940000Y-75550000D02*
G01*
X76460000Y-75550000D01*
X76700000Y-75220000D01*
X76940000Y-75550000D01*
G37*
%TO.C,R19*%
X101490000Y-65872936D02*
X101490000Y-67327064D01*
X103310000Y-65872936D02*
X103310000Y-67327064D01*
%TO.C,R20*%
X101490000Y-70672936D02*
X101490000Y-72127064D01*
X103310000Y-70672936D02*
X103310000Y-72127064D01*
%TO.C,D1*%
X66800000Y-82160000D02*
X66800000Y-78150000D01*
X66800000Y-82160000D02*
X68800000Y-82160000D01*
X68800000Y-82160000D02*
X68800000Y-78150000D01*
%TO.C,K1*%
X65190000Y-83490000D02*
X74410000Y-83490000D01*
X65190000Y-97710000D02*
X65190000Y-83490000D01*
X73610000Y-98200000D02*
X72300000Y-98200000D01*
X73610000Y-98200000D02*
X73610000Y-96900000D01*
X74410000Y-83490000D02*
X74410000Y-97710000D01*
X74410000Y-97710000D02*
X65190000Y-97710000D01*
%TO.C,R11*%
X91290000Y-65872936D02*
X91290000Y-67327064D01*
X93110000Y-65872936D02*
X93110000Y-67327064D01*
%TO.C,D9*%
X97400000Y-82160000D02*
X97400000Y-78150000D01*
X97400000Y-82160000D02*
X99400000Y-82160000D01*
X99400000Y-82160000D02*
X99400000Y-78150000D01*
%TO.C,R10*%
X87290000Y-70672936D02*
X87290000Y-72127064D01*
X89110000Y-70672936D02*
X89110000Y-72127064D01*
%TO.C,R18*%
X97490000Y-70672936D02*
X97490000Y-72127064D01*
X99310000Y-70672936D02*
X99310000Y-72127064D01*
%TO.C,Q4*%
X81240000Y-74040000D02*
X82760000Y-74040000D01*
X81240000Y-74090000D02*
X81240000Y-74040000D01*
X81240000Y-75990000D02*
X81240000Y-75210000D01*
X81240000Y-77160000D02*
X81240000Y-77110000D01*
X82760000Y-74040000D02*
X82760000Y-75040000D01*
X82760000Y-76160000D02*
X82760000Y-77160000D01*
X82760000Y-77160000D02*
X81240000Y-77160000D01*
X80700000Y-75220000D02*
X80940000Y-75550000D01*
X80460000Y-75550000D01*
X80700000Y-75220000D01*
G36*
X80940000Y-75550000D02*
G01*
X80460000Y-75550000D01*
X80700000Y-75220000D01*
X80940000Y-75550000D01*
G37*
%TO.C,C4*%
X70490000Y-60311252D02*
X70490000Y-58888748D01*
X72310000Y-60311252D02*
X72310000Y-58888748D01*
%TO.C,R8*%
X81090000Y-70672936D02*
X81090000Y-72127064D01*
X82910000Y-70672936D02*
X82910000Y-72127064D01*
%TO.C,C1*%
X101690000Y-60311252D02*
X101690000Y-58888748D01*
X103510000Y-60311252D02*
X103510000Y-58888748D01*
%TO.C,R33*%
X85935000Y-98610000D02*
X100905000Y-98610000D01*
X85935000Y-101390000D02*
X85935000Y-98610000D01*
X100905000Y-98610000D02*
X100905000Y-101390000D01*
X100905000Y-101390000D02*
X85935000Y-101390000D01*
%TO.C,K3*%
X85590000Y-83490000D02*
X94810000Y-83490000D01*
X85590000Y-97710000D02*
X85590000Y-83490000D01*
X94010000Y-98200000D02*
X92700000Y-98200000D01*
X94010000Y-98200000D02*
X94010000Y-96900000D01*
X94810000Y-83490000D02*
X94810000Y-97710000D01*
X94810000Y-97710000D02*
X85590000Y-97710000D01*
%TO.C,K5*%
X95790000Y-83490000D02*
X105010000Y-83490000D01*
X95790000Y-97710000D02*
X95790000Y-83490000D01*
X104210000Y-98200000D02*
X102900000Y-98200000D01*
X104210000Y-98200000D02*
X104210000Y-96900000D01*
X105010000Y-83490000D02*
X105010000Y-97710000D01*
X105010000Y-97710000D02*
X95790000Y-97710000D01*
%TO.C,D8*%
X60600000Y-82160000D02*
X60600000Y-78150000D01*
X60600000Y-82160000D02*
X62600000Y-82160000D01*
X62600000Y-82160000D02*
X62600000Y-78150000D01*
%TO.C,U1*%
X80440000Y-53240000D02*
X80685000Y-53240000D01*
X80440000Y-60960000D02*
X80440000Y-53240000D01*
X80685000Y-60960000D02*
X80440000Y-60960000D01*
X98315000Y-53240000D02*
X98560000Y-53240000D01*
X98560000Y-53240000D02*
X98560000Y-60960000D01*
X98560000Y-60960000D02*
X98315000Y-60960000D01*
X80680000Y-61750000D02*
X80210000Y-62090000D01*
X80210000Y-61410000D01*
X80680000Y-61750000D01*
G36*
X80680000Y-61750000D02*
G01*
X80210000Y-62090000D01*
X80210000Y-61410000D01*
X80680000Y-61750000D01*
G37*
%TO.C,R35*%
X71100000Y-115600000D02*
X72350000Y-115600000D01*
X72350000Y-112710000D02*
X87650000Y-112710000D01*
X72350000Y-118490000D02*
X72350000Y-112710000D01*
X87650000Y-112710000D02*
X87650000Y-118490000D01*
X87650000Y-115600000D02*
X88900000Y-115600000D01*
X87650000Y-118490000D02*
X72350000Y-118490000D01*
%TO.C,C2*%
X86788748Y-108190000D02*
X88211252Y-108190000D01*
X86788748Y-110010000D02*
X88211252Y-110010000D01*
%TO.C,Q5*%
X87440000Y-74040000D02*
X88960000Y-74040000D01*
X87440000Y-74090000D02*
X87440000Y-74040000D01*
X87440000Y-75990000D02*
X87440000Y-75210000D01*
X87440000Y-77160000D02*
X87440000Y-77110000D01*
X88960000Y-74040000D02*
X88960000Y-75040000D01*
X88960000Y-76160000D02*
X88960000Y-77160000D01*
X88960000Y-77160000D02*
X87440000Y-77160000D01*
X86900000Y-75220000D02*
X87140000Y-75550000D01*
X86660000Y-75550000D01*
X86900000Y-75220000D01*
G36*
X87140000Y-75550000D02*
G01*
X86660000Y-75550000D01*
X86900000Y-75220000D01*
X87140000Y-75550000D01*
G37*
%TO.C,R15*%
X60690000Y-65872936D02*
X60690000Y-67327064D01*
X62510000Y-65872936D02*
X62510000Y-67327064D01*
%TO.C,R4*%
X70890000Y-70672936D02*
X70890000Y-72127064D01*
X72710000Y-70672936D02*
X72710000Y-72127064D01*
%TO.C,Q2*%
X71040000Y-74040000D02*
X72560000Y-74040000D01*
X71040000Y-74090000D02*
X71040000Y-74040000D01*
X71040000Y-75990000D02*
X71040000Y-75210000D01*
X71040000Y-77160000D02*
X71040000Y-77110000D01*
X72560000Y-74040000D02*
X72560000Y-75040000D01*
X72560000Y-76160000D02*
X72560000Y-77160000D01*
X72560000Y-77160000D02*
X71040000Y-77160000D01*
X70500000Y-75220000D02*
X70740000Y-75550000D01*
X70260000Y-75550000D01*
X70500000Y-75220000D01*
G36*
X70740000Y-75550000D02*
G01*
X70260000Y-75550000D01*
X70500000Y-75220000D01*
X70740000Y-75550000D01*
G37*
%TO.C,R5*%
X77090000Y-65872936D02*
X77090000Y-67327064D01*
X78910000Y-65872936D02*
X78910000Y-67327064D01*
%TO.C,K2*%
X75390000Y-83490000D02*
X84610000Y-83490000D01*
X75390000Y-97710000D02*
X75390000Y-83490000D01*
X83810000Y-98200000D02*
X82500000Y-98200000D01*
X83810000Y-98200000D02*
X83810000Y-96900000D01*
X84610000Y-83490000D02*
X84610000Y-97710000D01*
X84610000Y-97710000D02*
X75390000Y-97710000D01*
%TO.C,R22*%
X75590000Y-60327064D02*
X75590000Y-58872936D01*
X77410000Y-60327064D02*
X77410000Y-58872936D01*
%TO.C,Q6*%
X91440000Y-74040000D02*
X92960000Y-74040000D01*
X91440000Y-74090000D02*
X91440000Y-74040000D01*
X91440000Y-75990000D02*
X91440000Y-75210000D01*
X91440000Y-77160000D02*
X91440000Y-77110000D01*
X92960000Y-74040000D02*
X92960000Y-75040000D01*
X92960000Y-76160000D02*
X92960000Y-77160000D01*
X92960000Y-77160000D02*
X91440000Y-77160000D01*
X90900000Y-75220000D02*
X91140000Y-75550000D01*
X90660000Y-75550000D01*
X90900000Y-75220000D01*
G36*
X91140000Y-75550000D02*
G01*
X90660000Y-75550000D01*
X90900000Y-75220000D01*
X91140000Y-75550000D01*
G37*
%TO.C,R14*%
X56690000Y-70672936D02*
X56690000Y-72127064D01*
X58510000Y-70672936D02*
X58510000Y-72127064D01*
%TD*%
M02*
