%TF.GenerationSoftware,KiCad,Pcbnew,10.0.5*%
%TF.CreationDate,2026-09-11T12:13:04-07:00*%
%TF.ProjectId,nanovolt-divider,6e616e6f-766f-46c7-942d-646976696465,Rev0*%
%TF.SameCoordinates,Original*%
%TF.FileFunction,Soldermask,Top*%
%TF.FilePolarity,Negative*%
%FSLAX46Y46*%
G04 Gerber Fmt 4.6, Leading zero omitted, Abs format (unit mm)*
G04 Created by KiCad (PCBNEW 10.0.5) date 2026-09-11 12:13:04*
%MOMM*%
%LPD*%
G01*
G04 APERTURE LIST*
G04 Aperture macros list*
%AMRoundRect*
0 Rectangle with rounded corners*
0 $1 Rounding radius*
0 $2 $3 $4 $5 $6 $7 $8 $9 X,Y pos of 4 corners*
0 Add a 4 corners polygon primitive as box body*
4,1,4,$2,$3,$4,$5,$6,$7,$8,$9,$2,$3,0*
0 Add four circle primitives for the rounded corners*
1,1,$1+$1,$2,$3*
1,1,$1+$1,$4,$5*
1,1,$1+$1,$6,$7*
1,1,$1+$1,$8,$9*
0 Add four rect primitives between the rounded corners*
20,1,$1+$1,$2,$3,$4,$5,0*
20,1,$1+$1,$4,$5,$6,$7,0*
20,1,$1+$1,$6,$7,$8,$9,0*
20,1,$1+$1,$8,$9,$2,$3,0*%
G04 Aperture macros list end*
%ADD10RoundRect,0.225000X0.375000X-0.225000X0.375000X0.225000X-0.375000X0.225000X-0.375000X-0.225000X0*%
%ADD11RoundRect,0.250000X0.625000X-0.312500X0.625000X0.312500X-0.625000X0.312500X-0.625000X-0.312500X0*%
%ADD12RoundRect,0.250000X-0.625000X0.312500X-0.625000X-0.312500X0.625000X-0.312500X0.625000X0.312500X0*%
%ADD13RoundRect,0.250000X-0.675000X-0.675000X0.675000X-0.675000X0.675000X0.675000X-0.675000X0.675000X0*%
%ADD14RoundRect,0.150000X-0.825000X-0.150000X0.825000X-0.150000X0.825000X0.150000X-0.825000X0.150000X0*%
%ADD15C,2.200000*%
%ADD16RoundRect,0.150000X-0.587500X-0.150000X0.587500X-0.150000X0.587500X0.150000X-0.587500X0.150000X0*%
%ADD17R,1.600000X1.600000*%
%ADD18C,1.600000*%
%ADD19RoundRect,0.250000X0.650000X-0.325000X0.650000X0.325000X-0.650000X0.325000X-0.650000X-0.325000X0*%
%ADD20R,1.910000X1.910000*%
%ADD21C,1.910000*%
%ADD22RoundRect,0.150000X0.150000X-0.875000X0.150000X0.875000X-0.150000X0.875000X-0.150000X-0.875000X0*%
%ADD23R,2.020000X2.020000*%
%ADD24C,2.020000*%
%ADD25RoundRect,0.250000X-0.325000X-0.650000X0.325000X-0.650000X0.325000X0.650000X-0.325000X0.650000X0*%
G04 APERTURE END LIST*
D10*
%TO.C,D5*%
X88200000Y-81450000D03*
X88200000Y-78150000D03*
%TD*%
%TO.C,D6*%
X92200000Y-81450000D03*
X92200000Y-78150000D03*
%TD*%
D11*
%TO.C,R23*%
X102600000Y-55562500D03*
X102600000Y-52637500D03*
%TD*%
D12*
%TO.C,R7*%
X82000000Y-65137500D03*
X82000000Y-68062500D03*
%TD*%
D13*
%TO.C,J5*%
X95500000Y-115600000D03*
%TD*%
D14*
%TO.C,U2*%
X77525000Y-107195000D03*
X77525000Y-108465000D03*
X77525000Y-109735000D03*
X77525000Y-111005000D03*
X82475000Y-111005000D03*
X82475000Y-109735000D03*
X82475000Y-108465000D03*
X82475000Y-107195000D03*
%TD*%
D15*
%TO.C,H4*%
X107000000Y-100600000D03*
%TD*%
D16*
%TO.C,Q9*%
X97462500Y-74650000D03*
X97462500Y-76550000D03*
X99337500Y-75600000D03*
%TD*%
D13*
%TO.C,J6*%
X64500000Y-115600000D03*
%TD*%
D11*
%TO.C,R21*%
X76500000Y-55562500D03*
X76500000Y-52637500D03*
%TD*%
D12*
%TO.C,R6*%
X78000000Y-69937500D03*
X78000000Y-72862500D03*
%TD*%
D17*
%TO.C,R32*%
X84000000Y-100000000D03*
D18*
X73840000Y-100000000D03*
%TD*%
D10*
%TO.C,D4*%
X82000000Y-81450000D03*
X82000000Y-78150000D03*
%TD*%
D16*
%TO.C,Q10*%
X101462500Y-74650000D03*
X101462500Y-76550000D03*
X103337500Y-75600000D03*
%TD*%
D10*
%TO.C,D10*%
X102400000Y-81450000D03*
X102400000Y-78150000D03*
%TD*%
D17*
%TO.C,J8*%
X57900000Y-57000000D03*
D18*
X60440000Y-57000000D03*
X62980000Y-57000000D03*
X65520000Y-57000000D03*
%TD*%
D17*
%TO.C,R31*%
X71000000Y-100000000D03*
D18*
X60840000Y-100000000D03*
%TD*%
D17*
%TO.C,K4*%
X63410000Y-95680000D03*
D18*
X63410000Y-93140000D03*
X63410000Y-90600000D03*
X63410000Y-88060000D03*
X63410000Y-85520000D03*
X55790000Y-85520000D03*
X55790000Y-88060000D03*
X55790000Y-90600000D03*
X55790000Y-93140000D03*
X55790000Y-95680000D03*
%TD*%
D16*
%TO.C,Q1*%
X66862500Y-74650000D03*
X66862500Y-76550000D03*
X68737500Y-75600000D03*
%TD*%
D10*
%TO.C,D7*%
X57600000Y-81450000D03*
X57600000Y-78150000D03*
%TD*%
%TO.C,D3*%
X78000000Y-81450000D03*
X78000000Y-78150000D03*
%TD*%
D16*
%TO.C,Q7*%
X56662500Y-74650000D03*
X56662500Y-76550000D03*
X58537500Y-75600000D03*
%TD*%
D19*
%TO.C,C3*%
X71400000Y-55575000D03*
X71400000Y-52625000D03*
%TD*%
D12*
%TO.C,R16*%
X61600000Y-69937500D03*
X61600000Y-72862500D03*
%TD*%
D10*
%TO.C,D2*%
X71800000Y-81450000D03*
X71800000Y-78150000D03*
%TD*%
D12*
%TO.C,R17*%
X98400000Y-65137500D03*
X98400000Y-68062500D03*
%TD*%
D17*
%TO.C,J7*%
X57900000Y-52200000D03*
D18*
X60440000Y-52200000D03*
%TD*%
D12*
%TO.C,R3*%
X71800000Y-65137500D03*
X71800000Y-68062500D03*
%TD*%
%TO.C,R12*%
X92200000Y-69937500D03*
X92200000Y-72862500D03*
%TD*%
D13*
%TO.C,J2*%
X52500000Y-94600000D03*
%TD*%
D12*
%TO.C,R2*%
X67800000Y-69937500D03*
X67800000Y-72862500D03*
%TD*%
%TO.C,R1*%
X67800000Y-65137500D03*
X67800000Y-68062500D03*
%TD*%
%TO.C,R13*%
X57600000Y-65137500D03*
X57600000Y-68062500D03*
%TD*%
%TO.C,R9*%
X88200000Y-65137500D03*
X88200000Y-68062500D03*
%TD*%
D16*
%TO.C,Q8*%
X60662500Y-74650000D03*
X60662500Y-76550000D03*
X62537500Y-75600000D03*
%TD*%
D15*
%TO.C,H3*%
X53000000Y-100600000D03*
%TD*%
D16*
%TO.C,Q3*%
X77062500Y-74650000D03*
X77062500Y-76550000D03*
X78937500Y-75600000D03*
%TD*%
D12*
%TO.C,R19*%
X102400000Y-65137500D03*
X102400000Y-68062500D03*
%TD*%
%TO.C,R20*%
X102400000Y-69937500D03*
X102400000Y-72862500D03*
%TD*%
D13*
%TO.C,J1*%
X52500000Y-88600000D03*
%TD*%
D10*
%TO.C,D1*%
X67800000Y-81450000D03*
X67800000Y-78150000D03*
%TD*%
D17*
%TO.C,K1*%
X73610000Y-95680000D03*
D18*
X73610000Y-93140000D03*
X73610000Y-90600000D03*
X73610000Y-88060000D03*
X73610000Y-85520000D03*
X65990000Y-85520000D03*
X65990000Y-88060000D03*
X65990000Y-90600000D03*
X65990000Y-93140000D03*
X65990000Y-95680000D03*
%TD*%
D12*
%TO.C,R11*%
X92200000Y-65137500D03*
X92200000Y-68062500D03*
%TD*%
D10*
%TO.C,D9*%
X98400000Y-81450000D03*
X98400000Y-78150000D03*
%TD*%
D12*
%TO.C,R10*%
X88200000Y-69937500D03*
X88200000Y-72862500D03*
%TD*%
%TO.C,R18*%
X98400000Y-69937500D03*
X98400000Y-72862500D03*
%TD*%
D16*
%TO.C,Q4*%
X81062500Y-74650000D03*
X81062500Y-76550000D03*
X82937500Y-75600000D03*
%TD*%
D19*
%TO.C,C4*%
X71400000Y-61075000D03*
X71400000Y-58125000D03*
%TD*%
D15*
%TO.C,H1*%
X53000000Y-53000000D03*
%TD*%
D12*
%TO.C,R8*%
X82000000Y-69937500D03*
X82000000Y-72862500D03*
%TD*%
D19*
%TO.C,C1*%
X102600000Y-61075000D03*
X102600000Y-58125000D03*
%TD*%
D20*
%TO.C,R33*%
X98500000Y-100000000D03*
D21*
X88340000Y-100000000D03*
%TD*%
D17*
%TO.C,K3*%
X94010000Y-95680000D03*
D18*
X94010000Y-93140000D03*
X94010000Y-90600000D03*
X94010000Y-88060000D03*
X94010000Y-85520000D03*
X86390000Y-85520000D03*
X86390000Y-88060000D03*
X86390000Y-90600000D03*
X86390000Y-93140000D03*
X86390000Y-95680000D03*
%TD*%
D17*
%TO.C,K5*%
X104210000Y-95680000D03*
D18*
X104210000Y-93140000D03*
X104210000Y-90600000D03*
X104210000Y-88060000D03*
X104210000Y-85520000D03*
X96590000Y-85520000D03*
X96590000Y-88060000D03*
X96590000Y-90600000D03*
X96590000Y-93140000D03*
X96590000Y-95680000D03*
%TD*%
D10*
%TO.C,D8*%
X61600000Y-81450000D03*
X61600000Y-78150000D03*
%TD*%
D22*
%TO.C,U1*%
X81245000Y-61750000D03*
X82515000Y-61750000D03*
X83785000Y-61750000D03*
X85055000Y-61750000D03*
X86325000Y-61750000D03*
X87595000Y-61750000D03*
X88865000Y-61750000D03*
X90135000Y-61750000D03*
X91405000Y-61750000D03*
X92675000Y-61750000D03*
X93945000Y-61750000D03*
X95215000Y-61750000D03*
X96485000Y-61750000D03*
X97755000Y-61750000D03*
X97755000Y-52450000D03*
X96485000Y-52450000D03*
X95215000Y-52450000D03*
X93945000Y-52450000D03*
X92675000Y-52450000D03*
X91405000Y-52450000D03*
X90135000Y-52450000D03*
X88865000Y-52450000D03*
X87595000Y-52450000D03*
X86325000Y-52450000D03*
X85055000Y-52450000D03*
X83785000Y-52450000D03*
X82515000Y-52450000D03*
X81245000Y-52450000D03*
%TD*%
D23*
%TO.C,R35*%
X69840000Y-115600000D03*
D24*
X90160000Y-115600000D03*
%TD*%
D25*
%TO.C,C2*%
X86025000Y-109100000D03*
X88975000Y-109100000D03*
%TD*%
D16*
%TO.C,Q5*%
X87262500Y-74650000D03*
X87262500Y-76550000D03*
X89137500Y-75600000D03*
%TD*%
D15*
%TO.C,H2*%
X107000000Y-53000000D03*
%TD*%
D12*
%TO.C,R15*%
X61600000Y-65137500D03*
X61600000Y-68062500D03*
%TD*%
%TO.C,R4*%
X71800000Y-69937500D03*
X71800000Y-72862500D03*
%TD*%
D16*
%TO.C,Q2*%
X70862500Y-74650000D03*
X70862500Y-76550000D03*
X72737500Y-75600000D03*
%TD*%
D12*
%TO.C,R5*%
X78000000Y-65137500D03*
X78000000Y-68062500D03*
%TD*%
D17*
%TO.C,K2*%
X83810000Y-95680000D03*
D18*
X83810000Y-93140000D03*
X83810000Y-90600000D03*
X83810000Y-88060000D03*
X83810000Y-85520000D03*
X76190000Y-85520000D03*
X76190000Y-88060000D03*
X76190000Y-90600000D03*
X76190000Y-93140000D03*
X76190000Y-95680000D03*
%TD*%
D11*
%TO.C,R22*%
X76500000Y-61062500D03*
X76500000Y-58137500D03*
%TD*%
D16*
%TO.C,Q6*%
X91262500Y-74650000D03*
X91262500Y-76550000D03*
X93137500Y-75600000D03*
%TD*%
D12*
%TO.C,R14*%
X57600000Y-69937500D03*
X57600000Y-72862500D03*
%TD*%
M02*
